<?xml version="1.0" encoding="utf-8"?>
<!-- Generator: Adobe Illustrator 16.0.0, SVG Export Plug-In . SVG Version: 6.00 Build 0)  -->
<!DOCTYPE svg PUBLIC "-//W3C//DTD SVG 1.1//EN" "http://www.w3.org/Graphics/SVG/1.1/DTD/svg11.dtd">
<svg version="1.1" id="Layer_1" xmlns="http://www.w3.org/2000/svg" xmlns:xlink="http://www.w3.org/1999/xlink" x="0px" y="0px"
	 width="113.386px" height="34.016px" viewBox="0 0 113.386 34.016" enable-background="new 0 0 113.386 34.016"
	 xml:space="preserve">
<g>
	<defs>
		<rect id="SVGID_1_" y="0" width="113.386" height="34.016"/>
	</defs>
	<clipPath id="SVGID_2_">
		<use xlink:href="#SVGID_1_"  overflow="visible"/>
	</clipPath>
	<path clip-path="url(#SVGID_2_)" fill="#ED1C24" d="M10.303,34.016c-1.072,0-2.081-0.662-2.468-1.726L0.158,11.198
		C-0.08,10.542-0.048,9.83,0.249,9.192C0.546,8.556,1.07,8.074,1.726,7.834l21.092-7.676c0.656-0.239,1.368-0.207,2.005,0.09
		c0.637,0.297,1.119,0.822,1.358,1.478l7.676,21.091c0.495,1.36-0.208,2.868-1.568,3.363l-21.091,7.677
		C10.902,33.965,10.6,34.016,10.303,34.016 M23.711,0.304c-0.266,0-0.533,0.046-0.789,0.14L1.83,8.121
		C1.25,8.332,0.786,8.758,0.524,9.322c-0.263,0.563-0.292,1.193-0.081,1.772L8.12,32.186c0.438,1.202,1.772,1.824,2.974,1.386
		l21.091-7.676c1.203-0.438,1.825-1.771,1.387-2.974L25.895,1.831c-0.211-0.58-0.637-1.044-1.201-1.307
		C24.381,0.377,24.046,0.304,23.711,0.304"/>
	<path clip-path="url(#SVGID_2_)" fill="#ED1C24" d="M10.299,32.926c-1.043,0-2.016-0.661-2.364-1.702L1.218,11.085
		c-0.21-0.628-0.161-1.303,0.137-1.899c0.298-0.597,0.808-1.041,1.437-1.25L22.93,1.218c0.629-0.209,1.303-0.16,1.9,0.138
		c0.596,0.298,1.04,0.808,1.25,1.436l6.717,20.139c0.434,1.302-0.272,2.715-1.574,3.149l-20.139,6.718
		C10.824,32.884,10.559,32.926,10.299,32.926 M23.715,1.394c-0.231,0-0.463,0.037-0.689,0.112L2.888,8.223
		c-0.552,0.184-1,0.574-1.261,1.098c-0.262,0.524-0.305,1.117-0.121,1.668l6.717,20.139c0.381,1.143,1.622,1.763,2.765,1.382
		l20.139-6.717l0.048,0.144l-0.048-0.144c1.143-0.382,1.764-1.622,1.382-2.767L25.792,2.888c-0.184-0.551-0.574-0.999-1.098-1.261
		C24.384,1.472,24.05,1.394,23.715,1.394"/>
	<path clip-path="url(#SVGID_2_)" fill="#ED1C24" d="M10.295,31.837c-0.386,0-0.768-0.095-1.118-0.284
		c-0.556-0.299-0.962-0.795-1.142-1.396L2.277,10.972c-0.18-0.601-0.114-1.238,0.185-1.794c0.299-0.556,0.795-0.962,1.396-1.142
		l19.185-5.758c1.246-0.374,2.563,0.336,2.936,1.581l5.758,19.185c0.18,0.601,0.115,1.238-0.185,1.794
		c-0.299,0.556-0.795,0.962-1.396,1.142l-19.185,5.759C10.749,31.804,10.521,31.837,10.295,31.837 M23.721,2.482
		c-0.195,0-0.393,0.028-0.589,0.087L3.945,8.326C3.422,8.484,2.991,8.837,2.729,9.321c-0.261,0.485-0.318,1.04-0.161,1.563
		L8.327,30.07c0.157,0.522,0.51,0.955,0.995,1.216c0.484,0.261,1.039,0.317,1.563,0.161l19.185-5.759
		c0.523-0.156,0.955-0.51,1.216-0.994c0.261-0.484,0.318-1.039,0.161-1.563L25.689,3.946C25.422,3.057,24.604,2.482,23.721,2.482"/>
	<path clip-path="url(#SVGID_2_)" fill="#ED1C24" d="M10.291,30.751c-0.39,0-0.775-0.103-1.122-0.306
		c-0.515-0.3-0.882-0.782-1.033-1.355L3.338,10.858C3.025,9.67,3.737,8.449,4.925,8.136l18.233-4.798
		c0.573-0.151,1.173-0.068,1.688,0.232c0.516,0.301,0.883,0.782,1.034,1.356l4.798,18.232c0.15,0.573,0.068,1.173-0.233,1.688
		c-0.3,0.517-0.782,0.884-1.355,1.034l-18.233,4.798C10.67,30.727,10.48,30.751,10.291,30.751 M23.724,3.568
		c-0.163,0-0.327,0.021-0.489,0.064L5.003,8.429C3.977,8.7,3.361,9.754,3.631,10.78l4.798,18.233c0.131,0.495,0.448,0.91,0.893,1.17
		c0.445,0.261,0.963,0.331,1.458,0.201l18.233-4.798c0.495-0.13,0.91-0.447,1.17-0.892c0.26-0.446,0.331-0.964,0.201-1.459
		L25.586,5.003c-0.13-0.495-0.447-0.911-0.893-1.17C24.393,3.657,24.061,3.568,23.724,3.568"/>
	<path clip-path="url(#SVGID_2_)" fill="#ED1C24" d="M10.287,29.668c-0.963,0-1.834-0.668-2.051-1.646L4.398,10.743
		C4.146,9.612,4.862,8.487,5.993,8.236l17.279-3.838c0.546-0.122,1.108-0.022,1.583,0.28c0.475,0.302,0.803,0.769,0.924,1.315
		l3.838,17.28c0.252,1.13-0.464,2.255-1.595,2.506l-17.279,3.838C10.59,29.651,10.437,29.668,10.287,29.668 M23.728,4.651
		c-0.13,0-0.26,0.014-0.39,0.043L6.059,8.532c-0.968,0.215-1.58,1.177-1.365,2.145l3.838,17.279c0.215,0.969,1.177,1.58,2.145,1.365
		l17.279-3.838c0.968-0.215,1.58-1.177,1.365-2.146L25.483,6.06c-0.104-0.467-0.385-0.866-0.791-1.125
		C24.398,4.748,24.066,4.651,23.728,4.651"/>
	<path clip-path="url(#SVGID_2_)" fill="#ED1C24" d="M10.283,28.588c-0.941,0-1.778-0.676-1.947-1.634L5.457,10.627
		c-0.091-0.518,0.026-1.042,0.33-1.476c0.304-0.434,0.756-0.723,1.274-0.815l16.327-2.878c0.518-0.092,1.042,0.025,1.476,0.329
		c0.434,0.304,0.723,0.756,0.815,1.275l2.878,16.327c0.092,0.518-0.025,1.043-0.329,1.476c-0.304,0.434-0.756,0.723-1.275,0.815
		l-16.326,2.879C10.511,28.578,10.396,28.588,10.283,28.588 M23.732,5.731c-0.096,0-0.194,0.008-0.291,0.026L7.114,8.635
		c-0.438,0.078-0.821,0.323-1.079,0.69c-0.257,0.367-0.356,0.811-0.279,1.25l2.879,16.326c0.16,0.909,1.03,1.518,1.939,1.357
		l16.327-2.879c0.438-0.076,0.821-0.321,1.078-0.689c0.258-0.367,0.357-0.812,0.279-1.249L25.38,7.114
		C25.237,6.303,24.529,5.731,23.732,5.731"/>
	<path clip-path="url(#SVGID_2_)" fill="#ED1C24" d="M10.279,27.512c-0.41,0-0.807-0.136-1.138-0.393
		c-0.392-0.306-0.642-0.744-0.704-1.235L6.518,10.511c-0.061-0.491,0.073-0.977,0.379-1.37c0.306-0.393,0.744-0.643,1.235-0.704
		l15.373-1.919c1.017-0.127,1.947,0.597,2.074,1.613l1.919,15.374c0.127,1.017-0.597,1.946-1.614,2.073l-15.373,1.919
		C10.434,27.507,10.355,27.512,10.279,27.512 M23.736,6.807c-0.064,0-0.128,0.004-0.194,0.012L8.168,8.738
		C7.759,8.79,7.392,8.999,7.137,9.327c-0.256,0.329-0.369,0.736-0.318,1.146l1.919,15.374c0.052,0.41,0.261,0.776,0.59,1.032
		c0.328,0.256,0.736,0.369,1.145,0.317l15.374-1.919c0.85-0.106,1.456-0.884,1.35-1.735l-1.92-15.373
		C25.179,7.384,24.508,6.807,23.736,6.807"/>
	<path clip-path="url(#SVGID_2_)" fill="#ED1C24" d="M10.276,26.441c-0.421,0-0.824-0.152-1.146-0.434
		c-0.351-0.308-0.561-0.731-0.592-1.194l-0.96-14.42C7.514,9.434,8.243,8.602,9.202,8.538l14.42-0.96
		c0.463-0.03,0.911,0.122,1.263,0.43c0.351,0.307,0.562,0.731,0.592,1.194l0.96,14.42c0.031,0.463-0.122,0.912-0.429,1.263
		c-0.308,0.352-0.732,0.562-1.195,0.593l-14.42,0.96C10.354,26.44,10.315,26.441,10.276,26.441 M23.739,7.878
		c-0.032,0-0.064,0.001-0.097,0.003l-14.42,0.96c-0.792,0.053-1.394,0.74-1.341,1.532l0.96,14.42
		c0.052,0.792,0.74,1.396,1.532,1.341l14.42-0.959c0.382-0.025,0.732-0.199,0.987-0.489c0.254-0.29,0.38-0.661,0.354-1.043
		l-0.959-14.42c-0.026-0.382-0.2-0.732-0.49-0.986C24.419,8.003,24.086,7.878,23.739,7.878"/>
	<path clip-path="url(#SVGID_2_)" fill="#ED1C24" d="M23.741,25.376H10.274c-0.901,0-1.635-0.733-1.635-1.635V10.274
		c0-0.901,0.734-1.635,1.635-1.635h13.467c0.902,0,1.635,0.734,1.635,1.635v13.467C25.376,24.643,24.643,25.376,23.741,25.376
		 M10.274,8.943c-0.734,0-1.331,0.597-1.331,1.331v13.467c0,0.734,0.597,1.332,1.331,1.332h13.467c0.734,0,1.331-0.598,1.331-1.332
		V10.274c0-0.734-0.597-1.331-1.331-1.331H10.274z"/>
	<path clip-path="url(#SVGID_2_)" fill="#ED1C24" d="M76.716,20.271l1.159-2.426c0.045-0.094,0.141-0.153,0.245-0.153h5.402
		l-0.519-1.071h-4.102c-0.094,0-0.182-0.049-0.23-0.129c-0.049-0.081-0.054-0.181-0.011-0.265l2.533-5.037
		c0.046-0.091,0.141-0.149,0.243-0.149h0.001c0.104,0,0.197,0.059,0.243,0.152l4.44,9.079h1.331L81.89,8.943h-0.944l-5.513,11.328
		H76.716z"/>
	<path clip-path="url(#SVGID_2_)" fill="#ED1C24" d="M103.486,10.087h9.899V8.943H102.08v11.328h11.306v-1.16h-9.899
		c-0.149,0-0.271-0.122-0.271-0.272v-4.146h10.171v-1.127h-10.171v-3.207C103.215,10.209,103.337,10.087,103.486,10.087"/>
	<path clip-path="url(#SVGID_2_)" fill="#ED1C24" d="M97.49,14.717c1.544-0.005,2.265-0.737,2.265-2.303v-1.194
		c-0.006-1.541-0.726-2.265-2.264-2.28h-9.06v11.33h1.144v-5.553h4.5l-0.555-1.136h-3.945v-3.218c0-0.15,0.122-0.271,0.272-0.271
		h7.401c0.878,0,1.361,0.48,1.361,1.353v0.807c0,0.859-0.48,1.331-1.353,1.331c-0.036,0-0.072,0-0.098-0.002h-0.316h-0.669h-1.227
		h-0.092h-0.012l0.558,1.136h0.009l2.716,5.553h1.331l-2.727-5.553h0.112H97.49z"/>
	<path clip-path="url(#SVGID_2_)" fill="#ED1C24" d="M36.396,20.263V19.11h8.615c0.465-0.003,0.823-0.129,1.068-0.373
		c0.246-0.246,0.37-0.604,0.366-1.062v-1.596c0.003-0.434-0.115-0.775-0.351-1.013c-0.245-0.247-0.61-0.373-1.083-0.373h-6.457
		c-1.549,0-2.271-0.731-2.271-2.303l0.008-1.176c0-1.547,0.722-2.268,2.272-2.273h8.945v1.152h-8.696
		c-0.888,0-1.377,0.472-1.377,1.329v0.774c0,0.894,0.478,1.386,1.345,1.386h6.546c1.555,0,2.279,0.663,2.279,2.085v2.316
		c-0.005,1.551-0.729,2.274-2.279,2.279H36.396z"/>
	<path clip-path="url(#SVGID_2_)" fill="#ED1C24" d="M65.828,20.263c-1.55,0-2.271-0.722-2.271-2.271v-9.06h1.152v8.744
		c0,0.925,0.498,1.434,1.401,1.434h6.196c0.909,0,1.41-0.482,1.41-1.36V8.949h1.162v9.043c-0.049,1.547-0.796,2.271-2.352,2.271
		H65.828z"/>
	<path clip-path="url(#SVGID_2_)" fill="#ED1C24" d="M58.974,8.949h-6.772c-1.55,0-2.271,0.722-2.271,2.271V18
		c0,1.55,0.721,2.271,2.271,2.271h2.444l-0.563-1.152H52.5c-0.914,0-1.417-0.5-1.417-1.408v-6.2c0-0.907,0.505-1.411,1.426-1.417
		h6.176c0.908,0.006,1.408,0.504,1.408,1.401v6.304c0,1.088-0.69,1.289-1.103,1.312h-0.017c-0.003,0-0.007,0.005-0.012,0.008H56.72
		l-1.128-2.296H54.28l1.694,3.449h2.481h0.388h0.131c1.55,0,2.274-0.724,2.279-2.279v-6.795C61.253,9.663,60.529,8.949,58.974,8.949
		"/>
</g>
</svg>
