<?xml version="1.0" encoding="utf-8"?>
<!-- Generator: Adobe Illustrator 16.0.0, SVG Export Plug-In . SVG Version: 6.00 Build 0)  -->
<!DOCTYPE svg PUBLIC "-//W3C//DTD SVG 1.1//EN" "http://www.w3.org/Graphics/SVG/1.1/DTD/svg11.dtd">
<svg version="1.1" id="Layer_1" xmlns="http://www.w3.org/2000/svg" xmlns:xlink="http://www.w3.org/1999/xlink" x="0px" y="0px"
	 width="218.905px" height="141.556px" viewBox="0 0 218.905 141.556" enable-background="new 0 0 218.905 141.556"
	 xml:space="preserve">
<polygon fill="#ED1C24" points="45.876,115.483 45.876,98.979 44.06,98.979 44.06,115.483 44.06,117.071 44.06,117.333 
	62.387,117.333 62.387,115.483 "/>
<g>
	<defs>
		<rect id="SVGID_1_" width="218.905" height="141.556"/>
	</defs>
	<clipPath id="SVGID_2_">
		<use xlink:href="#SVGID_1_"  overflow="visible"/>
	</clipPath>
	<path clip-path="url(#SVGID_2_)" fill="#ED1C24" d="M0.183,117.328v-1.864h13.945c0.751-0.006,1.332-0.209,1.728-0.606
		c0.399-0.397,0.598-0.977,0.593-1.718v-2.584c0.005-0.702-0.186-1.255-0.569-1.64c-0.397-0.4-0.986-0.604-1.752-0.604H3.676
		c-2.508,0-3.676-1.185-3.676-3.728l0.013-1.905c0-2.502,1.169-3.671,3.677-3.679h14.48v1.865H4.094
		c-1.438,0-2.229,0.764-2.229,2.15v1.254c0,1.447,0.773,2.243,2.177,2.243h10.595c2.517,0,3.69,1.073,3.69,3.375v3.75
		c-0.008,2.508-1.181,3.682-3.69,3.689H0.183z"/>
	<path clip-path="url(#SVGID_2_)" fill="#ED1C24" d="M22.077,117.328V99.014h18.301v1.852H24.354c-0.243,0-0.439,0.196-0.439,0.439
		v13.718c0,0.243,0.196,0.44,0.439,0.44h16.023v1.864H22.077z M23.639,108.312l-0.896-1.824h17.635v1.824H23.639z"/>
	<path clip-path="url(#SVGID_2_)" fill="#ED1C24" d="M64.319,117.328V99.014H82.62v1.852H66.597c-0.243,0-0.439,0.196-0.439,0.439
		v15.993C65.359,117.298,64.319,117.328,64.319,117.328 M65.881,108.312l-0.896-1.824H82.62v1.824H65.881z"/>
	<path clip-path="url(#SVGID_2_)" fill="#ED1C24" d="M114.011,117.355V99.042h18.302v1.852h-16.023
		c-0.243,0-0.439,0.196-0.439,0.439v13.718c0,0.243,0.196,0.44,0.439,0.44h16.023v1.864H114.011z M115.573,108.339l-0.896-1.824
		h17.636v1.824H115.573z"/>
	<path clip-path="url(#SVGID_2_)" fill="#ED1C24" d="M95.98,117.368v-1.869h9.916c0.068,0.004,0.135,0.006,0.201,0.006
		c0.814,0,2.19-0.333,2.256-2.566V103.3c-0.021-1.569-0.852-2.431-2.342-2.431H94.165c-0.244,0-0.441,0.197-0.441,0.44v16.058
		h-1.842V99.014h14.655c2.472,0.056,3.65,1.199,3.698,3.601l-0.04,11.08c-0.048,2.438-1.212,3.608-3.664,3.673H95.98z"/>
	<path clip-path="url(#SVGID_2_)" fill="#ED1C24" d="M204.65,117.368v-1.869h9.916c0.068,0.004,0.136,0.006,0.201,0.006
		c0.814,0,2.19-0.333,2.256-2.566V103.3c-0.021-1.569-0.852-2.431-2.342-2.431h-11.846c-0.244,0-0.441,0.197-0.441,0.44v16.058
		h-1.842V99.014h14.655c2.472,0.056,3.649,1.199,3.698,3.601l-0.04,11.08c-0.049,2.438-1.213,3.608-3.664,3.673H204.65z"/>
	<rect x="86.325" y="106.487" clip-path="url(#SVGID_2_)" fill="#ED1C24" width="1.852" height="1.853"/>
	<rect x="136.015" y="99.032" clip-path="url(#SVGID_2_)" fill="#ED1C24" width="1.842" height="18.318"/>
	<rect x="153.641" y="99.032" clip-path="url(#SVGID_2_)" fill="#ED1C24" width="1.842" height="18.318"/>
	<path clip-path="url(#SVGID_2_)" fill="#ED1C24" d="M137.856,99.032h-0.427v3.527c0.035,0.035,0.066,0.072,0.089,0.119
		l7.156,14.633h2.159L137.856,99.032z"/>
	<path clip-path="url(#SVGID_2_)" fill="#ED1C24" d="M153.654,99.032h0.427v3.527c-0.035,0.035-0.067,0.072-0.089,0.119
		l-7.156,14.633h-2.159L153.654,99.032z"/>
	<path clip-path="url(#SVGID_2_)" fill="#ED1C24" d="M159.41,117.322l1.841-3.853c0.072-0.152,0.227-0.251,0.396-0.251h8.745
		l-0.841-1.732h-6.637c-0.152,0-0.295-0.079-0.374-0.209c-0.08-0.13-0.088-0.292-0.019-0.43l4.103-8.151
		c0.073-0.149,0.227-0.242,0.393-0.242h0.001c0.168,0.001,0.32,0.096,0.394,0.246l7.144,14.608h2.156l-8.962-18.247h-1.529
		l-8.887,18.261H159.41z"/>
	<rect x="178.563" y="99.047" clip-path="url(#SVGID_2_)" fill="#ED1C24" width="1.838" height="18.287"/>
	<rect x="195.012" y="99.047" clip-path="url(#SVGID_2_)" fill="#ED1C24" width="1.838" height="18.287"/>
	<polygon clip-path="url(#SVGID_2_)" fill="#ED1C24" points="178.562,99.047 194.389,117.334 196.85,117.334 180.995,99.047 	"/>
	<path clip-path="url(#SVGID_2_)" fill="#ED1C24" d="M90.117,71.342h-0.005c-3.749,0-6.802-3.048-6.805-6.797L83.254,6.864
		C83.251,3.113,86.3,0.057,90.05,0.053L147.732,0c3.754,0,6.807,3.05,6.811,6.798l0.053,57.681c0.003,1.81-0.705,3.518-1.993,4.807
		c-1.287,1.29-2.994,2.002-4.805,2.003L90.117,71.342z M147.737,0.904L90.051,0.958c-3.251,0.004-5.896,2.653-5.893,5.906
		l0.054,57.681c0.003,3.249,2.649,5.893,5.9,5.893v0.452l0.005-0.452l57.681-0.054c1.568-0.001,3.047-0.618,4.165-1.737
		c1.116-1.119,1.73-2.598,1.729-4.168l-0.054-57.68C153.634,3.549,150.988,0.904,147.737,0.904"/>
	<path clip-path="url(#SVGID_2_)" fill="#ED1C24" d="M87.425,73.71H87.42c-3.574,0-6.484-2.907-6.487-6.481l-0.047-54.797
		c-0.003-3.576,2.904-6.488,6.481-6.491l54.797-0.047c3.578,0,6.487,2.907,6.49,6.481l0.048,54.796
		c0.003,3.576-2.904,6.489-6.481,6.492L87.425,73.71z M142.17,6.798L87.367,6.846c-3.078,0.003-5.58,2.509-5.577,5.587l0.047,54.797
		c0.003,3.075,2.507,5.577,5.583,5.577v0.452l0.005-0.452l54.796-0.047c3.078-0.003,5.58-2.51,5.577-5.588l-0.047-54.796
		C147.748,9.301,145.244,6.798,142.17,6.798"/>
	<path clip-path="url(#SVGID_2_)" fill="#ED1C24" d="M84.731,76.08h-0.004c-3.399,0-6.167-2.767-6.17-6.166l-0.04-51.912
		c-0.002-3.402,2.764-6.171,6.165-6.174l51.912-0.04c3.401,0,6.171,2.765,6.174,6.165l0.04,51.912
		c0.002,3.401-2.764,6.171-6.165,6.174L84.731,76.08z M136.599,12.692l-51.916,0.04c-2.902,0.003-5.263,2.366-5.261,5.27
		l0.04,51.912c0.003,2.9,2.366,5.26,5.266,5.26v0.453l0.004-0.453l51.912-0.04c2.902-0.003,5.263-2.366,5.261-5.269l-0.04-51.912
		C141.861,15.052,139.498,12.692,136.599,12.692"/>
	<path clip-path="url(#SVGID_2_)" fill="#ED1C24" d="M82.038,78.447h-0.004c-3.224,0-5.849-2.623-5.851-5.847l-0.034-49.029
		c-0.002-3.226,2.621-5.853,5.848-5.855l49.028-0.033c3.229,0,5.854,2.623,5.855,5.847l0.033,49.029
		c0.002,3.225-2.621,5.852-5.848,5.854L82.038,78.447z M131.029,18.586L81.997,18.62c-2.728,0.002-4.946,2.223-4.944,4.951
		L77.088,72.6c0.002,2.725,2.22,4.942,4.946,4.942v0.452l0.004-0.452l49.028-0.034c2.728-0.002,4.944-2.223,4.942-4.949
		l-0.032-49.029C135.975,20.805,133.755,18.586,131.029,18.586"/>
	<path clip-path="url(#SVGID_2_)" fill="#ED1C24" d="M79.346,80.814h-0.004c-3.049,0-5.531-2.479-5.533-5.53l-0.027-46.145
		c-0.001-1.472,0.575-2.86,1.622-3.909c1.048-1.049,2.436-1.627,3.909-1.627l46.144-0.027c3.053,0,5.535,2.481,5.537,5.531
		l0.026,46.145c0.002,3.05-2.479,5.535-5.531,5.537L79.346,80.814z M125.461,24.48l-46.148,0.027
		c-1.231,0.001-2.392,0.485-3.268,1.362c-0.877,0.878-1.359,2.039-1.358,3.27l0.026,46.145c0.002,2.551,2.078,4.626,4.629,4.626
		v0.452l0.004-0.452l46.144-0.026c2.553-0.002,4.629-2.08,4.627-4.632l-0.026-46.145C130.088,26.556,128.012,24.48,125.461,24.48"/>
	<path clip-path="url(#SVGID_2_)" fill="#ED1C24" d="M76.652,83.183h-0.004c-2.874,0-5.214-2.339-5.215-5.214l-0.02-43.26
		c-0.001-1.388,0.542-2.696,1.53-3.686c0.988-0.988,2.296-1.533,3.684-1.533l43.26-0.019c2.878,0,5.218,2.339,5.219,5.214
		l0.021,43.259c0.001,1.388-0.543,2.697-1.53,3.686s-2.296,1.533-3.685,1.533L76.652,83.183z M119.892,30.375l-43.264,0.02
		c-1.146,0.001-2.227,0.451-3.044,1.268c-0.817,0.817-1.266,1.9-1.265,3.046l0.019,43.26c0.001,2.376,1.935,4.309,4.311,4.309v0.452
		l0.004-0.452l43.26-0.02c1.146-0.001,2.228-0.45,3.044-1.269c0.817-0.817,1.267-1.899,1.267-3.046l-0.021-43.259
		C124.201,32.309,122.268,30.375,119.892,30.375"/>
	<path clip-path="url(#SVGID_2_)" fill="#ED1C24" d="M73.959,85.55h-0.002c-2.7,0-4.898-2.196-4.899-4.896l-0.012-40.376
		c-0.001-1.304,0.509-2.532,1.436-3.46c0.928-0.929,2.156-1.44,3.46-1.44l40.377-0.013c1.304,0,2.533,0.51,3.461,1.437
		c0.928,0.928,1.438,2.156,1.438,3.46l0.015,40.376c0.001,1.304-0.51,2.532-1.438,3.461c-0.927,0.928-2.156,1.44-3.46,1.44
		L73.959,85.55z M114.321,36.268l-40.379,0.014c-1.061,0-2.063,0.417-2.819,1.173c-0.757,0.758-1.173,1.759-1.173,2.822
		l0.013,40.376c0.001,2.201,1.793,3.992,3.994,3.992l40.378-0.013c1.062-0.001,2.063-0.418,2.82-1.175s1.173-1.758,1.173-2.821
		l-0.014-40.376C118.314,38.059,116.523,36.268,114.321,36.268"/>
	<path clip-path="url(#SVGID_2_)" fill="#ED1C24" d="M71.266,87.918h-0.002c-2.526,0-4.579-2.055-4.579-4.58l-0.007-37.492
		c-0.001-1.219,0.476-2.369,1.344-3.236c0.868-0.868,2.017-1.346,3.236-1.346l37.492-0.007c2.524,0,4.581,2.054,4.582,4.581
		l0.007,37.492c0,2.526-2.055,4.581-4.58,4.581L71.266,87.918z M108.75,42.162l-37.492,0.007c-0.978,0.001-1.9,0.385-2.596,1.081
		c-0.697,0.697-1.08,1.619-1.08,2.597l0.007,37.492c0,2.026,1.648,3.677,3.675,3.677l37.495-0.007c2.026,0,3.676-1.65,3.676-3.678
		l-0.007-37.492C112.427,43.811,110.777,42.162,108.75,42.162"/>
	<path clip-path="url(#SVGID_2_)" fill="#ED1C24" d="M103.181,90.287H68.573c-2.352,0-4.264-1.912-4.264-4.264V51.415
		c0-2.35,1.912-4.262,4.264-4.262h34.608c2.351,0,4.263,1.912,4.263,4.262v34.608C107.444,88.375,105.532,90.287,103.181,90.287
		 M68.573,48.056c-1.853,0-3.359,1.507-3.359,3.358v34.608c0,1.853,1.506,3.359,3.359,3.359h34.608c1.852,0,3.359-1.507,3.359-3.359
		V51.415c0-1.851-1.507-3.358-3.359-3.358H68.573z"/>
	<path clip-path="url(#SVGID_2_)" d="M50.477,129.911c0.145,0,0.209,0.064,0.209,0.21v0.289c0,0.129-0.064,0.193-0.209,0.193h-6.031
		v4.6h5.34c0.129,0,0.193,0.064,0.193,0.192v0.29c0,0.145-0.064,0.209-0.193,0.209h-5.34v4.745h6.257
		c0.144,0,0.209,0.063,0.209,0.192v0.289c0,0.145-0.065,0.209-0.209,0.209h-6.788c-0.144,0-0.209-0.064-0.209-0.209v-11
		c0-0.146,0.065-0.21,0.209-0.21H50.477z"/>
	<path clip-path="url(#SVGID_2_)" d="M58.74,133.095c0.177,0,0.209,0.064,0.112,0.193l-2.911,3.812l3.105,4.037
		c0.08,0.128,0.048,0.192-0.129,0.192h-0.338c-0.129,0-0.241-0.047-0.321-0.16l-2.767-3.587l-2.75,3.587
		c-0.064,0.113-0.177,0.16-0.321,0.16h-0.323c-0.16,0-0.209-0.064-0.128-0.192l3.104-4.053l-2.959-3.796
		c-0.081-0.129-0.032-0.193,0.145-0.193h0.321c0.144,0,0.258,0.049,0.322,0.146l2.606,3.36l2.588-3.36
		c0.081-0.097,0.177-0.146,0.322-0.146H58.74z"/>
	<path clip-path="url(#SVGID_2_)" d="M59.848,135.974c0-1.978,1.174-3.12,3.425-3.12c1.785,0,2.879,0.74,3.313,2.203
		c0.048,0.129,0,0.227-0.112,0.273l-0.273,0.097c-0.129,0.049-0.209,0-0.258-0.129c-0.386-1.27-1.142-1.816-2.701-1.816
		c-1.787,0-2.719,0.916-2.719,2.46v2.51c0,1.544,0.981,2.477,2.719,2.477c1.527,0,2.363-0.611,2.733-1.914
		c0.049-0.129,0.129-0.177,0.258-0.129l0.289,0.097c0.129,0.049,0.161,0.145,0.112,0.258c-0.466,1.544-1.607,2.315-3.392,2.315
		c-2.205,0-3.394-1.142-3.394-3.12V135.974z"/>
	<path clip-path="url(#SVGID_2_)" d="M68.062,136.215c0-2.106,1.223-3.361,3.474-3.361c2.268,0,3.474,1.287,3.474,3.329v0.821
		c0,0.24-0.129,0.353-0.37,0.353h-5.886v1.094c0,1.561,0.933,2.51,2.686,2.51c1.318,0,2.268-0.531,2.847-1.576
		c0.08-0.113,0.177-0.146,0.289-0.081l0.225,0.129c0.128,0.064,0.145,0.161,0.064,0.289c-0.659,1.223-1.801,1.834-3.425,1.834
		c-2.236,0-3.378-1.19-3.378-3.169V136.215z M74.319,136.151c0-1.672-0.966-2.686-2.783-2.686c-1.818,0-2.782,1.014-2.782,2.686
		v0.645h5.565V136.151z"/>
	<path clip-path="url(#SVGID_2_)" d="M77.597,141.137c0,0.128-0.064,0.192-0.177,0.192h-0.321c-0.113,0-0.178-0.064-0.178-0.192
		v-11.516c0-0.129,0.065-0.193,0.178-0.193h0.321c0.113,0,0.177,0.064,0.177,0.193V141.137z"/>
	<path clip-path="url(#SVGID_2_)" d="M80.684,141.137c0,0.128-0.064,0.192-0.177,0.192h-0.321c-0.113,0-0.178-0.064-0.178-0.192
		v-11.516c0-0.129,0.065-0.193,0.178-0.193h0.321c0.113,0,0.177,0.064,0.177,0.193V141.137z"/>
	<path clip-path="url(#SVGID_2_)" d="M82.708,136.215c0-2.106,1.222-3.361,3.474-3.361c2.267,0,3.473,1.287,3.473,3.329v0.821
		c0,0.24-0.129,0.353-0.37,0.353h-5.885v1.094c0,1.561,0.932,2.51,2.685,2.51c1.319,0,2.268-0.531,2.847-1.576
		c0.08-0.113,0.177-0.146,0.29-0.081l0.224,0.129c0.129,0.064,0.145,0.161,0.065,0.289c-0.659,1.223-1.802,1.834-3.426,1.834
		c-2.235,0-3.377-1.19-3.377-3.169V136.215z M88.965,136.151c0-1.672-0.965-2.686-2.782-2.686c-1.818,0-2.782,1.014-2.782,2.686
		v0.645h5.564V136.151z"/>
	<path clip-path="url(#SVGID_2_)" d="M94.977,132.854c2.075,0,3.12,1.029,3.12,3.104v5.179c0,0.128-0.064,0.193-0.192,0.193h-0.323
		c-0.112,0-0.176-0.065-0.176-0.193v-5.146c0-1.658-0.836-2.493-2.509-2.493c-0.868,0-1.673,0.144-2.412,0.418
		c-0.226,0.111-0.338,0.29-0.338,0.53v6.69c0,0.128-0.065,0.193-0.177,0.193h-0.322c-0.128,0-0.192-0.065-0.192-0.193v-6.868
		c0-0.498,0.112-0.675,0.61-0.884C92.966,133.032,93.932,132.854,94.977,132.854"/>
	<path clip-path="url(#SVGID_2_)" d="M101.504,131.166c0.129,0,0.193,0.064,0.193,0.177v1.754h2.557
		c0.129,0,0.193,0.063,0.193,0.176v0.273c0,0.113-0.064,0.179-0.193,0.179h-2.557v4.663c0,1.013,0.177,1.688,0.531,2.01
		c0.338,0.338,1.013,0.499,1.994,0.499c0.129,0,0.193,0.063,0.193,0.192v0.273c0,0.129-0.064,0.194-0.193,0.194
		c-1.206,0.015-2.042-0.209-2.509-0.66c-0.467-0.435-0.708-1.271-0.708-2.493v-4.679h-1.736c-0.113,0-0.177-0.065-0.177-0.179
		v-0.273c0-0.112,0.064-0.176,0.177-0.176h1.736v-1.754c0-0.112,0.064-0.177,0.193-0.177H101.504z"/>
	<path clip-path="url(#SVGID_2_)" d="M116.57,129.911c0.145,0,0.209,0.064,0.209,0.21v0.289c0,0.129-0.064,0.193-0.209,0.193h-6.031
		v4.6h5.339c0.129,0,0.193,0.064,0.193,0.192v0.29c0,0.145-0.064,0.209-0.193,0.209h-5.339v4.745h6.256
		c0.145,0,0.209,0.063,0.209,0.192v0.289c0,0.145-0.064,0.209-0.209,0.209h-6.787c-0.145,0-0.209-0.064-0.209-0.209v-11
		c0-0.146,0.064-0.21,0.209-0.21H116.57z"/>
	<path clip-path="url(#SVGID_2_)" d="M124.833,133.095c0.177,0,0.209,0.064,0.113,0.193l-2.911,3.812l3.104,4.037
		c0.081,0.128,0.048,0.192-0.129,0.192h-0.337c-0.129,0-0.241-0.047-0.322-0.16l-2.766-3.587l-2.751,3.587
		c-0.063,0.113-0.177,0.16-0.321,0.16h-0.322c-0.16,0-0.209-0.064-0.129-0.192l3.104-4.053l-2.959-3.796
		c-0.08-0.129-0.032-0.193,0.145-0.193h0.322c0.145,0,0.257,0.049,0.321,0.146l2.605,3.36l2.589-3.36
		c0.081-0.097,0.178-0.146,0.322-0.146H124.833z"/>
	<path clip-path="url(#SVGID_2_)" d="M125.908,136.215c0-2.106,1.223-3.361,3.474-3.361c2.268,0,3.474,1.287,3.474,3.329v0.821
		c0,0.24-0.129,0.353-0.369,0.353H126.6v1.094c0,1.561,0.934,2.51,2.687,2.51c1.317,0,2.268-0.531,2.847-1.576
		c0.08-0.113,0.177-0.146,0.289-0.081l0.225,0.129c0.128,0.064,0.146,0.161,0.064,0.289c-0.659,1.223-1.801,1.834-3.425,1.834
		c-2.236,0-3.378-1.19-3.378-3.169V136.215z M132.165,136.151c0-1.672-0.966-2.686-2.783-2.686c-1.818,0-2.782,1.014-2.782,2.686
		v0.645h5.565V136.151z"/>
	<path clip-path="url(#SVGID_2_)" d="M134.413,135.974c0-1.978,1.174-3.12,3.426-3.12c1.785,0,2.879,0.74,3.313,2.203
		c0.048,0.129,0,0.227-0.113,0.273l-0.273,0.097c-0.128,0.049-0.209,0-0.257-0.129c-0.386-1.27-1.143-1.816-2.702-1.816
		c-1.786,0-2.718,0.916-2.718,2.46v2.51c0,1.544,0.98,2.477,2.718,2.477c1.528,0,2.364-0.611,2.734-1.914
		c0.048-0.129,0.128-0.177,0.257-0.129l0.29,0.097c0.128,0.049,0.16,0.145,0.112,0.258c-0.467,1.544-1.608,2.315-3.394,2.315
		c-2.204,0-3.394-1.142-3.394-3.12V135.974z"/>
	<path clip-path="url(#SVGID_2_)" d="M149.319,133.095c0.112,0,0.177,0.064,0.177,0.177v6.885c0,0.499-0.129,0.675-0.596,0.884
		c-0.868,0.338-1.833,0.515-2.91,0.515c-2.075,0-3.12-1.028-3.12-3.104v-5.179c0-0.112,0.064-0.177,0.192-0.177h0.306
		c0.129,0,0.193,0.064,0.193,0.177v5.146c0,1.673,0.836,2.51,2.492,2.51c0.901,0,1.704-0.146,2.412-0.419
		c0.226-0.112,0.338-0.289,0.338-0.547v-6.69c0-0.112,0.065-0.177,0.193-0.177H149.319z"/>
	<path clip-path="url(#SVGID_2_)" d="M153.079,131.166c0.129,0,0.193,0.064,0.193,0.177v1.754h2.558
		c0.128,0,0.192,0.063,0.192,0.176v0.273c0,0.113-0.064,0.179-0.192,0.179h-2.558v4.663c0,1.013,0.177,1.688,0.531,2.01
		c0.337,0.338,1.013,0.499,1.994,0.499c0.128,0,0.192,0.063,0.192,0.192v0.273c0,0.129-0.064,0.194-0.192,0.194
		c-1.206,0.015-2.043-0.209-2.509-0.66c-0.467-0.435-0.708-1.271-0.708-2.493v-4.679h-1.737c-0.112,0-0.177-0.065-0.177-0.179
		v-0.273c0-0.112,0.064-0.176,0.177-0.176h1.737v-1.754c0-0.112,0.063-0.177,0.193-0.177H153.079z"/>
	<path clip-path="url(#SVGID_2_)" d="M157.661,130.216c0.305,0,0.402,0.097,0.402,0.402v0.097c0,0.306-0.098,0.418-0.402,0.418
		h-0.08c-0.321,0-0.418-0.097-0.418-0.418v-0.097c0-0.306,0.097-0.402,0.418-0.402H157.661z M157.774,133.095
		c0.128,0,0.191,0.064,0.191,0.177v7.865c0,0.128-0.063,0.192-0.191,0.192h-0.322c-0.113,0-0.177-0.064-0.177-0.192v-7.865
		c0-0.112,0.063-0.177,0.177-0.177H157.774z"/>
	<path clip-path="url(#SVGID_2_)" d="M159.96,135.686c0-1.738,1.335-2.831,3.44-2.831c2.123,0,3.458,1.078,3.458,2.831v3.055
		c0,1.737-1.335,2.814-3.458,2.814c-2.105,0-3.44-1.077-3.44-2.814V135.686z M166.168,135.668c0-1.351-1.094-2.187-2.768-2.187
		c-1.655,0-2.75,0.852-2.75,2.187v3.072c0,1.335,1.095,2.188,2.75,2.188c1.674,0,2.768-0.837,2.768-2.188V135.668z"/>
	<path clip-path="url(#SVGID_2_)" d="M172.341,132.854c2.074,0,3.12,1.029,3.12,3.104v5.179c0,0.128-0.064,0.193-0.193,0.193h-0.322
		c-0.112,0-0.176-0.065-0.176-0.193v-5.146c0-1.658-0.837-2.493-2.51-2.493c-0.868,0-1.672,0.144-2.412,0.418
		c-0.225,0.111-0.338,0.29-0.338,0.53v6.69c0,0.128-0.065,0.193-0.177,0.193h-0.321c-0.129,0-0.193-0.065-0.193-0.193v-6.868
		c0-0.498,0.112-0.675,0.611-0.884C170.33,133.032,171.295,132.854,172.341,132.854"/>
</g>
</svg>
