<?xml version="1.0" encoding="utf-8"?>
<!-- Generator: Adobe Illustrator 16.0.0, SVG Export Plug-In . SVG Version: 6.00 Build 0)  -->
<!DOCTYPE svg PUBLIC "-//W3C//DTD SVG 1.1//EN" "http://www.w3.org/Graphics/SVG/1.1/DTD/svg11.dtd">
<svg version="1.1" id="Layer_1" xmlns="http://www.w3.org/2000/svg" xmlns:xlink="http://www.w3.org/1999/xlink" x="0px" y="0px"
	 width="118.818px" height="142.807px" viewBox="0 0 118.818 142.807" enable-background="new 0 0 118.818 142.807"
	 xml:space="preserve">
<g>
	<defs>
		<rect id="SVGID_1_" width="118.818" height="142.807"/>
	</defs>
	<clipPath id="SVGID_2_">
		<use xlink:href="#SVGID_1_"  overflow="visible"/>
	</clipPath>
	<path clip-path="url(#SVGID_2_)" fill="#ED1C24" d="M7.622,118.619v-1.864h13.945c0.751-0.006,1.332-0.209,1.728-0.605
		c0.399-0.398,0.598-0.978,0.593-1.718v-2.584c0.005-0.702-0.186-1.255-0.569-1.641c-0.397-0.399-0.986-0.603-1.752-0.603H11.115
		c-2.508,0-3.676-1.186-3.676-3.729l0.013-1.904c0-2.502,1.169-3.671,3.677-3.68h14.48v1.865H11.533
		c-1.438,0-2.229,0.764-2.229,2.151v1.254c0,1.447,0.773,2.243,2.177,2.243h10.595c2.517,0,3.69,1.072,3.69,3.375v3.75
		c-0.008,2.508-1.181,3.681-3.69,3.688H7.622z"/>
	<path clip-path="url(#SVGID_2_)" fill="#ED1C24" d="M51.806,118.619l1.84-3.852c0.073-0.153,0.227-0.251,0.397-0.251h8.745
		l-0.841-1.733H55.31c-0.152,0-0.294-0.079-0.374-0.209c-0.08-0.13-0.087-0.292-0.018-0.429l4.102-8.152
		c0.074-0.148,0.228-0.242,0.394-0.242h0.001c0.168,0.001,0.319,0.097,0.394,0.246l7.144,14.609h2.155l-8.962-18.248h-1.529
		l-8.887,18.261H51.806z"/>
	<path clip-path="url(#SVGID_2_)" fill="#ED1C24" d="M93.078,118.619v-18.312h18.301v1.851H95.356c-0.243,0-0.439,0.197-0.439,0.44
		v13.718c0,0.243,0.196,0.439,0.439,0.439h16.022v1.864H93.078z M94.64,109.604l-0.896-1.825h17.635v1.825H94.64z"/>
	<path clip-path="url(#SVGID_2_)" fill="#ED1C24" d="M85.65,109.643c2.5-0.008,3.664-1.193,3.664-3.729v-1.932
		c-0.008-2.494-1.173-3.667-3.663-3.69H70.988v18.301h1.852v-8.95h7.284l-0.899-1.838H72.84v-5.209c0-0.243,0.197-0.439,0.439-0.439
		h11.981c1.42,0,2.203,0.778,2.203,2.19v1.307c0,1.39-0.778,2.154-2.191,2.154c-0.057,0-0.115-0.001-0.155-0.003h-0.514H83.52
		h-1.982h-0.149h-0.02l0.902,1.838h0.017l4.382,8.963h2.155l-4.401-8.963h0.181H85.65z"/>
	<path clip-path="url(#SVGID_2_)" fill="#ED1C24" d="M46.021,100.387v7.008c0,0.242-0.197,0.438-0.439,0.438H31.802
		c-0.242,0-0.439-0.196-0.439-0.438v-7.008h-1.848v18.202h1.835v-8.469c0-0.243,0.197-0.438,0.439-0.438h13.805
		c0.243,0,0.439,0.195,0.439,0.438v8.469h1.835v-18.202H46.021z"/>
	<path clip-path="url(#SVGID_2_)" fill="#ED1C24" d="M40.66,88.341h-0.004c-2.526,0-4.584-2.057-4.586-4.583l-0.035-37.541
		c-0.001-1.22,0.476-2.371,1.344-3.241c0.867-0.869,2.017-1.348,3.238-1.349l37.541-0.035c2.53,0,4.589,2.055,4.591,4.582
		l0.034,37.542c0.001,1.219-0.476,2.37-1.344,3.239s-2.018,1.35-3.239,1.351L40.66,88.341z M78.162,42.497l-37.545,0.035
		c-0.978,0.001-1.901,0.386-2.598,1.084c-0.697,0.699-1.081,1.622-1.08,2.602l0.035,37.541c0.002,2.027,1.654,3.678,3.682,3.678
		v0.453l0.004-0.453l37.54-0.035c0.979-0.001,1.901-0.385,2.6-1.084c0.697-0.699,1.081-1.622,1.08-2.601l-0.035-37.542
		C81.842,44.147,80.189,42.497,78.162,42.497"/>
	<path clip-path="url(#SVGID_2_)" fill="#ED1C24" d="M44.244,83.946H44.24c-2.09,0-3.792-1.701-3.793-3.792L40.43,49.801
		c-0.001-2.093,1.7-3.796,3.792-3.797l30.353-0.017c2.093,0,3.796,1.701,3.797,3.793l0.018,30.351c0,1.01-0.395,1.962-1.114,2.681
		c-0.718,0.721-1.67,1.116-2.679,1.116L44.244,83.946z M74.576,46.891l-30.354,0.018c-1.593,0.001-2.889,1.298-2.888,2.892
		l0.017,30.353c0.001,1.592,1.297,2.887,2.889,2.887v0.453l0.004-0.453l30.352-0.017c1.593-0.001,2.889-1.299,2.888-2.893
		L77.467,49.78C77.466,48.188,76.169,46.891,74.576,46.891"/>
	<path clip-path="url(#SVGID_2_)" fill="#ED1C24" d="M70.989,79.551H47.828c-1.656,0-3.003-1.348-3.003-3.004V53.386
		c0-1.657,1.347-3.003,3.003-3.003h23.162c1.656,0,3.004,1.346,3.004,3.003v23.162C73.993,78.204,72.646,79.551,70.989,79.551
		 M47.828,51.287c-1.157,0-2.099,0.941-2.099,2.099v23.162c0,1.157,0.942,2.099,2.099,2.099h23.162c1.157,0,2.1-0.941,2.1-2.099
		V53.386c0-1.158-0.942-2.099-2.1-2.099H47.828z"/>
	<path clip-path="url(#SVGID_2_)" fill="#ED1C24" d="M72.402,60.46c-1.641,0-3.165-0.876-3.981-2.286L49.62,25.68
		c-1.267-2.189-0.516-5.001,1.674-6.267l32.493-18.8C84.48,0.212,85.271,0,86.072,0c1.641,0,3.166,0.876,3.98,2.286l18.802,32.493
		c1.267,2.189,0.516,5.001-1.673,6.268L74.688,59.846C73.994,60.248,73.204,60.46,72.402,60.46 M86.072,0.904
		c-0.644,0-1.276,0.17-1.832,0.492l-32.493,18.8c-1.758,1.017-2.361,3.273-1.344,5.031L69.204,57.72
		c0.654,1.132,1.881,1.835,3.198,1.835c0.643,0,1.275-0.17,1.832-0.492l32.494-18.8c1.757-1.016,2.359-3.273,1.343-5.031
		L89.271,2.739C88.616,1.607,87.391,0.904,86.072,0.904"/>
	<path clip-path="url(#SVGID_2_)" fill="#ED1C24" d="M73.704,54.755c-1.357,0-2.621-0.725-3.295-1.892L55.218,26.587
		c-1.047-1.812-0.425-4.138,1.386-5.186l26.276-15.19c0.574-0.332,1.228-0.507,1.891-0.507c1.355,0,2.619,0.725,3.294,1.892
		l15.191,26.277c1.047,1.811,0.425,4.137-1.386,5.184L75.595,54.249C75.021,54.581,74.367,54.755,73.704,54.755 M84.771,6.608
		c-0.504,0-1.001,0.134-1.438,0.386l-26.276,15.19c-1.38,0.798-1.852,2.57-1.056,3.949L71.192,52.41
		c0.514,0.888,1.476,1.441,2.512,1.441c0.504,0,1.001-0.134,1.438-0.386l26.275-15.191c1.381-0.798,1.854-2.569,1.057-3.948
		L87.282,8.049C86.769,7.161,85.807,6.608,84.771,6.608"/>
	<path clip-path="url(#SVGID_2_)" fill="#ED1C24" d="M75.006,49.051c-1.074,0-2.074-0.575-2.608-1.5L60.816,27.493
		c-0.399-0.693-0.505-1.502-0.297-2.279c0.208-0.777,0.704-1.424,1.396-1.824l20.06-11.582c0.454-0.262,0.971-0.4,1.494-0.4
		c1.075,0,2.075,0.574,2.607,1.499l11.581,20.059c0.401,0.693,0.507,1.502,0.299,2.279c-0.209,0.777-0.705,1.424-1.396,1.824
		L76.501,48.651C76.047,48.913,75.53,49.051,75.006,49.051 M83.469,12.312c-0.365,0-0.727,0.097-1.041,0.279L62.367,24.173
		c-0.482,0.28-0.828,0.732-0.974,1.276c-0.146,0.543-0.072,1.108,0.206,1.591l11.581,20.058c0.555,0.96,1.896,1.328,2.868,0.77
		l20.058-11.582c0.483-0.28,0.83-0.732,0.976-1.276c0.146-0.543,0.072-1.108-0.207-1.591L85.294,13.36
		C84.921,12.713,84.222,12.312,83.469,12.312"/>
	<path clip-path="url(#SVGID_2_)" fill="#ED1C24" d="M46.449,60.435c-0.798,0-1.585-0.211-2.277-0.609l-32.529-18.74
		c-1.058-0.609-1.815-1.598-2.135-2.785c-0.318-1.186-0.159-2.421,0.451-3.479l18.74-32.528C29.514,0.879,31.041,0,32.685,0
		c0.798,0,1.586,0.211,2.277,0.609l32.529,18.74c2.191,1.263,2.947,4.073,1.685,6.264l-18.74,32.528
		C49.621,59.556,48.092,60.435,46.449,60.435 M32.685,0.904c-1.321,0-2.548,0.706-3.203,1.841L10.743,35.273
		c-0.489,0.849-0.618,1.841-0.361,2.794c0.256,0.952,0.865,1.746,1.712,2.235l32.529,18.741c0.555,0.319,1.186,0.488,1.826,0.488
		c1.321,0,2.548-0.706,3.203-1.841l18.74-32.528c1.013-1.76,0.406-4.016-1.354-5.029L34.511,1.392
		C33.956,1.073,33.325,0.904,32.685,0.904"/>
	<path clip-path="url(#SVGID_2_)" fill="#ED1C24" d="M45.123,54.737c-0.66,0-1.312-0.175-1.884-0.505L16.945,39.071
		c-0.875-0.504-1.502-1.323-1.766-2.304s-0.132-2.004,0.373-2.878L30.713,7.595c0.674-1.171,1.938-1.897,3.297-1.897
		c0.661,0,1.313,0.175,1.886,0.505l26.294,15.161c0.875,0.504,1.502,1.322,1.766,2.303c0.263,0.982,0.131,2.004-0.374,2.878
		l-15.16,26.294C47.746,54.01,46.483,54.737,45.123,54.737 M34.01,6.602c-1.037,0-2,0.554-2.514,1.444L16.334,34.34
		c-0.384,0.666-0.484,1.445-0.283,2.193s0.679,1.371,1.344,1.755L43.69,53.449c0.435,0.251,0.931,0.383,1.433,0.383
		c1.037,0,2-0.553,2.515-1.444l15.16-26.294c0.384-0.666,0.483-1.444,0.283-2.192c-0.201-0.748-0.678-1.371-1.343-1.755
		L35.445,6.986C35.009,6.735,34.513,6.602,34.01,6.602"/>
	<path clip-path="url(#SVGID_2_)" fill="#ED1C24" d="M43.798,49.039c-0.524,0-1.04-0.138-1.494-0.4l-20.06-11.581
		c-0.691-0.4-1.187-1.047-1.395-1.824c-0.208-0.777-0.103-1.586,0.297-2.279l11.581-20.059c0.534-0.925,1.534-1.499,2.608-1.499
		c0.523,0,1.04,0.138,1.494,0.4l20.06,11.581c0.692,0.401,1.187,1.048,1.395,1.824c0.209,0.778,0.104,1.586-0.297,2.279
		L46.406,47.54C45.873,48.464,44.873,49.039,43.798,49.039 M35.335,12.3c-0.753,0-1.452,0.401-1.825,1.048L21.929,33.408
		c-0.279,0.483-0.352,1.048-0.206,1.591c0.145,0.544,0.491,0.996,0.974,1.276l20.06,11.581c0.966,0.558,2.311,0.191,2.866-0.769
		l11.581-20.059c0.279-0.483,0.353-1.048,0.207-1.591c-0.145-0.543-0.492-0.996-0.975-1.276L36.376,12.58
		C36.061,12.397,35.7,12.3,35.335,12.3"/>
	<path clip-path="url(#SVGID_2_)" d="M4.267,130.937c2.123,0,3.361,0.756,4.214,2.493c0.081,0.128,0.049,0.225-0.097,0.274
		l-0.321,0.144c-0.112,0.048-0.193,0.016-0.257-0.097c-0.724-1.463-1.753-2.106-3.539-2.106c-2.074,0-3.28,0.9-3.28,2.444
		c0,1.126,0.611,1.704,1.576,2.01c0.691,0.227,1.142,0.306,2.026,0.387c0.965,0.112,1.448,0.178,2.236,0.45
		c0.402,0.146,0.708,0.307,0.949,0.516c0.45,0.4,0.82,1.126,0.82,2.073c0,2.107-1.48,3.281-4.246,3.281
		c-2.235,0-3.555-0.885-4.326-2.813c-0.049-0.146-0.017-0.242,0.112-0.29l0.306-0.113c0.112-0.048,0.209,0,0.273,0.129
		c0.676,1.592,1.882,2.38,3.635,2.38c2.332,0,3.506-0.852,3.506-2.541c-0.065-1.126-0.515-1.688-1.48-1.978
		c-0.691-0.209-1.061-0.258-1.946-0.37c-0.836-0.113-1.222-0.161-1.962-0.354c-0.37-0.08-0.676-0.191-0.9-0.337
		c-0.74-0.467-1.335-1.094-1.335-2.381C0.231,132.161,1.743,130.937,4.267,130.937"/>
	<path clip-path="url(#SVGID_2_)" d="M10.054,136.937c0-1.738,1.335-2.831,3.441-2.831c2.123,0,3.458,1.078,3.458,2.831v3.055
		c0,1.737-1.335,2.814-3.458,2.814c-2.106,0-3.441-1.077-3.441-2.814V136.937z M16.262,136.919c0-1.351-1.094-2.187-2.767-2.187
		c-1.656,0-2.75,0.852-2.75,2.187v3.072c0,1.335,1.094,2.188,2.75,2.188c1.673,0,2.767-0.837,2.767-2.188V136.919z"/>
	<path clip-path="url(#SVGID_2_)" d="M18.671,137.225c0-1.978,1.174-3.12,3.426-3.12c1.785,0,2.879,0.74,3.312,2.203
		c0.049,0.129,0,0.227-0.112,0.273l-0.273,0.097c-0.129,0.049-0.209,0-0.257-0.129c-0.387-1.27-1.143-1.816-2.702-1.816
		c-1.786,0-2.718,0.916-2.718,2.46v2.51c0,1.544,0.98,2.477,2.718,2.477c1.528,0,2.364-0.611,2.734-1.914
		c0.048-0.129,0.128-0.177,0.257-0.129l0.29,0.097c0.128,0.049,0.16,0.145,0.112,0.258c-0.467,1.544-1.608,2.315-3.393,2.315
		c-2.204,0-3.394-1.142-3.394-3.12V137.225z"/>
	<path clip-path="url(#SVGID_2_)" d="M27.594,131.467c0.305,0,0.402,0.097,0.402,0.402v0.097c0,0.306-0.097,0.418-0.402,0.418h-0.08
		c-0.322,0-0.418-0.097-0.418-0.418v-0.097c0-0.306,0.096-0.402,0.418-0.402H27.594z M27.707,134.346
		c0.128,0,0.192,0.064,0.192,0.177v7.865c0,0.128-0.064,0.192-0.192,0.192h-0.322c-0.113,0-0.177-0.064-0.177-0.192v-7.865
		c0-0.112,0.064-0.177,0.177-0.177H27.707z"/>
	<path clip-path="url(#SVGID_2_)" d="M33.109,134.105c1.174,0,1.978,0.29,2.445,0.854c0.45,0.562,0.675,1.335,0.675,2.283v4.229
		c0,0.562-0.129,0.724-0.579,0.917c-0.643,0.274-1.496,0.418-2.557,0.418c-1.319,0-2.219-0.193-2.701-0.596
		c-0.483-0.386-0.725-0.997-0.725-1.849c0-1.785,0.981-2.429,3.49-2.429c0.467,0,1.255,0.065,2.381,0.177v-0.885
		c0-1.559-0.579-2.492-2.461-2.492c-1.206,0-2.043,0.45-2.525,1.366c-0.065,0.097-0.145,0.129-0.257,0.081l-0.258-0.096
		c-0.128-0.065-0.16-0.162-0.097-0.274C30.536,134.668,31.581,134.105,33.109,134.105 M35.538,138.689
		c-1.175-0.112-1.995-0.177-2.445-0.177c-1.994,0-2.718,0.498-2.718,1.833c0,0.644,0.193,1.11,0.563,1.415
		c0.37,0.306,1.061,0.467,2.107,0.467c0.868,0,1.576-0.112,2.123-0.321c0.321-0.129,0.37-0.21,0.37-0.596V138.689z"/>
	<path clip-path="url(#SVGID_2_)" d="M39.089,142.388c0,0.128-0.064,0.192-0.177,0.192h-0.321c-0.113,0-0.178-0.064-0.178-0.192
		v-11.516c0-0.129,0.065-0.193,0.178-0.193h0.321c0.113,0,0.177,0.064,0.177,0.193V142.388z"/>
	<path clip-path="url(#SVGID_2_)" d="M45.199,134.91c0-2.493,1.559-3.973,4.342-3.973c2.766,0,4.31,1.479,4.31,3.973v3.924
		c0,2.493-1.544,3.973-4.31,3.973c-2.783,0-4.342-1.479-4.342-3.973V134.91z M53.11,134.91c0-2.075-1.271-3.28-3.57-3.28
		c-2.332,0-3.603,1.205-3.603,3.28v3.924c0,2.075,1.271,3.281,3.603,3.281c2.299,0,3.57-1.206,3.57-3.281V134.91z"/>
	<path clip-path="url(#SVGID_2_)" d="M59.894,134.105c0.113,0,0.178,0.064,0.178,0.193v0.257c0,0.129-0.064,0.194-0.178,0.194
		h-0.515c-0.916,0-1.72,0.144-2.427,0.418c-0.226,0.111-0.338,0.29-0.338,0.53v6.69c0,0.128-0.065,0.193-0.177,0.193h-0.322
		c-0.129,0-0.193-0.065-0.193-0.193v-6.884c0-0.499,0.113-0.675,0.611-0.884c0.82-0.338,1.769-0.498,2.863-0.516H59.894z"/>
	<path clip-path="url(#SVGID_2_)" d="M61.773,131.467c0.306,0,0.402,0.097,0.402,0.402v0.097c0,0.306-0.097,0.418-0.402,0.418
		h-0.079c-0.322,0-0.418-0.097-0.418-0.418v-0.097c0-0.306,0.096-0.402,0.418-0.402H61.773z M61.887,134.346
		c0.128,0,0.192,0.064,0.192,0.177v7.865c0,0.128-0.064,0.192-0.192,0.192h-0.322c-0.112,0-0.177-0.064-0.177-0.192v-7.865
		c0-0.112,0.064-0.177,0.177-0.177H61.887z"/>
	<path clip-path="url(#SVGID_2_)" d="M64.024,137.466c0-2.106,1.222-3.361,3.474-3.361c2.268,0,3.474,1.287,3.474,3.329v0.821
		c0,0.24-0.129,0.353-0.37,0.353h-5.885v1.094c0,1.561,0.932,2.51,2.685,2.51c1.319,0,2.268-0.531,2.847-1.576
		c0.08-0.113,0.178-0.146,0.289-0.081l0.226,0.129c0.129,0.064,0.145,0.161,0.064,0.289c-0.659,1.223-1.802,1.834-3.426,1.834
		c-2.235,0-3.377-1.19-3.377-3.169V137.466z M70.28,137.402c0-1.672-0.965-2.686-2.782-2.686s-2.781,1.014-2.781,2.686v0.645h5.563
		V137.402z"/>
	<path clip-path="url(#SVGID_2_)" d="M76.292,134.105c2.075,0,3.12,1.029,3.12,3.104v5.179c0,0.128-0.063,0.193-0.192,0.193h-0.322
		c-0.112,0-0.177-0.065-0.177-0.193v-5.146c0-1.658-0.836-2.493-2.509-2.493c-0.868,0-1.673,0.144-2.412,0.418
		c-0.226,0.111-0.338,0.29-0.338,0.53v6.69c0,0.128-0.064,0.193-0.177,0.193h-0.322c-0.129,0-0.191-0.065-0.191-0.193v-6.868
		c0-0.498,0.111-0.675,0.609-0.884C74.282,134.283,75.247,134.105,76.292,134.105"/>
	<path clip-path="url(#SVGID_2_)" d="M82.819,132.417c0.129,0,0.193,0.064,0.193,0.177v1.754h2.557c0.129,0,0.193,0.063,0.193,0.176
		v0.273c0,0.113-0.064,0.179-0.193,0.179h-2.557v4.663c0,1.013,0.177,1.688,0.531,2.01c0.338,0.338,1.013,0.499,1.993,0.499
		c0.129,0,0.193,0.063,0.193,0.192v0.273c0,0.129-0.064,0.194-0.193,0.194c-1.206,0.015-2.042-0.209-2.509-0.66
		c-0.467-0.435-0.708-1.271-0.708-2.493v-4.679h-1.735c-0.114,0-0.178-0.065-0.178-0.179v-0.273c0-0.112,0.063-0.176,0.178-0.176
		h1.735v-1.754c0-0.112,0.064-0.177,0.193-0.177H82.819z"/>
	<path clip-path="url(#SVGID_2_)" d="M89.958,134.105c1.174,0,1.978,0.29,2.445,0.854c0.449,0.562,0.675,1.335,0.675,2.283v4.229
		c0,0.562-0.129,0.724-0.579,0.917c-0.644,0.274-1.496,0.418-2.558,0.418c-1.318,0-2.219-0.193-2.7-0.596
		c-0.483-0.386-0.726-0.997-0.726-1.849c0-1.785,0.981-2.429,3.49-2.429c0.467,0,1.255,0.065,2.381,0.177v-0.885
		c0-1.559-0.579-2.492-2.461-2.492c-1.206,0-2.043,0.45-2.524,1.366c-0.065,0.097-0.146,0.129-0.258,0.081l-0.258-0.096
		c-0.128-0.065-0.16-0.162-0.097-0.274C87.385,134.668,88.43,134.105,89.958,134.105 M92.387,138.689
		c-1.175-0.112-1.995-0.177-2.445-0.177c-1.993,0-2.718,0.498-2.718,1.833c0,0.644,0.193,1.11,0.563,1.415
		c0.37,0.306,1.061,0.467,2.106,0.467c0.868,0,1.576-0.112,2.123-0.321c0.321-0.129,0.37-0.21,0.37-0.596V138.689z"/>
	<path clip-path="url(#SVGID_2_)" d="M96.437,132.417c0.129,0,0.193,0.064,0.193,0.177v1.754h2.557c0.129,0,0.193,0.063,0.193,0.176
		v0.273c0,0.113-0.064,0.179-0.193,0.179H96.63v4.663c0,1.013,0.177,1.688,0.531,2.01c0.338,0.338,1.013,0.499,1.993,0.499
		c0.129,0,0.193,0.063,0.193,0.192v0.273c0,0.129-0.064,0.194-0.193,0.194c-1.206,0.015-2.042-0.209-2.509-0.66
		c-0.467-0.435-0.708-1.271-0.708-2.493v-4.679h-1.735c-0.114,0-0.178-0.065-0.178-0.179v-0.273c0-0.112,0.063-0.176,0.178-0.176
		h1.735v-1.754c0-0.112,0.064-0.177,0.193-0.177H96.437z"/>
	<path clip-path="url(#SVGID_2_)" d="M101.019,131.467c0.306,0,0.401,0.097,0.401,0.402v0.097c0,0.306-0.096,0.418-0.401,0.418
		h-0.08c-0.322,0-0.419-0.097-0.419-0.418v-0.097c0-0.306,0.097-0.402,0.419-0.402H101.019z M101.131,134.346
		c0.129,0,0.193,0.064,0.193,0.177v7.865c0,0.128-0.064,0.192-0.193,0.192h-0.321c-0.113,0-0.177-0.064-0.177-0.192v-7.865
		c0-0.112,0.063-0.177,0.177-0.177H101.131z"/>
	<path clip-path="url(#SVGID_2_)" d="M103.317,136.937c0-1.738,1.334-2.831,3.441-2.831c2.123,0,3.458,1.078,3.458,2.831v3.055
		c0,1.737-1.335,2.814-3.458,2.814c-2.107,0-3.441-1.077-3.441-2.814V136.937z M109.524,136.919c0-1.351-1.093-2.187-2.766-2.187
		c-1.656,0-2.75,0.852-2.75,2.187v3.072c0,1.335,1.094,2.188,2.75,2.188c1.673,0,2.766-0.837,2.766-2.188V136.919z"/>
	<path clip-path="url(#SVGID_2_)" d="M115.697,134.105c2.075,0,3.12,1.029,3.12,3.104v5.179c0,0.128-0.064,0.193-0.192,0.193h-0.322
		c-0.112,0-0.177-0.065-0.177-0.193v-5.146c0-1.658-0.836-2.493-2.509-2.493c-0.868,0-1.673,0.144-2.412,0.418
		c-0.226,0.111-0.338,0.29-0.338,0.53v6.69c0,0.128-0.064,0.193-0.177,0.193h-0.322c-0.129,0-0.191-0.065-0.191-0.193v-6.868
		c0-0.498,0.111-0.675,0.609-0.884C113.688,134.283,114.652,134.105,115.697,134.105"/>
</g>
</svg>
