<?xml version="1.0" encoding="utf-8"?>
<!-- Generator: Adobe Illustrator 16.0.0, SVG Export Plug-In . SVG Version: 6.00 Build 0)  -->
<!DOCTYPE svg PUBLIC "-//W3C//DTD SVG 1.1//EN" "http://www.w3.org/Graphics/SVG/1.1/DTD/svg11.dtd">
<svg version="1.1" id="Layer_1" xmlns="http://www.w3.org/2000/svg" xmlns:xlink="http://www.w3.org/1999/xlink" x="0px" y="0px"
	 width="144.183px" height="145.785px" viewBox="0 0 144.183 145.785" enable-background="new 0 0 144.183 145.785"
	 xml:space="preserve">
<g>
	<defs>
		<rect id="SVGID_1_" width="144.183" height="145.785"/>
	</defs>
	<clipPath id="SVGID_2_">
		<use xlink:href="#SVGID_1_"  overflow="visible"/>
	</clipPath>
	<path clip-path="url(#SVGID_2_)" fill="#ED1C24" d="M9.612,117.741v-1.864h13.945c0.751-0.006,1.332-0.209,1.728-0.606
		c0.399-0.397,0.598-0.977,0.593-1.718v-2.584c0.005-0.702-0.186-1.255-0.569-1.64c-0.397-0.4-0.986-0.604-1.752-0.604H13.105
		c-2.508,0-3.676-1.185-3.676-3.728l0.013-1.905c0-2.502,1.169-3.671,3.677-3.679H27.6v1.864H13.523
		c-1.438,0-2.229,0.765-2.229,2.151v1.254c0,1.447,0.773,2.243,2.177,2.243h10.595c2.517,0,3.69,1.073,3.69,3.375v3.75
		c-0.008,2.508-1.181,3.681-3.69,3.689H9.612z"/>
	<path clip-path="url(#SVGID_2_)" fill="#ED1C24" d="M57.25,117.741c-2.508,0-3.676-1.168-3.676-3.677V99.4h1.865v14.155
		c0,1.496,0.805,2.321,2.268,2.321h10.03c1.472,0,2.282-0.783,2.282-2.204V99.428h1.882v14.637c-0.08,2.503-1.29,3.677-3.807,3.677
		H57.25z"/>
	<path clip-path="url(#SVGID_2_)" fill="#ED1C24" d="M74.92,117.741l1.84-3.853c0.072-0.153,0.227-0.251,0.396-0.251h8.745
		l-0.841-1.733h-6.637c-0.152,0-0.294-0.078-0.374-0.209c-0.08-0.13-0.087-0.292-0.019-0.429l4.103-8.151
		c0.073-0.149,0.227-0.242,0.393-0.242h0.001c0.168,0.001,0.32,0.096,0.395,0.246l7.143,14.608h2.156l-8.962-18.248h-1.529
		l-8.887,18.262H74.92z"/>
	<path clip-path="url(#SVGID_2_)" fill="#ED1C24" d="M116.191,117.74V99.428h18.302v1.851H118.47c-0.243,0-0.438,0.197-0.438,0.44
		v13.718c0,0.243,0.195,0.44,0.438,0.44h16.023v1.863H116.191z M117.754,108.726l-0.896-1.825h17.636v1.825H117.754z"/>
	<path clip-path="url(#SVGID_2_)" fill="#ED1C24" d="M108.765,108.765c2.5-0.008,3.664-1.192,3.664-3.728v-1.933
		c-0.008-2.493-1.173-3.667-3.663-3.69H94.103v18.301h1.851v-8.95h7.284l-0.898-1.838h-6.386v-5.209c0-0.243,0.197-0.438,0.44-0.438
		h11.98c1.421,0,2.203,0.777,2.203,2.189v1.308c0,1.389-0.777,2.153-2.19,2.153c-0.058,0-0.115-0.001-0.156-0.003h-0.513h-1.084
		h-1.983h-0.148h-0.021l0.903,1.838h0.016l4.382,8.963h2.156l-4.402-8.963h0.182H108.765z"/>
	<path clip-path="url(#SVGID_2_)" fill="#ED1C24" d="M46.157,99.428H35.195c-2.507,0-3.675,1.168-3.675,3.676v10.974
		c0,2.508,1.168,3.676,3.675,3.676h3.957l-0.912-1.863h-2.561c-1.48,0-2.295-0.811-2.295-2.282v-10.034
		c0-1.469,0.819-2.284,2.308-2.295h9.998c1.469,0.011,2.279,0.817,2.279,2.269v10.204c0,1.761-1.12,2.086-1.787,2.124
		c-0.008,0.001-0.017,0.001-0.025,0.001c-0.005,0-0.012,0.009-0.019,0.014h-3.629l-1.826-3.719H38.56l2.741,5.582h4.016h0.628h0.212
		c2.509,0,3.681-1.172,3.689-3.688v-11.001C49.846,100.582,48.674,99.428,46.157,99.428"/>
	<path clip-path="url(#SVGID_2_)" fill="#ED1C24" d="M36.247,88.213c-4.587,0-8.322-3.731-8.326-8.318L27.855,8.398
		c-0.002-2.215,0.864-4.304,2.439-5.882c1.575-1.578,3.663-2.448,5.879-2.45L107.668,0c4.595,0,8.329,3.731,8.333,8.318
		l0.066,71.495c0.002,2.215-0.864,4.304-2.439,5.882c-1.575,1.579-3.663,2.449-5.879,2.451L36.247,88.213z M107.677,0.904
		L36.173,0.97c-1.974,0.002-3.834,0.779-5.238,2.185c-1.405,1.407-2.178,3.27-2.176,5.243l0.066,71.496
		c0.004,4.088,3.333,7.414,7.422,7.414v0.451l0.007-0.451l71.495-0.066c1.974-0.002,3.834-0.778,5.239-2.186
		c1.404-1.407,2.177-3.27,2.175-5.243l-0.066-71.495C115.093,4.23,111.765,0.904,107.677,0.904"/>
	<path clip-path="url(#SVGID_2_)" fill="#ED1C24" d="M38.705,85.211h-0.006c-4.288,0-7.781-3.489-7.785-7.778L30.856,10.85
		c-0.002-2.071,0.807-4.024,2.281-5.5c1.473-1.475,3.425-2.289,5.497-2.291l66.582-0.057c4.295,0,7.787,3.488,7.791,7.777
		l0.058,66.583c0.002,2.07-0.808,4.022-2.281,5.5c-1.473,1.476-3.425,2.289-5.497,2.291L38.705,85.211z M105.224,3.906L38.635,3.964
		c-1.829,0.002-3.555,0.721-4.856,2.025c-1.303,1.305-2.02,3.031-2.018,4.861l0.058,66.583c0.004,3.79,3.09,6.874,6.88,6.874v0.452
		l0.006-0.452l66.583-0.058c1.83-0.002,3.555-0.722,4.857-2.026c1.302-1.305,2.018-3.03,2.016-4.86l-0.057-66.583
		C112.1,6.99,109.014,3.906,105.224,3.906"/>
	<path clip-path="url(#SVGID_2_)" fill="#ED1C24" d="M41.158,82.209h-0.006c-3.99,0-7.24-3.247-7.243-7.238l-0.05-61.668
		c-0.003-3.994,3.243-7.246,7.237-7.249l61.669-0.05c3.996,0,7.246,3.247,7.249,7.238l0.05,61.669
		c0.002,1.927-0.752,3.745-2.123,5.117c-1.37,1.373-3.187,2.131-5.114,2.132L41.158,82.209z M102.771,6.907l-61.675,0.05
		c-3.494,0.004-6.336,2.849-6.333,6.345l0.05,61.668c0.003,3.492,2.847,6.334,6.339,6.334v0.452l0.006-0.452l61.668-0.05
		c3.494-0.003,6.336-2.849,6.333-6.345l-0.05-61.669C109.106,9.749,106.263,6.907,102.771,6.907"/>
	<path clip-path="url(#SVGID_2_)" fill="#ED1C24" d="M43.608,79.207h-0.005c-3.692,0-6.699-3.004-6.702-6.697L36.86,15.754
		c-0.003-3.696,3.001-6.704,6.697-6.707l56.756-0.042c3.697,0,6.704,3.005,6.707,6.698l0.041,56.756
		c0.003,3.695-3.001,6.704-6.697,6.707L43.608,79.207z M100.317,9.909l-56.76,0.042c-3.196,0.003-5.796,2.605-5.793,5.803
		l0.041,56.756c0.003,3.194,2.604,5.792,5.798,5.792v0.452l0.005-0.452l56.756-0.041c3.196-0.003,5.796-2.605,5.793-5.803
		l-0.041-56.756C106.113,12.509,103.512,9.909,100.317,9.909"/>
	<path clip-path="url(#SVGID_2_)" fill="#ED1C24" d="M46.06,76.205h-0.004c-3.395,0-6.159-2.762-6.161-6.157l-0.033-51.843
		c-0.002-3.398,2.76-6.163,6.157-6.165l51.843-0.033c3.398,0,6.162,2.762,6.164,6.158l0.033,51.842
		c0.002,1.639-0.64,3.185-1.807,4.353c-1.166,1.167-2.711,1.811-4.351,1.812L46.06,76.205z M97.866,12.911l-51.847,0.033
		c-2.898,0.002-5.255,2.362-5.253,5.261L40.8,70.048c0.002,2.896,2.36,5.252,5.256,5.252v0.452l0.004-0.452l51.842-0.033
		c1.397-0.001,2.716-0.551,3.711-1.546c0.995-0.997,1.543-2.316,1.542-3.714l-0.033-51.842
		C103.12,15.268,100.762,12.911,97.866,12.911"/>
	<path clip-path="url(#SVGID_2_)" fill="#ED1C24" d="M48.512,73.203h-0.004c-3.097,0-5.617-2.519-5.619-5.617l-0.025-46.929
		c-0.001-1.495,0.584-2.905,1.648-3.971c1.064-1.065,2.473-1.652,3.969-1.652l46.929-0.025c3.099,0,5.621,2.52,5.623,5.618
		l0.024,46.929c0.002,3.098-2.518,5.621-5.617,5.623L48.512,73.203z M95.412,15.913l-46.931,0.025
		c-1.254,0.001-2.436,0.494-3.329,1.388c-0.893,0.894-1.385,2.076-1.384,3.331l0.025,46.929c0.002,2.598,2.117,4.713,4.715,4.713
		v0.452l0.004-0.452l46.928-0.025c2.601-0.002,4.715-2.118,4.713-4.718l-0.024-46.929C100.127,18.028,98.011,15.913,95.412,15.913"
		/>
	<path clip-path="url(#SVGID_2_)" fill="#ED1C24" d="M50.963,70.201h-0.002c-2.799,0-5.077-2.277-5.078-5.077l-0.017-42.016
		c-0.001-1.351,0.529-2.626,1.491-3.588c0.96-0.962,2.235-1.493,3.586-1.493l42.016-0.016c2.8,0,5.079,2.277,5.081,5.077
		l0.017,42.015c0.001,2.801-2.276,5.081-5.078,5.082L50.963,70.201z M92.961,18.915l-42.018,0.017
		c-1.109,0.001-2.156,0.436-2.947,1.228c-0.791,0.791-1.225,1.838-1.225,2.948l0.016,42.016c0.001,2.301,1.873,4.173,4.174,4.173
		l42.018-0.017c2.302-0.001,4.175-1.875,4.174-4.177l-0.017-42.015C97.134,20.787,95.261,18.915,92.961,18.915"/>
	<path clip-path="url(#SVGID_2_)" fill="#ED1C24" d="M53.415,67.199h-0.002c-2.501,0-4.536-2.035-4.537-4.537l-0.008-37.101
		c-0.001-1.208,0.472-2.346,1.331-3.207c0.86-0.859,1.998-1.333,3.206-1.333l37.102-0.008c2.503,0,4.539,2.035,4.539,4.537
		l0.009,37.102c0,2.502-2.035,4.538-4.537,4.539L53.415,67.199z M90.507,21.917l-37.102,0.009c-0.965,0-1.877,0.38-2.565,1.068
		c-0.688,0.689-1.067,1.601-1.067,2.567l0.007,37.101c0.001,2.003,1.631,3.633,3.633,3.633l37.105-0.008
		c2.003-0.001,3.633-1.632,3.633-3.635L94.142,25.55C94.142,23.547,92.511,21.917,90.507,21.917"/>
	<path clip-path="url(#SVGID_2_)" fill="#ED1C24" d="M88.056,64.197H55.866c-2.203,0-3.996-1.793-3.996-3.997V28.012
		c0-2.204,1.793-3.997,3.996-3.997h32.189c2.204,0,3.997,1.793,3.997,3.997V60.2C92.053,62.404,90.26,64.197,88.056,64.197
		 M55.866,24.919c-1.705,0-3.092,1.388-3.092,3.093V60.2c0,1.705,1.387,3.093,3.092,3.093h32.189c1.705,0,3.093-1.388,3.093-3.093
		V28.012c0-1.705-1.388-3.093-3.093-3.093H55.866z"/>
	<path clip-path="url(#SVGID_2_)" d="M0,130.507c0-0.146,0.064-0.21,0.209-0.21h0.338c0.128,0,0.192,0.064,0.192,0.21v11
		c0,0.146-0.064,0.209-0.192,0.209H0.209c-0.145,0-0.209-0.063-0.209-0.209V130.507z"/>
	<path clip-path="url(#SVGID_2_)" d="M6.657,133.24c2.074,0,3.12,1.029,3.12,3.104v5.179c0,0.128-0.064,0.192-0.193,0.192H9.262
		c-0.113,0-0.176-0.064-0.176-0.192v-5.146c0-1.657-0.837-2.493-2.51-2.493c-0.868,0-1.672,0.145-2.412,0.419
		c-0.225,0.111-0.338,0.289-0.338,0.53v6.69c0,0.128-0.065,0.192-0.177,0.192H3.328c-0.129,0-0.193-0.064-0.193-0.192v-6.868
		c0-0.498,0.112-0.675,0.611-0.884C4.646,133.417,5.611,133.24,6.657,133.24"/>
	<path clip-path="url(#SVGID_2_)" d="M13.184,131.552c0.129,0,0.193,0.064,0.193,0.177v1.753h2.557c0.129,0,0.193,0.064,0.193,0.177
		v0.273c0,0.113-0.064,0.178-0.193,0.178h-2.557v4.663c0,1.014,0.177,1.689,0.531,2.011c0.338,0.338,1.013,0.499,1.994,0.499
		c0.129,0,0.193,0.063,0.193,0.192v0.273c0,0.129-0.064,0.193-0.193,0.193c-1.206,0.016-2.042-0.209-2.509-0.659
		c-0.467-0.435-0.708-1.271-0.708-2.493v-4.68h-1.736c-0.114,0-0.177-0.064-0.177-0.178v-0.273c0-0.112,0.063-0.177,0.177-0.177
		h1.736v-1.753c0-0.112,0.064-0.177,0.193-0.177H13.184z"/>
	<path clip-path="url(#SVGID_2_)" d="M17.058,136.602c0-2.106,1.223-3.361,3.474-3.361c2.267,0,3.474,1.287,3.474,3.329v0.821
		c0,0.24-0.129,0.353-0.37,0.353H17.75v1.094c0,1.561,0.932,2.509,2.686,2.509c1.318,0,2.268-0.53,2.847-1.575
		c0.08-0.113,0.177-0.146,0.289-0.081l0.225,0.129c0.128,0.064,0.145,0.161,0.064,0.289c-0.659,1.223-1.801,1.834-3.425,1.834
		c-2.236,0-3.378-1.19-3.378-3.169V136.602z M23.313,136.537c0-1.672-0.965-2.686-2.782-2.686c-1.818,0-2.782,1.014-2.782,2.686
		v0.645h5.564V136.537z"/>
	<path clip-path="url(#SVGID_2_)" d="M25.562,136.488c0-2.17,1.126-3.248,3.378-3.248c1.013,0,1.881,0.161,2.637,0.467
		c0.515,0.241,0.628,0.37,0.628,0.885v7.72c0,2.315-1.111,3.474-3.329,3.474c-1.464,0-2.509-0.611-3.12-1.817
		c-0.081-0.145-0.049-0.241,0.08-0.306l0.225-0.112c0.113-0.064,0.209-0.032,0.289,0.08c0.499,0.981,1.206,1.528,2.509,1.528
		c1.77,0,2.654-0.934,2.654-2.814v-1.094c-0.917,0.386-1.866,0.579-2.863,0.579c-2.058,0-3.088-1.029-3.088-3.088V136.488z
		 M28.988,133.884c-1.817,0-2.734,0.868-2.734,2.621v2.22c0,1.656,0.82,2.477,2.476,2.477c0.902,0,1.834-0.192,2.783-0.595v-5.822
		c0-0.321-0.064-0.386-0.402-0.53C30.452,134.013,29.744,133.884,28.988,133.884"/>
	<path clip-path="url(#SVGID_2_)" d="M38.361,133.24c0.113,0,0.178,0.064,0.178,0.193v0.257c0,0.129-0.065,0.193-0.178,0.193h-0.515
		c-0.916,0-1.72,0.145-2.427,0.419c-0.226,0.111-0.338,0.289-0.338,0.53v6.69c0,0.128-0.065,0.192-0.177,0.192h-0.322
		c-0.129,0-0.193-0.064-0.193-0.192v-6.884c0-0.499,0.113-0.676,0.611-0.885c0.82-0.338,1.769-0.498,2.863-0.515H38.361z"/>
	<path clip-path="url(#SVGID_2_)" d="M40.242,130.603c0.305,0,0.402,0.097,0.402,0.402v0.097c0,0.306-0.097,0.418-0.402,0.418h-0.08
		c-0.322,0-0.418-0.097-0.418-0.418v-0.097c0-0.306,0.096-0.402,0.418-0.402H40.242z M40.354,133.481
		c0.128,0,0.192,0.064,0.192,0.177v7.865c0,0.128-0.064,0.192-0.192,0.192h-0.322c-0.113,0-0.177-0.064-0.177-0.192v-7.865
		c0-0.112,0.064-0.177,0.177-0.177H40.354z"/>
	<path clip-path="url(#SVGID_2_)" d="M44.148,131.552c0.129,0,0.193,0.064,0.193,0.177v1.753h2.557c0.129,0,0.193,0.064,0.193,0.177
		v0.273c0,0.113-0.064,0.178-0.193,0.178h-2.557v4.663c0,1.014,0.177,1.689,0.531,2.011c0.338,0.338,1.013,0.499,1.994,0.499
		c0.129,0,0.193,0.063,0.193,0.192v0.273c0,0.129-0.064,0.193-0.193,0.193c-1.206,0.016-2.042-0.209-2.509-0.659
		c-0.467-0.435-0.708-1.271-0.708-2.493v-4.68h-1.736c-0.114,0-0.177-0.064-0.177-0.178v-0.273c0-0.112,0.063-0.177,0.177-0.177
		h1.736v-1.753c0-0.112,0.064-0.177,0.193-0.177H44.148z"/>
	<path clip-path="url(#SVGID_2_)" d="M54.713,133.481c0.112,0,0.177,0.064,0.177,0.177v8.653c0,2.316-1.11,3.474-3.345,3.474
		c-1.479,0-2.525-0.611-3.137-1.817c-0.095-0.145-0.063-0.241,0.081-0.306l0.209-0.112c0.129-0.064,0.225-0.032,0.306,0.08
		c0.515,1.014,1.351,1.528,2.524,1.528c1.786,0,2.67-0.934,2.67-2.814v-1.046c-0.949,0.354-1.897,0.531-2.814,0.531
		c-2.074,0-3.12-1.029-3.12-3.104v-5.066c0-0.112,0.064-0.177,0.193-0.177h0.306c0.128,0,0.192,0.064,0.192,0.177v5.034
		c0,1.673,0.837,2.509,2.493,2.509c0.917,0,1.833-0.177,2.75-0.547v-6.996c0-0.112,0.065-0.177,0.194-0.177H54.713z"/>
	<path clip-path="url(#SVGID_2_)" d="M60.933,134.045c0-2.493,1.559-3.973,4.342-3.973c2.766,0,4.31,1.479,4.31,3.973v3.924
		c0,2.493-1.544,3.973-4.31,3.973c-2.783,0-4.342-1.479-4.342-3.973V134.045z M68.845,134.045c0-2.075-1.271-3.281-3.57-3.281
		c-2.332,0-3.603,1.206-3.603,3.281v3.924c0,2.075,1.271,3.281,3.603,3.281c2.299,0,3.57-1.206,3.57-3.281V134.045z"/>
	<path clip-path="url(#SVGID_2_)" d="M75.628,133.24c0.113,0,0.178,0.064,0.178,0.193v0.257c0,0.129-0.064,0.193-0.178,0.193h-0.515
		c-0.916,0-1.721,0.145-2.428,0.419c-0.226,0.111-0.338,0.289-0.338,0.53v6.69c0,0.128-0.064,0.192-0.177,0.192h-0.322
		c-0.129,0-0.193-0.064-0.193-0.192v-6.884c0-0.499,0.113-0.676,0.611-0.885c0.82-0.338,1.77-0.498,2.863-0.515H75.628z"/>
	<path clip-path="url(#SVGID_2_)" d="M76.383,136.488c0-2.17,1.125-3.248,3.377-3.248c1.014,0,1.882,0.161,2.638,0.467
		c0.514,0.241,0.627,0.37,0.627,0.885v7.72c0,2.315-1.109,3.474-3.329,3.474c-1.464,0-2.509-0.611-3.12-1.817
		c-0.081-0.145-0.048-0.241,0.081-0.306l0.225-0.112c0.112-0.064,0.209-0.032,0.29,0.08c0.498,0.981,1.206,1.528,2.509,1.528
		c1.769,0,2.653-0.934,2.653-2.814v-1.094c-0.917,0.386-1.865,0.579-2.862,0.579c-2.06,0-3.088-1.029-3.088-3.088V136.488z
		 M79.808,133.884c-1.817,0-2.733,0.868-2.733,2.621v2.22c0,1.656,0.82,2.477,2.477,2.477c0.9,0,1.833-0.192,2.782-0.595v-5.822
		c0-0.321-0.064-0.386-0.402-0.53C81.271,134.013,80.563,133.884,79.808,133.884"/>
	<path clip-path="url(#SVGID_2_)" d="M88.2,133.24c1.175,0,1.979,0.29,2.445,0.853c0.45,0.562,0.675,1.336,0.675,2.284v4.229
		c0,0.562-0.13,0.724-0.579,0.917c-0.643,0.273-1.495,0.418-2.557,0.418c-1.319,0-2.22-0.193-2.702-0.596
		c-0.482-0.386-0.724-0.997-0.724-1.849c0-1.785,0.981-2.429,3.49-2.429c0.466,0,1.254,0.064,2.38,0.177v-0.885
		c0-1.56-0.579-2.492-2.461-2.492c-1.206,0-2.042,0.45-2.524,1.366c-0.064,0.097-0.145,0.129-0.258,0.081l-0.257-0.096
		c-0.129-0.065-0.161-0.162-0.097-0.274C85.627,133.804,86.673,133.24,88.2,133.24 M90.629,137.824
		c-1.174-0.112-1.994-0.177-2.444-0.177c-1.994,0-2.718,0.498-2.718,1.833c0,0.644,0.192,1.109,0.562,1.415s1.062,0.467,2.106,0.467
		c0.869,0,1.576-0.112,2.123-0.321c0.322-0.129,0.37-0.21,0.37-0.596V137.824z"/>
	<path clip-path="url(#SVGID_2_)" d="M96.914,133.24c2.075,0,3.12,1.029,3.12,3.104v5.179c0,0.128-0.064,0.192-0.192,0.192H99.52
		c-0.112,0-0.177-0.064-0.177-0.192v-5.146c0-1.657-0.836-2.493-2.509-2.493c-0.868,0-1.673,0.145-2.412,0.419
		c-0.226,0.111-0.338,0.289-0.338,0.53v6.69c0,0.128-0.064,0.192-0.177,0.192h-0.322c-0.129,0-0.191-0.064-0.191-0.192v-6.868
		c0-0.498,0.111-0.675,0.609-0.884C94.904,133.417,95.869,133.24,96.914,133.24"/>
	<path clip-path="url(#SVGID_2_)" d="M102.621,130.603c0.306,0,0.401,0.097,0.401,0.402v0.097c0,0.306-0.096,0.418-0.401,0.418
		h-0.081c-0.321,0-0.418-0.097-0.418-0.418v-0.097c0-0.306,0.097-0.402,0.418-0.402H102.621z M102.733,133.481
		c0.129,0,0.193,0.064,0.193,0.177v7.865c0,0.128-0.064,0.192-0.193,0.192h-0.321c-0.113,0-0.177-0.064-0.177-0.192v-7.865
		c0-0.112,0.063-0.177,0.177-0.177H102.733z"/>
	<path clip-path="url(#SVGID_2_)" d="M110.581,141.089c0.112,0,0.177,0.064,0.177,0.193v0.241c0,0.127-0.064,0.192-0.177,0.192
		h-5.854c-0.113,0-0.178-0.065-0.178-0.192v-0.241c0-0.081,0.032-0.161,0.08-0.226l5.18-6.947h-5.019
		c-0.112,0-0.177-0.064-0.177-0.193v-0.258c0-0.112,0.064-0.177,0.177-0.177h5.709c0.112,0,0.177,0.064,0.177,0.177v0.258
		c0,0.097-0.032,0.177-0.08,0.241l-5.179,6.932H110.581z"/>
	<path clip-path="url(#SVGID_2_)" d="M115.322,133.24c1.175,0,1.979,0.29,2.445,0.853c0.45,0.562,0.675,1.336,0.675,2.284v4.229
		c0,0.562-0.129,0.724-0.579,0.917c-0.643,0.273-1.495,0.418-2.557,0.418c-1.319,0-2.22-0.193-2.701-0.596
		c-0.483-0.386-0.725-0.997-0.725-1.849c0-1.785,0.981-2.429,3.49-2.429c0.466,0,1.254,0.064,2.38,0.177v-0.885
		c0-1.56-0.579-2.492-2.461-2.492c-1.206,0-2.042,0.45-2.524,1.366c-0.064,0.097-0.145,0.129-0.258,0.081l-0.257-0.096
		c-0.129-0.065-0.161-0.162-0.097-0.274C112.749,133.804,113.795,133.24,115.322,133.24 M117.751,137.824
		c-1.174-0.112-1.994-0.177-2.444-0.177c-1.993,0-2.718,0.498-2.718,1.833c0,0.644,0.192,1.109,0.562,1.415
		c0.371,0.306,1.062,0.467,2.106,0.467c0.869,0,1.576-0.112,2.123-0.321c0.322-0.129,0.37-0.21,0.37-0.596V137.824z"/>
	<path clip-path="url(#SVGID_2_)" d="M121.801,131.552c0.129,0,0.193,0.064,0.193,0.177v1.753h2.558
		c0.128,0,0.192,0.064,0.192,0.177v0.273c0,0.113-0.064,0.178-0.192,0.178h-2.558v4.663c0,1.014,0.177,1.689,0.531,2.011
		c0.338,0.338,1.013,0.499,1.994,0.499c0.128,0,0.192,0.063,0.192,0.192v0.273c0,0.129-0.064,0.193-0.192,0.193
		c-1.207,0.016-2.043-0.209-2.509-0.659c-0.467-0.435-0.708-1.271-0.708-2.493v-4.68h-1.737c-0.112,0-0.177-0.064-0.177-0.178
		v-0.273c0-0.112,0.064-0.177,0.177-0.177h1.737v-1.753c0-0.112,0.064-0.177,0.193-0.177H121.801z"/>
	<path clip-path="url(#SVGID_2_)" d="M126.383,130.603c0.306,0,0.402,0.097,0.402,0.402v0.097c0,0.306-0.097,0.418-0.402,0.418
		h-0.08c-0.321,0-0.418-0.097-0.418-0.418v-0.097c0-0.306,0.097-0.402,0.418-0.402H126.383z M126.496,133.481
		c0.128,0,0.192,0.064,0.192,0.177v7.865c0,0.128-0.064,0.192-0.192,0.192h-0.322c-0.112,0-0.177-0.064-0.177-0.192v-7.865
		c0-0.112,0.064-0.177,0.177-0.177H126.496z"/>
	<path clip-path="url(#SVGID_2_)" d="M128.682,136.071c0-1.737,1.335-2.831,3.441-2.831c2.122,0,3.458,1.078,3.458,2.831v3.056
		c0,1.736-1.336,2.814-3.458,2.814c-2.106,0-3.441-1.078-3.441-2.814V136.071z M134.89,136.055c0-1.351-1.094-2.188-2.767-2.188
		c-1.656,0-2.75,0.853-2.75,2.188v3.072c0,1.335,1.094,2.188,2.75,2.188c1.673,0,2.767-0.837,2.767-2.188V136.055z"/>
	<path clip-path="url(#SVGID_2_)" d="M141.062,133.24c2.074,0,3.12,1.029,3.12,3.104v5.179c0,0.128-0.064,0.192-0.193,0.192h-0.321
		c-0.113,0-0.177-0.064-0.177-0.192v-5.146c0-1.657-0.837-2.493-2.51-2.493c-0.868,0-1.672,0.145-2.412,0.419
		c-0.225,0.111-0.338,0.289-0.338,0.53v6.69c0,0.128-0.065,0.192-0.177,0.192h-0.321c-0.129,0-0.193-0.064-0.193-0.192v-6.868
		c0-0.498,0.112-0.675,0.611-0.884C139.052,133.417,140.017,133.24,141.062,133.24"/>
</g>
</svg>
