<?xml version="1.0" encoding="utf-8"?>
<!-- Generator: Adobe Illustrator 19.2.1, SVG Export Plug-In . SVG Version: 6.00 Build 0)  -->
<svg version="1.1" id="Layer_1" xmlns="http://www.w3.org/2000/svg" xmlns:xlink="http://www.w3.org/1999/xlink" x="0px" y="0px"
	 viewBox="0 0 196.2 141.8" style="enable-background:new 0 0 196.2 141.8;" xml:space="preserve">
<style type="text/css">
	.st0{fill:#006633;}
	.st1{fill:#93C01F;}
	.st2{fill:#1D1D1B;}
	.st3{fill:url(#XMLID_2_);}
	.st4{fill:url(#XMLID_3_);}
	.st5{clip-path:url(#SVGID_2_);}
	.st6{fill:url(#XMLID_4_);}
	.st7{fill:url(#XMLID_5_);}
	.st8{fill:#C6C6C5;}
	.st9{fill:#006023;}
	.st10{fill:url(#XMLID_6_);}
	.st11{fill:#FFFFFF;}
	.st12{clip-path:url(#SVGID_4_);}
	.st13{fill:url(#XMLID_7_);}
</style>
<g id="XMLID_695_">
	<path id="XMLID_779_" class="st0" d="M132.1,123.1c0,0,57.7,0,64.1-29.8C184.7,100.8,169.3,119.4,132.1,123.1z"/>
	<path id="XMLID_778_" class="st1" d="M169.2,109.5c0,0,28.1-21.6,19.4-38.5C185.9,78.9,185.8,93.8,169.2,109.5z"/>
	<g id="XMLID_734_">
		<g id="XMLID_747_">
			<path id="XMLID_777_" class="st2" d="M68.3,27.1c0.1-0.8,0.2-1.5,0.3-2.3l0,0l0,0c0.9-7.1,0.5-16.3-3.9-24.7
				c0.1,4.7-2.5,13.6-6.1,23.4L45.8,55.8c-0.1,0.1-0.1,0.3-0.2,0.4c-0.2,0.5-0.4,0.9-0.5,1.4L31.7,91.5
				c-4.3,9.9-10.1,12.1-17.4,13.4C2.7,106.1,3,117.2,3,117.2c0-0.1,0.1-0.2,0.1-0.3c0.3-0.6,1-1.9,2.4-3.1c1.1-0.9,2.4-1.6,3.5-2.1
				c0.9-0.3,1.9-0.5,3-0.5c5.7-0.2,12.6-0.1,15.3,0l0,0l0,0c0.5,0,0.9,0,1.3,0c0.2,0,0.5,0,0.7,0c1.3,0,0.9,0,1.7,0
				c1.6,0,8-0.5,11.5-10.3c0.4-1.2,1.1-3,1.9-5.3l0,0l0,0c0.5-1.4,1.1-3,1.8-4.7l0,0l2.1-5.5l0,0c1.7-4.4,3.6-9.3,5.6-14.3l8.2-21.6
				l1.1-2c0.6-1.4,1.1-2.7,1.5-3.7l0.3,0.7l4.4-7.8L68.7,35C68.3,33.3,67.9,30.7,68.3,27.1z"/>
			
				<linearGradient id="XMLID_2_" gradientUnits="userSpaceOnUse" x1="44.5578" y1="82.1227" x2="44.5578" y2="57.508" gradientTransform="matrix(1 0 0 -1 0 141.6)">
				<stop  offset="0" style="stop-color:#B1B1B1"/>
				<stop  offset="1" style="stop-color:#575756"/>
			</linearGradient>
			<path id="XMLID_776_" class="st3" d="M31.1,103.1c2-2.1,4.3-6.2,7-12.4l22.5-55.9c1.7-3.9,3.4-7.4,4.1-15.7c0,13,0,20.6,0,24.8
				c0-0.1-11.8,28.4-11.8,28.4l-2.1,5.1l0,0L50,79.5l0,0l0,0l-5.3,13.1c-0.3,0.7-0.6,1.4-0.8,2c-1.7,4.1-6.3,13-13.8,13.3h-5.6v-2.4
				C27.9,105,30.1,104.2,31.1,103.1z"/>
			
				<linearGradient id="XMLID_3_" gradientUnits="userSpaceOnUse" x1="97.1078" y1="82.1986" x2="97.1078" y2="57.6303" gradientTransform="matrix(1 0 0 -1 0 141.6)">
				<stop  offset="0" style="stop-color:#B1B1B1"/>
				<stop  offset="1" style="stop-color:#575756"/>
			</linearGradient>
			<path id="XMLID_775_" class="st4" d="M131.6,110.8v-0.4c-0.3,0-0.6,0-0.8,0c-2-0.1-3.8-0.3-5.7-0.5c-0.9-0.1-3-0.5-4-0.7
				c-27-5.5-33-27.6-36.6-35.5l0,0l-15.7-39c-1.7-3.9-3.4-7.4-4.1-15.7c0,13,0,20.8,0,25.1c0,0,0,0,0,0.1l-2,4.8L73,75l0,0
				c0.2,0.5,0.4,1,0.6,1.5c7.9,19.7,12.8,31.4,45.9,33.9c0.1,0,0.1,0,0.2,0C123,110.8,131,110.9,131.6,110.8z"/>
			<g id="XMLID_752_">
				<g id="XMLID_771_">
					<path id="XMLID_772_" class="st2" d="M113.4,29.6c0,0,1.2-7.9,11.2-22.2c2.6-4.3,3.4-6,4.1-7.4c-0.4,2.8-3.1,15.8-8.2,22.4
						C115.4,28.9,113.9,28.9,113.4,29.6z M128.2,2c0,0-8.4,19.1-13.3,26C116.5,27.2,125.2,10.9,128.2,2z"/>
				</g>
				<g id="XMLID_759_">
					<g>
						<path id="XMLID_760_" class="st2" d="M135.5,24.2c-25.6,0-46.4,19.4-46.4,43.3s20.8,43.3,46.4,43.3s46.4-19.4,46.4-43.3
							S161.1,24.2,135.5,24.2z M135.5,105.4c-17.6,0-31.9-17-31.9-37.9s14.3-37.9,31.9-37.9s31.9,17,31.9,37.9
							C167.3,88.5,153.1,105.4,135.5,105.4z"/>
					</g>
					<g>
						<defs>
							<path id="SVGID_1_" d="M135.5,24.2c-25.6,0-46.4,19.4-46.4,43.3s20.8,43.3,46.4,43.3s46.4-19.4,46.4-43.3
								S161.1,24.2,135.5,24.2z M135.5,105.4c-17.6,0-31.9-17-31.9-37.9s14.3-37.9,31.9-37.9s31.9,17,31.9,37.9
								C167.3,88.5,153.1,105.4,135.5,105.4z"/>
						</defs>
						<clipPath id="SVGID_2_">
							<use xlink:href="#SVGID_1_"  style="overflow:visible;"/>
						</clipPath>
						<g id="XMLID_763_" class="st5">
							<path id="XMLID_770_" class="st2" d="M109.1,105.3c-7.8-8.3-12.7-19.8-12.7-32.4c0-21.7,14.4-40,33.7-44.9
								c1.1-0.3,2.1-0.6,3.2-0.9c-1.4-0.1-2.8-0.2-4.2-0.2c-18.7-0.1-34.8,10.9-42,26.8c-1,3.7-1.5,7.5-1.5,11.4
								C85.5,82.3,95,97.4,109.1,105.3z"/>
							
								<linearGradient id="XMLID_4_" gradientUnits="userSpaceOnUse" x1="100.0272" y1="75.0911" x2="117.576" y2="73.4399" gradientTransform="matrix(1 0 0 -1 0 141.6)">
								<stop  offset="0" style="stop-color:#868686"/>
								<stop  offset="1" style="stop-color:#3C3C3B"/>
							</linearGradient>
							<path id="XMLID_769_" class="st6" d="M101.3,73.4c-1.4-21.5,10.9-39.7,28.8-45.4c-19.3,4.9-33.7,23.1-33.7,44.9
								c0,12.6,4.8,24.1,12.7,32.4c3.3,1.9,6.9,3.4,10.7,4.4C109.4,101.2,102.2,88.1,101.3,73.4z"/>
							<path id="XMLID_768_" class="st2" d="M162.1,31.6c-8.1-7.2-18.8-11.7-30.5-11.8C110.2,19.6,92.2,34.1,87,53.7
								c7.2-15.9,23.3-26.9,42-26.8c1.4,0,2.8,0.1,4.2,0.2c0.2,0,0.4,0,0.7,0.1c2.1-0.3,4.3-0.5,6.5-0.5c9.4,0,18.1,3.1,25.2,8.3
								C164.5,33.9,163.3,32.7,162.1,31.6z"/>
							
								<linearGradient id="XMLID_5_" gradientUnits="userSpaceOnUse" x1="155.6884" y1="93.7525" x2="158.7531" y2="125.0527" gradientTransform="matrix(1 0 0 -1 0 141.6)">
								<stop  offset="0" style="stop-color:#868686"/>
								<stop  offset="1" style="stop-color:#3C3C3B"/>
							</linearGradient>
							<path id="XMLID_767_" class="st7" d="M134,27.2c23.1,2.6,41,22.2,41,45.8c0,4-0.5,7.8-1.5,11.4c2.6-5.7,4-11.9,4-18.6
								c0-11.8-4.5-22.6-11.8-30.8c-7.1-5.2-15.8-8.3-25.2-8.3C138.2,26.7,136.1,26.9,134,27.2z"/>
							<path id="XMLID_766_" class="st2" d="M165.6,35.1c7.4,8.2,11.9,19,11.8,30.8c0,6.6-1.5,12.9-4,18.6
								c-7.2,15.9-23.3,26.9-42,26.8c-4,0-7.9-0.6-11.6-1.6c4.6,3.8,9.9,6.6,15.5,8.3c1.5,0.4,3,0.8,4.5,1.1c0.2,0,0.4,0,0.6,0
								c24.3,0,44-20.7,44-46.2C184.4,57.3,177,43.4,165.6,35.1z"/>
							<path id="XMLID_765_" class="st1" d="M133.3,27.2c-1.1,0.2-2.2,0.5-3.2,0.9c1.3-0.3,2.6-0.6,3.9-0.8
								C133.7,27.2,133.5,27.2,133.3,27.2z"/>
							<path id="XMLID_764_" class="st8" d="M134,27.2c-1.3,0.2-2.6,0.5-3.9,0.8c-17.9,5.6-30.2,23.8-28.8,45.4
								c1,14.7,8.1,27.8,18.5,36.3c3.7,1,7.6,1.5,11.6,1.6c18.7,0.1,34.8-10.9,42-26.8c1-3.7,1.5-7.5,1.5-11.4
								C175,49.4,157,29.8,134,27.2z"/>
						</g>
					</g>
				</g>
				<g id="XMLID_753_">
					<g id="XMLID_757_">
						<path id="XMLID_758_" class="st9" d="M95.7,42.6c0,0,3.3-19.9,14.2-19.5c11.2,0.8,35.7,15.2,49.3,8.9c-12.5,5.5-25.5-1.3-44-7
							c-5.2-1.3-14.4-6-19.9,20.8C95.3,44,95.7,42.6,95.7,42.6z"/>
					</g>
					<g id="XMLID_754_">
						
							<linearGradient id="XMLID_6_" gradientUnits="userSpaceOnUse" x1="127.3792" y1="102.5087" x2="106.8414" y2="108.7133" gradientTransform="matrix(1 0 0 -1 0 141.6)">
							<stop  offset="0.2184" style="stop-color:#93C01F"/>
							<stop  offset="0.672" style="stop-color:#006633"/>
						</linearGradient>
						<path id="XMLID_756_" class="st10" d="M118.8,19.8c-16.1-5.4-21.3,6.2-23,13.2l0,0v0.1c-0.6,2.5-0.8,4.2-0.8,4.2s0,0.3,0,0.7
							c-0.2,2.4-0.3,5.4,0.1,8.6c0,0,1.5-5.5,3.4-9.2c4.1-7.8,6-11.6,16.4-7.3c17.6,8.1,32.4,9,44.9,1.5
							C148.6,34.2,144.1,28.3,118.8,19.8z"/>
						<path id="XMLID_755_" class="st11" d="M95.2,42.8c0,0,1.3-19.5,12.2-19.1c11.2,0.9,36.9,15.1,49.8,9
							c-11.9,5.3-25.4-1.4-44.3-7.2c-5.3-1.3-14.9-5.9-17.8,20.3C95,44.3,95.2,42.8,95.2,42.8z"/>
					</g>
				</g>
			</g>
			<g id="XMLID_748_">
				<path id="XMLID_751_" class="st8" d="M131.6,109.9c-0.5,0-1.1,0.1-1.7,0.1c-0.8,0-1.2,0-1.3,0.1c-1.9,0.1-4.2,0.1-6.9,0
					c-1.3-0.1-2.5-0.2-3.9-0.3c-4.9-0.6-10.7-1.8-16.8-4.1C86.9,98.8,81.1,84.6,76.5,73v-0.1c-0.1-0.3-0.2-0.6-0.4-0.9l0,0
					L64.7,44.2v0.1c0,0.1-0.8,2-2,5.1l10.2,25.7l0,0c0.2,0.5,0.4,1,0.6,1.5c5.3,13.2,9.2,22.8,21.1,28.4l0,0c0,0,0.3,0.1,0.8,0.4
					c1.4,0.6,2.8,1.2,4.4,1.7c5.1,1.7,13.3,3.7,23.8,3.7c1.8,0,6.5,0,6.6,0h3.9l0.4-0.3l0,0c1.9-0.3,3.2-0.7,3.2-0.7
					s2.3-1.4,3.6-3.5C137.9,108.6,134.3,109.6,131.6,109.9z"/>
				<path id="XMLID_749_" class="st8" d="M64.7,43.9c0,0-11.9,26.1-20.7,45.5c-6.6,14.4-9.9,15.2-12.7,15.3c-0.8,0-12.3,0-14.9,0
					c-1.2,0-2.1,0-2.1,0C2.7,105.9,3,117,3,117c0-0.1,0.1-0.2,0.1-0.3c0.3-0.6,1-1.9,2.4-3.1c1.1-0.9,2.4-1.6,3.5-2.1
					c0.9-0.3,1.9-0.5,3-0.5c1.6-0.1,3-0.1,4.3-0.1l0,0c0.7,0,4.1,0,4.8,0c2.6,0,4.6,0.1,6.2,0.1l0,0l0,0c0.5,0,0.9,0,1.3,0h0.1
					c0.1,0,0.1,0,0.2,0c0.2,0,0.5,0,0.7,0c1,0,0.9,0,1.7,0c0.1,0,0.2,0,0.3,0c1.6,0,7.1-0.6,11.2-10.3c1.8-4.3,21.7-55.8,21.9-56.3
					V43.9z"/>
			</g>
		</g>
		<g id="XMLID_735_">
			<g>
				<defs>
					<polygon id="SVGID_3_" points="78.2,88 36.3,94.8 51.3,58 66.3,58.3 					"/>
				</defs>
				<clipPath id="SVGID_4_">
					<use xlink:href="#SVGID_3_"  style="overflow:visible;"/>
				</clipPath>
				<g id="XMLID_737_" class="st12">
					
						<linearGradient id="XMLID_7_" gradientUnits="userSpaceOnUse" x1="603.5201" y1="430.4978" x2="601.343" y2="425.4149" gradientTransform="matrix(0.7145 -0.6996 -0.6996 -0.7145 -79.4696 812.0969)">
						<stop  offset="0.2184" style="stop-color:#93C01F"/>
						<stop  offset="0.672" style="stop-color:#006633"/>
					</linearGradient>
					<polygon id="XMLID_746_" class="st13" points="98.1,63.5 5.8,100.4 4.2,107.1 100.8,67.2 					"/>
					
						<rect id="XMLID_745_" x="0.9" y="103.3" transform="matrix(0.9233 -0.3841 0.3841 0.9233 -40.5433 8.5357)" class="st2" width="0.3" height="5"/>
					
						<rect id="XMLID_744_" x="15.7" y="97.5" transform="matrix(0.9116 -0.4112 0.4112 0.9116 -39.592 15.3429)" class="st2" width="0.3" height="4.4"/>
					
						<rect id="XMLID_743_" x="30.1" y="91.4" transform="matrix(0.9075 -0.4201 0.4201 0.9075 -36.627 21.38)" class="st2" width="0.3" height="4.8"/>
					<g id="XMLID_741_">
						
							<rect id="XMLID_742_" x="48" y="83.8" transform="matrix(0.9344 -0.3562 0.3562 0.9344 -27.5857 22.8069)" class="st2" width="0.3" height="5"/>
					</g>
					<g id="XMLID_739_">
						
							<rect id="XMLID_740_" x="62.3" y="77.9" transform="matrix(0.9166 -0.3998 0.3998 0.9166 -26.9105 31.6822)" class="st2" width="0.3" height="4.8"/>
					</g>
					
						<rect id="XMLID_738_" x="78.7" y="72" transform="matrix(0.913 -0.408 0.408 0.913 -23.3307 38.619)" class="st2" width="0.3" height="4.1"/>
				</g>
			</g>
		</g>
	</g>
	<g id="XMLID_706_">
		<path id="XMLID_732_" class="st2" d="M47.9,129.4c0,0.7-0.5,1.5-1.2,1.5c0-1.8-0.6-2.6-2.9-2.6c-1.3,0-3.1,0.1-3.1,1v4.2h3.4
			c1,0,1.2,0.5,1.2,0.8c0,0.6-0.7,1.2-1.3,1.2c0-0.5-0.4-0.9-1.3-0.9h-2v4.9c0,0.7,1.9,0.7,3.3,0.7c2.6,0,3.3-2,3.3-2.3
			c0.6,0,1.1,0.6,1.1,1.2c0,1.7-2,2-3.9,2h-6.8v-0.7h0.7c0.4,0,1-0.3,1-0.9v-10.3c0-0.4-0.1-0.9-1-0.9h-0.6v-0.6h2.8
			c1,0,3.8-0.1,4.8-0.1C47.4,127.5,47.9,128,47.9,129.4z"/>
		<path id="XMLID_730_" class="st2" d="M50.7,129.4c0-0.5-0.2-1.2-1.3-1.2H49v-0.6h1.7c1.5,0,2,0.7,2.6,1.6l6.3,9.2v-9.1
			c0-0.7-0.3-1.2-0.9-1.2H58v-0.6h4.4v0.6h-0.6c-0.8,0-1,0.6-1,1v10.1c0,1.1,0.7,1.5,0.8,1.5c-0.3,0.4-0.9,0.4-1.3,0.4
			c-0.3,0-0.8-0.2-1.1-0.6c-0.5-0.7-7.4-10.6-7.4-10.6v9.2c0,0.5,0.2,1.3,1.2,1.3h0.6v0.6h-4.7v-0.6h0.5c0.7,0,1.1-0.6,1.1-1.1v-9.9
			H50.7z"/>
		<path id="XMLID_728_" class="st2" d="M72.8,130.5c0-2-1.8-2-3-2c-0.6,0-0.8,0.4-0.8,0.8v10c0,0.6,0.5,1.2,1.2,1.2h0.7v0.6h-5.3
			v-0.6h0.7c0.6,0,1.2-0.4,1.2-1.2v-9.9c0-0.5-0.1-0.9-0.8-0.9c-2.6,0-3,1.2-3.1,1.6c-0.3,0-0.6-0.7-0.6-1.3c0-0.3,0-0.8,0.6-1.1
			c0.4-0.2,1.2-0.2,1.8-0.2c0.7,0,1.4,0.1,2.9,0.1c0.4,0,3.6-0.1,4.2-0.1c0.9,0,1.1,0.6,1.1,1C73.6,129,73.5,130.5,72.8,130.5z"/>
		<path id="XMLID_726_" class="st2" d="M84.1,129.4c0,0.7-0.5,1.5-1.2,1.5c0-1.8-0.6-2.6-2.9-2.6c-1.3,0-3.1,0.1-3.1,1v4.2h3.4
			c1,0,1.2,0.5,1.2,0.8c0,0.6-0.7,1.2-1.3,1.2c0-0.5-0.4-0.9-1.3-0.9h-2v4.9c0,0.7,1.9,0.7,3.3,0.7c2.6,0,3.3-2,3.3-2.3
			c0.6,0,1.1,0.6,1.1,1.2c0,1.7-2,2-3.9,2h-6.8v-0.7h0.7c0.4,0,1-0.3,1-0.9v-10.3c0-0.4-0.1-0.9-1-0.9H74v-0.6h2.8
			c1,0,3.8-0.1,4.8-0.1C83.7,127.5,84.1,128,84.1,129.4z"/>
		<path id="XMLID_724_" class="st2" d="M97.7,140.4v0.1c0,0.6-0.6,0.8-1.2,0.8c-1,0-1.4-0.9-2.1-2.3c-0.8-1.4-1.9-3.6-3.6-3.6
			c-0.3,0-1-0.2-1-0.7c0-0.2,0.1-0.5,0.2-0.7c0,0,0.5,0.3,1.2,0.3c2.2,0,3.1-1.8,3.1-3c0-1.5-0.8-3.2-3.5-3.2
			c-0.7,0-1.8,0.2-2.4,0.6v10.5c0,0.7,0.4,1.2,1.1,1.2h0.7v0.6h-5v-0.6h0.6c0.8,0,1.1-0.4,1.1-1.2V129c0-0.6-0.4-0.9-1.1-0.9h-0.6
			v-0.6h1.9c1.5,0,2.3-0.3,3.8-0.3c3.4,0,5,1.8,5,3.9c0,2.1-1.8,3.6-3,3.7c1.1,0.3,2,1.8,2.6,2.9C96.6,140.1,96.9,140.4,97.7,140.4z
			"/>
		<path id="XMLID_722_" class="st2" d="M107.2,130.5c0-2-1.8-2-3-2c-0.6,0-0.8,0.4-0.8,0.8v10c0,0.6,0.5,1.2,1.2,1.2h0.7v0.6H100
			v-0.6h0.7c0.6,0,1.2-0.4,1.2-1.2v-9.9c0-0.5-0.1-0.9-0.8-0.9c-2.6,0-3,1.2-3.1,1.6c-0.3,0-0.6-0.7-0.6-1.3c0-0.3,0-0.8,0.6-1.1
			c0.4-0.2,1.2-0.2,1.8-0.2c0.7,0,1.4,0.1,2.9,0.1c0.4,0,3.6-0.1,4.2-0.1c0.9,0,1.1,0.6,1.1,1C107.9,129,107.9,130.5,107.2,130.5z"
			/>
		<path id="XMLID_719_" class="st2" d="M119.8,140.5v0.6h-4.3v-0.6h0.5c0.4,0,0.6-0.3,0.6-0.5c0-0.1,0-0.3-0.1-0.4
			c-0.3-0.7-0.9-2.5-1-2.9h-5.4c-0.5,1-1.1,2.4-1.1,3.1c0,0.7,0.2,1.2,0.5,1.2c0,0.1-0.3,0.5-1.2,0.5s-1-0.9-1-1.3
			c0-0.8,0.6-1.9,1.1-3c1.9-3.7,3.5-7.1,3.5-8.2c0-0.9-0.6-1-0.7-1c0-0.2,0.4-0.6,1.1-0.6c1.3,0,1.8,1.1,2.2,2.2
			c0.3,0.8,3.6,9.8,3.6,9.8c0.3,0.8,1,1.2,1.3,1.2h0.4V140.5z M115.1,135.5c-0.7-1.8-1.3-3.8-2-5.6c-0.3,0.8-1,2.6-2.5,5.6H115.1z"
			/>
		<path id="XMLID_717_" class="st2" d="M123,139.4c0,0.7,0.5,1.1,1,1.1h0.6v0.6h-4.5v-0.6h0.6c0.6,0,1-0.5,1-1.1v-10.3
			c0-0.6-0.4-0.9-1-0.9h-0.6v-0.6h4.5v0.6h-0.7c-0.5,0-0.9,0.4-0.9,0.9V139.4z"/>
		<path id="XMLID_715_" class="st2" d="M127.8,129.4c0-0.5-0.2-1.2-1.3-1.2h-0.4v-0.6h1.7c1.5,0,2,0.7,2.6,1.6l6.3,9.2v-9.1
			c0-0.7-0.3-1.2-0.9-1.2h-0.7v-0.6h4.4v0.6h-0.6c-0.8,0-1,0.6-1,1v10.1c0,1.1,0.7,1.5,0.8,1.5c-0.3,0.4-0.9,0.4-1.2,0.4
			c-0.3,0-0.8-0.2-1.1-0.6c-0.5-0.7-7.4-10.6-7.4-10.6v9.2c0,0.5,0.2,1.3,1.2,1.3h0.6v0.6h-4.7v-0.6h0.5c0.7,0,1.1-0.6,1.1-1.1v-9.9
			H127.8z"/>
		<path id="XMLID_713_" class="st2" d="M158.5,141.1h-4.3v-0.6h0.2c0.6,0,0.7-0.5,0.7-0.9c0-0.1-0.1-1.6-0.3-3.2
			c-0.2-2.1-0.5-5-0.6-6c0-0.2,0-0.6,0-0.6c-0.1,0-0.7,1.4-1.5,3.6c-0.7,1.8-1.7,4.2-2.8,6.7c-0.3,0.7-0.8,0.9-1.3,0.9
			c-0.3,0-0.6-0.2-0.6-0.3c0.1-0.1,0.1-0.3,0.1-0.7c0-0.9-2.1-5.5-2.9-7.3c-1-2.3-1.3-3-1.3-3c-0.1,0-0.8,9.1-0.8,9.5
			c0,0.7,0.2,1.1,0.7,1.1h0.2v0.6h-4.1v-0.6h0.4c1.1,0,1.5-0.9,1.5-1.3l0.8-10c0-0.5-0.2-0.9-1-0.9h-0.7v-0.6h2.2
			c1.2,0,1.6,0.4,2.2,1.7c1.3,3.3,2.6,6,4,9.4c1.5-3.4,2.5-6.2,3.6-9c0.2-0.5,0.9-2.1,2.4-2.1h2.2v0.6h-0.7c-0.7,0-1.1,0.3-1.1,0.9
			c0,0.3,0.1,1.7,1,10c0.1,0.9,0.7,1.4,1.4,1.4h0.5v0.7H158.5z"/>
		<path id="XMLID_711_" class="st2" d="M169.7,129.4c0,0.7-0.5,1.5-1.2,1.5c0-1.8-0.6-2.6-2.9-2.6c-1.3,0-3.1,0.1-3.1,1v4.2h3.4
			c1,0,1.2,0.5,1.2,0.8c0,0.6-0.7,1.2-1.3,1.2c0-0.5-0.4-0.9-1.3-0.9h-2v4.9c0,0.7,1.9,0.7,3.3,0.7c2.6,0,3.3-2,3.3-2.3
			c0.6,0,1.1,0.6,1.1,1.2c0,1.7-2,2-3.9,2h-6.7v-0.7h0.7c0.4,0,1-0.3,1-0.9v-10.3c0-0.4-0.1-0.9-1-0.9h-0.7v-0.6h2.8
			c1,0,3.8-0.1,4.8-0.1C169.3,127.5,169.7,128,169.7,129.4z"/>
		<path id="XMLID_709_" class="st2" d="M172.6,129.4c0-0.5-0.2-1.2-1.3-1.2h-0.4v-0.6h1.7c1.5,0,2,0.7,2.6,1.6l6.3,9.2v-9.1
			c0-0.7-0.3-1.2-0.9-1.2h-0.7v-0.6h4.4v0.6h-0.6c-0.8,0-1,0.6-1,1v10.1c0,1.1,0.7,1.5,0.8,1.5c-0.3,0.4-0.9,0.4-1.2,0.4
			c-0.3,0-0.8-0.2-1.1-0.6c-0.5-0.7-7.4-10.6-7.4-10.6v9.2c0,0.5,0.2,1.3,1.2,1.3h0.6v0.6h-4.7v-0.6h0.5c0.7,0,1.1-0.6,1.1-1.1v-9.9
			H172.6z"/>
		<path id="XMLID_707_" class="st2" d="M194.6,130.5c0-2-1.8-2-3-2c-0.6,0-0.8,0.4-0.8,0.8v10c0,0.6,0.5,1.2,1.2,1.2h0.7v0.6h-5.3
			v-0.6h0.7c0.6,0,1.2-0.4,1.2-1.2v-9.9c0-0.5-0.1-0.9-0.8-0.9c-2.6,0-3,1.2-3.1,1.6c-0.3,0-0.6-0.7-0.6-1.3c0-0.3,0-0.8,0.6-1.1
			c0.4-0.2,1.2-0.2,1.8-0.2c0.7,0,1.4,0.1,2.9,0.1c0.4,0,3.6-0.1,4.2-0.1c0.9,0,1.1,0.6,1.1,1C195.4,129,195.3,130.5,194.6,130.5z"
			/>
	</g>
	<path id="XMLID_702_" class="st2" d="M15.3,140.7v0.6h-4.2v-0.6h0.5c0.4,0,0.6-0.3,0.6-0.5c0-0.1,0-0.3-0.1-0.4
		c-0.3-0.7-0.8-2.4-1-2.8H5.8c-0.4,0.9-1.1,2.4-1.1,3.1c0,0.7,0.2,1.2,0.5,1.2c0,0.1-0.3,0.5-1.1,0.5c-0.9,0-1-0.9-1-1.3
		c0-0.8,0.6-1.9,1.1-2.9c1.8-3.6,3.5-7,3.5-8.1c0-0.9-0.6-1-0.7-1c0-0.2,0.4-0.6,1.1-0.6c1.2,0,1.7,1,2.1,2.1
		c0.3,0.8,3.5,9.6,3.5,9.6c0.3,0.8,0.9,1.1,1.3,1.1L15.3,140.7L15.3,140.7z M10.7,135.8c-0.7-1.8-1.3-3.7-2-5.5
		c-0.3,0.8-0.9,2.5-2.5,5.5H10.7z M8.1,123.6c0.1,0,0.2,0.1,0.3,0.3c0.3,0.9,0.5,1.9,1.2,2.7c0.1,0,0.4,0.4,0.4,0.4
		c0,0.1-0.1,0.2-0.2,0.2c-0.8,0-2.7-2.2-2.7-2.8C7.4,123.9,7.9,123.6,8.1,123.6z"/>
	<path id="XMLID_698_" class="st2" d="M26.2,141.6c-3.7,0-6.5-3.1-6.5-6.9c0-4,2.4-6.9,6.4-6.9c4.3,0,6.5,3.1,6.5,6.9
		S30.3,141.6,26.2,141.6z M21.3,134.8c0,3.1,1.8,5.9,5,5.9c3,0,4.9-2.6,4.9-5.9c0-3.3-1.8-6-5-6C22.7,128.8,21.3,131.8,21.3,134.8z
		 M25.9,123.7c-0.6,0.8-1.9,2.7-2.7,3.2c0,0.1,0.2,0.4,0.7,0.4c0.8,0,1.6-1.6,2.1-2.3c0.6,0.7,1.5,1.4,1.7,2.3
		c0.1,0,0.8-0.2,0.8-0.8C28.4,126.1,28.2,125.8,25.9,123.7z"/>
	<path id="XMLID_696_" class="st2" d="M29.2,127.2c-0.3,0-0.4-0.1-0.4-0.3c0-0.1,0.3-0.3,0.5-0.6c0.5-0.7,0.9-1.6,1.2-2.3
		c0.1-0.3,0.2-0.5,0.5-0.5c0.4,0,0.8,0.7,0.9,0.9C31.9,125.2,29.9,127.2,29.2,127.2z"/>
</g>
</svg>
