<?xml version="1.0" encoding="utf-8"?>
<!-- Generator: Adobe Illustrator 19.2.1, SVG Export Plug-In . SVG Version: 6.00 Build 0)  -->
<svg version="1.1" id="Layer_1" xmlns="http://www.w3.org/2000/svg" xmlns:xlink="http://www.w3.org/1999/xlink" x="0px" y="0px"
	 viewBox="0 0 357.8 100" style="enable-background:new 0 0 357.8 100;" xml:space="preserve">
<style type="text/css">
	.st0{clip-path:url(#SVGID_2_);fill:#BBCF33;}
	.st1{clip-path:url(#SVGID_4_);fill:#00508A;}
	.st2{fill:#00508A;}
</style>
<g id="XMLID_793_">
	<g id="XMLID_794_">
		<g id="XMLID_795_">
			<g id="XMLID_1113_">
				<g id="XMLID_1114_">
					<g>
						<defs>
							<rect id="SVGID_1_" width="102.3" height="100"/>
						</defs>
						<clipPath id="SVGID_2_">
							<use xlink:href="#SVGID_1_"  style="overflow:visible;"/>
						</clipPath>
						<path id="XMLID_1117_" class="st0" d="M72.1,0c7.8,8.8,12.5,20.2,12.5,32.7c0,27.6-22.9,50-51.1,50C20.7,82.7,9,78.1,0.1,70.5
							V100h102.3V0H72.1z"/>
					</g>
					<g>
						<defs>
							<rect id="SVGID_3_" width="102.3" height="100"/>
						</defs>
						<clipPath id="SVGID_4_">
							<use xlink:href="#SVGID_3_"  style="overflow:visible;"/>
						</clipPath>
						<path id="XMLID_1116_" class="st1" d="M33.5,0c-3.4,0-6.8,0.5-9.9,1.5c5.8,2.6,9.9,8.2,9.9,14.9c0,9-7.5,16.3-16.7,16.3
							c-6.8,0-12.6-4-15.2-9.7c-1,3.1-1.5,6.3-1.5,9.7c0,18,15,32.7,33.4,32.7c18.5,0,33.4-14.6,33.4-32.7C66.9,14.6,51.9,0,33.5,0"
							/>
					</g>
				</g>
			</g>
			<g id="XMLID_1098_">
				<path id="XMLID_1112_" class="st2" d="M324.8,66.7v-3.4h25.3c1.4,0,2.4-0.4,3.1-1.1c0.7-0.7,1.1-1.8,1.1-3.1v-4.7
					c0-1.3-0.3-2.3-1-3s-1.8-1.1-3.2-1.1h-19c-4.6,0-6.7-2.2-6.7-6.8V40c0-4.5,2.1-6.7,6.7-6.7h26.3v3.4h-25.5
					c-2.6,0-4.1,1.4-4.1,3.9v2.3c0,2.6,1.4,4.1,4,4.1h19.3c4.6,0,6.7,1.9,6.7,6.1v6.8c0,4.6-2.1,6.7-6.7,6.7h-26.3V66.7z"/>
				<path id="XMLID_1109_" class="st2" d="M214.7,66.7V33.4H248v3.4h-29.1c-0.4,0-0.8,0.4-0.8,0.8v24.9c0,0.4,0.4,0.8,0.8,0.8H248
					v3.4H214.7z M217.5,50.3l-1.6-3.3H248v3.3H217.5z"/>
				<path id="XMLID_1106_" class="st2" d="M284.5,66.7V33.4h33.3v3.4h-29.1c-0.4,0-0.8,0.4-0.8,0.8v24.9c0,0.4,0.4,0.8,0.8,0.8h29.1
					v3.4H284.5z M287.3,50.3l-1.6-3.3h32.1v3.3H287.3z"/>
				<rect id="XMLID_1105_" x="164.6" y="33.4" class="st2" width="3.3" height="33.3"/>
				<path id="XMLID_1104_" class="st2" d="M174.7,66.7v-3.9l27.7-24.7c0.2-0.2,0.3-0.6,0.1-0.9c-0.1-0.3-0.4-0.5-0.7-0.5h-27.2v-3.4
					H208v3.9l-27.5,24.7c-0.2,0.2-0.3,0.6-0.1,0.9c0.1,0.3,0.4,0.5,0.7,0.5H208v3.4H174.7z"/>
				<rect id="XMLID_1103_" x="208" y="46.9" class="st2" width="3.4" height="3.4"/>
				<path id="XMLID_1102_" class="st2" d="M264.5,66.7V51.2c0-0.2-0.1-0.3-0.2-0.5l-14.7-17.3h4l11.8,13.5c0.2,0.2,0.4,0.3,0.6,0.3
					l0,0c0.3,0,0.5-0.1,0.6-0.3l11.8-13.5h4.2l-14.8,17.3c-0.1,0.1-0.2,0.3-0.2,0.5v15.5H264.5z"/>
				<path id="XMLID_1101_" class="st2" d="M154.5,55.5v3.2c0,2.9-1.6,4.4-4.5,4.5h-21.2c-0.4,0-0.8-0.4-0.8-0.8v-25
					c0-0.4,0.4-0.8,0.8-0.8h1.1h20.2c2.9,0,4.5,1.6,4.5,4.6v0.7h3.4V40c-0.3-4.2-2.5-6.4-6.7-6.7h-26.6v33.3h26.6
					c4.2-0.3,6.4-2.5,6.7-6.7v-4.4C158,55.5,154.5,55.5,154.5,55.5z"/>
				<path id="XMLID_1100_" class="st2" d="M151.2,50.4h-19.8V47H150c2.9,0,4.5-1.6,4.5-4.6v-1.1h3.4v2.3
					C157.6,47.9,155.4,50.1,151.2,50.4z"/>
				<path id="XMLID_1099_" class="st2" d="M151.2,47h-19.8v3.4H150c2.9,0,4.5,1.6,4.5,4.6v2.5h3.4v-3.7
					C157.6,49.5,155.4,47.3,151.2,47z"/>
			</g>
		</g>
	</g>
</g>
</svg>
