<?xml version="1.0" encoding="utf-8"?>
<!-- Generator: Adobe Illustrator 19.2.1, SVG Export Plug-In . SVG Version: 6.00 Build 0)  -->
<svg version="1.1" id="Layer_1" xmlns="http://www.w3.org/2000/svg" xmlns:xlink="http://www.w3.org/1999/xlink" x="0px" y="0px"
	 viewBox="0 0 297.8 100" style="enable-background:new 0 0 297.8 100;" xml:space="preserve">
<style type="text/css">
	.st0{fill:#00254B;}
	.st1{fill:#9C9B9B;}
	.st2{fill:#CFD1D2;}
	.st3{fill:#FFFFFF;}
</style>
<g id="XMLID_793_">
	<g id="XMLID_794_">
		<g id="XMLID_795_">
			<g id="XMLID_290_">
				<rect id="XMLID_340_" class="st0" width="100" height="100"/>
				<g id="XMLID_294_">
					<polygon id="XMLID_329_" class="st1" points="70.1,89.9 15.1,35 22,32.7 72.4,83.1 					"/>
					<polygon id="XMLID_307_" class="st2" points="100,0 10.2,30 15.2,35 97.5,7.6 					"/>
					<polygon id="XMLID_306_" class="st3" points="87.5,4.2 64.3,75 72.4,83.1 100,0 					"/>
					<polygon id="XMLID_303_" class="st1" points="81.3,15.3 17.3,37.1 15.2,35 85,11.6 					"/>
					<polygon id="XMLID_300_" class="st2" points="64.2,75 63.3,70.1 84.7,5.1 87.6,4.2 					"/>
					<polygon id="XMLID_297_" class="st3" points="24,34.8 72.3,83.1 73.3,80.1 27,33.8 					"/>
				</g>
			</g>
			<g id="XMLID_90_">
				<path id="XMLID_286_" class="st0" d="M266.4,66.6l3.3-7c0.1-0.3,0.4-0.5,0.7-0.5h15.9l-1.5-3.1h-12.1c-0.3,0-0.5-0.1-0.7-0.4
					c-0.1-0.2-0.2-0.5,0-0.8l7.5-14.8c0.1-0.3,0.4-0.4,0.7-0.4l0,0c0.3,0,0.6,0.2,0.7,0.4l13,26.5h3.9l-16.3-33.1h-2.8l-16.1,33.2
					H266.4z"/>
				<path id="XMLID_118_" class="st0" d="M162.4,66.6V33.3h33.2v3.4h-29.1c-0.4,0-0.8,0.4-0.8,0.8v24.9c0,0.4,0.4,0.8,0.8,0.8h29.1
					v3.4H162.4z M165.3,50.3l-1.6-3.3h32v3.3H165.3z"/>
				<path id="XMLID_98_" class="st0" d="M129.7,66.7v-3.4h18c0.1,0,0.2,0,0.4,0c1.5,0,4-0.6,4.1-4.7V41.1c0-2.9-1.5-4.4-4.3-4.4
					h-21.5c-0.4,0-0.8,0.4-0.8,0.8v29.2h-3.3V33.4h26.6c4.5,0.1,6.6,2.2,6.7,6.5L155.5,60c-0.1,4.4-2.2,6.6-6.7,6.7L129.7,66.7
					L129.7,66.7z"/>
				<polygon id="XMLID_97_" class="st0" points="206,63.3 206,33.3 202.5,33.3 202.5,63.3 202.5,66.2 202.5,66.7 235.8,66.7 
					235.8,63.3 				"/>
				<g id="XMLID_91_">
					<rect id="XMLID_95_" x="247.5" y="33.4" class="st0" width="3.3" height="33.2"/>
					<rect id="XMLID_92_" x="232.6" y="33.4" class="st0" width="33.2" height="3.3"/>
				</g>
			</g>
		</g>
	</g>
</g>
</svg>
