<?xml version="1.0" encoding="utf-8"?>
<!-- Generator: Adobe Illustrator 19.2.1, SVG Export Plug-In . SVG Version: 6.00 Build 0)  -->
<svg version="1.1" id="Layer_1" xmlns="http://www.w3.org/2000/svg" xmlns:xlink="http://www.w3.org/1999/xlink" x="0px" y="0px"
	 viewBox="0 0 312.7 100" style="enable-background:new 0 0 312.7 100;" xml:space="preserve">
<style type="text/css">
	.st0{fill:#EB6608;}
	.st1{fill:#F4F4F4;}
</style>
<g id="XMLID_793_">
	<g id="XMLID_794_">
		<g id="XMLID_795_">
			<g id="XMLID_955_">
				<rect id="XMLID_957_" class="st0" width="102.3" height="100"/>
				<path id="XMLID_956_" class="st1" d="M39,17.5v56c0,3.7,0.2,6.1,0.7,7.3c0.4,0.9,1.1,1.7,2.3,2.3c1.6,0.9,3.3,1.3,5.1,1.3h2.7v2
					H14v-2h2.6c3.1,0,5.3-0.9,6.7-2.6c0.9-1.1,1.3-3.9,1.3-8.3v-47c0-3.7-0.2-6.1-0.7-7.3c-0.4-0.9-1.1-1.7-2.3-2.3
					c-1.6-0.9-3.3-1.3-5.1-1.3h-2.6v-2h74.3v16h-1.8c-1-3.4-2.1-5.9-3.3-7.5c-1.3-1.6-2.8-2.7-4.7-3.5c-1.9-0.7-4.7-1.1-8.6-1.1
					C69.8,17.5,39,17.5,39,17.5z"/>
			</g>
			<g id="XMLID_934_">
				<path id="XMLID_953_" class="st0" d="M163.4,66.6l3.3-7c0.1-0.3,0.4-0.5,0.7-0.5h15.9l-1.5-3.2h-12.1c-0.3,0-0.5-0.1-0.7-0.4
					c-0.1-0.2-0.2-0.5,0-0.8l7.5-14.8c0.1-0.3,0.4-0.4,0.7-0.4l0,0c0.3,0,0.6,0.2,0.7,0.4l13,26.6h3.9l-16.3-33.2h-2.8l-16.2,33.2
					h3.9V66.6z"/>
				<path id="XMLID_952_" class="st0" d="M281.3,66.6l3.3-7c0.1-0.3,0.4-0.5,0.7-0.5h15.9l-1.5-3.2h-12.1c-0.3,0-0.5-0.1-0.7-0.4
					c-0.1-0.2-0.2-0.5,0-0.8l7.5-14.7c0.1-0.3,0.4-0.4,0.7-0.4l0,0c0.3,0,0.6,0.2,0.7,0.4l13,26.6h3.9l-16.3-33.2h-2.8l-16.2,33.2
					H281.3z"/>
				<g id="XMLID_945_">
					<rect id="XMLID_951_" x="196.5" y="33.3" class="st0" width="3.3" height="33.3"/>
					<rect id="XMLID_950_" x="228.6" y="33.3" class="st0" width="3.3" height="33.3"/>
					<g id="XMLID_948_">
						<path id="XMLID_949_" class="st0" d="M199.9,33.3h-0.8v6.4c0.1,0.1,0.1,0.1,0.2,0.2l13,26.6h3.9L199.9,33.3z"/>
					</g>
					<g id="XMLID_946_">
						<path id="XMLID_947_" class="st0" d="M228.6,33.3h0.8v6.4c-0.1,0.1-0.1,0.1-0.2,0.2l-13,26.6h-3.9L228.6,33.3z"/>
					</g>
				</g>
				<g id="XMLID_938_">
					<rect id="XMLID_944_" x="238.7" y="33.3" class="st0" width="3.3" height="33.3"/>
					<rect id="XMLID_943_" x="270.8" y="33.3" class="st0" width="3.3" height="33.3"/>
					<g id="XMLID_941_">
						<path id="XMLID_942_" class="st0" d="M242.1,33.3h-0.8v6.4c0.1,0.1,0.1,0.1,0.2,0.2l13,26.6h3.9L242.1,33.3z"/>
					</g>
					<g id="XMLID_939_">
						<path id="XMLID_940_" class="st0" d="M270.8,33.3h0.8v6.4c-0.1,0.1-0.1,0.1-0.2,0.2l-13,26.6h-3.9L270.8,33.3z"/>
					</g>
				</g>
				<polygon id="XMLID_936_" class="st0" points="140.4,46.9 142,50.3 157.9,50.3 157.9,46.9 				"/>
				<path id="XMLID_935_" class="st0" d="M154.5,46.9v13l0,0l0,0c-0.1,1.2-0.7,3.2-3.9,3.2H132c-2.6,0-4.1-1.5-4.1-4.1V40.8
					c0-2.7,1.5-4.2,4.2-4.2h18.3c2.7,0,4.2,1.5,4.2,4.2v2.7h3.4v-1.7V40c0-4.6-2.1-6.7-6.7-6.7h-20c-4.6,0-6.7,2.1-6.7,6.7v20
					c0,4.6,2.1,6.7,6.6,6.7h20c4.6,0,6.7-2.1,6.7-6.7v-0.4v-1.1V47.3V47L154.5,46.9L154.5,46.9z"/>
			</g>
		</g>
	</g>
</g>
</svg>
