<?xml version="1.0" encoding="utf-8"?>
<!-- Generator: Adobe Illustrator 19.2.1, SVG Export Plug-In . SVG Version: 6.00 Build 0)  -->
<svg version="1.1" id="Layer_1" xmlns="http://www.w3.org/2000/svg" xmlns:xlink="http://www.w3.org/1999/xlink" x="0px" y="0px"
	 viewBox="0 0 132.8 150.1" style="enable-background:new 0 0 132.8 150.1;" xml:space="preserve">
<style type="text/css">
	.st0{fill:url(#XMLID_2_);}
	.st1{fill:url(#XMLID_3_);}
	.st2{fill:url(#XMLID_4_);}
	.st3{fill:url(#XMLID_5_);}
	.st4{fill:url(#XMLID_6_);}
	.st5{fill:url(#XMLID_7_);}
	.st6{fill:url(#XMLID_8_);}
	.st7{fill:url(#XMLID_9_);}
	.st8{fill:url(#XMLID_10_);}
	.st9{fill:url(#XMLID_11_);}
	.st10{fill:url(#XMLID_12_);}
	.st11{fill:url(#XMLID_13_);}
	.st12{fill:url(#XMLID_14_);}
	.st13{fill:url(#XMLID_15_);}
	.st14{fill:url(#XMLID_16_);}
	.st15{fill:url(#XMLID_17_);}
	.st16{fill:url(#XMLID_18_);}
</style>
<g id="XMLID_44_">
	
		<linearGradient id="XMLID_2_" gradientUnits="userSpaceOnUse" x1="107.5917" y1="135.6154" x2="13.1088" y2="14.6194" gradientTransform="matrix(1 0 0 -1 0 150)">
		<stop  offset="0" style="stop-color:#E4DF11"/>
		<stop  offset="0.2793" style="stop-color:#AED256"/>
		<stop  offset="0.5322" style="stop-color:#83C78E"/>
		<stop  offset="0.7195" style="stop-color:#68C0B0"/>
		<stop  offset="0.8207" style="stop-color:#5EBEBD"/>
	</linearGradient>
	<path id="XMLID_112_" class="st0" d="M66.5,0C31,0,2.1,28.2,0.3,63.5c-0.1,1.1-0.1,5.3,0,6.2c0,1,0.1,2,0.2,3
		c0.3-0.8,0.6-1.6,0.9-2.4c0.7-1.7,1.4-3.3,2.2-4.9c9.3-18.6,28.3-31.3,50.3-31.3c31.1,0,56.4,25.5,56.4,57
		c0,11.3-3.3,21.8-8.9,30.7c-0.8,1.2-1.5,2.3-2.4,3.5c-0.1,0.1-0.1,0.1-0.2,0.2c0.1,0,0.2-0.1,0.3-0.2c0.6-0.3,1.1-0.6,1.7-1
		c19.2-11.7,32-33,32-57.3C132.8,30,103.2,0,66.5,0z"/>
	
		<linearGradient id="XMLID_3_" gradientUnits="userSpaceOnUse" x1="111.5062" y1="132.4495" x2="17.0235" y2="11.4536" gradientTransform="matrix(1 0 0 -1 0 150)">
		<stop  offset="0" style="stop-color:#E4DF11"/>
		<stop  offset="0.7577" style="stop-color:#5EBEBD"/>
		<stop  offset="0.9911" style="stop-color:#00ACC6"/>
	</linearGradient>
	<path id="XMLID_111_" class="st1" d="M37.8,130.1c-3.3,0-4.2-3.2-4.2-4.2c0-5.9,0-12.7,0-12.7s0-5.4-5.4-5.4H24c0,0.1,0,0.1,0,0.2
		c1.6,0.4,4.1,1.5,4.1,5.3c0,5.4,0,13.6,0,13.6s0.8,6.1,6.9,6.1c0,0,5.6,0.4,6.8-6C42,126.8,41.1,130.1,37.8,130.1z"/>
	
		<linearGradient id="XMLID_4_" gradientUnits="userSpaceOnUse" x1="119.9379" y1="125.865" x2="25.4554" y2="4.8693" gradientTransform="matrix(1 0 0 -1 0 150)">
		<stop  offset="0" style="stop-color:#E4DF11"/>
		<stop  offset="0.7577" style="stop-color:#5EBEBD"/>
		<stop  offset="0.9911" style="stop-color:#00ACC6"/>
	</linearGradient>
	<path id="XMLID_110_" class="st2" d="M52.3,132.8c0,0-4.9-0.6-4.9-5.4c0-4.8-0.1-14.2-0.1-14.2s-0.1-5.4-5.4-5.4l-4.6,0.1l0,0
		c1.7,0.3,4.6,1.5,4.6,5.4c0,5.4,0,13.6,0,13.6s0.1,6,5.4,6C52.8,132.8,52.3,132.8,52.3,132.8z"/>
	
		<linearGradient id="XMLID_5_" gradientUnits="userSpaceOnUse" x1="135.332" y1="113.8125" x2="40.8493" y2="-7.1833" gradientTransform="matrix(1 0 0 -1 0 150)">
		<stop  offset="0" style="stop-color:#E4DF11"/>
		<stop  offset="0.7577" style="stop-color:#5EBEBD"/>
		<stop  offset="0.9911" style="stop-color:#00ACC6"/>
	</linearGradient>
	<path id="XMLID_109_" class="st3" d="M77.2,132.9c0,0-4.8-0.8-4.9-5.4c0-4.3,0-13.6,0-13.6s-0.8-6.1-6.9-6.1c0,0-5.6-0.4-6.8,6
		c0,0,0.9-3.3,4.1-3.3c2.6,0,3.8,2,4.1,3.4c0,5.4,0,12.9,0,12.9s0.1,6,5.4,6C77.6,133,77.2,132.9,77.2,132.9z"/>
	
		<linearGradient id="XMLID_6_" gradientUnits="userSpaceOnUse" x1="126.9248" y1="120.409" x2="32.4423" y2="-0.5866" gradientTransform="matrix(1 0 0 -1 0 150)">
		<stop  offset="0" style="stop-color:#E4DF11"/>
		<stop  offset="0.7577" style="stop-color:#5EBEBD"/>
		<stop  offset="0.9911" style="stop-color:#00ACC6"/>
	</linearGradient>
	<path id="XMLID_108_" class="st4" d="M63.5,132.8c0,0-4.9-0.6-4.9-5.4c0-4.8-0.1-14.2-0.1-14.2s-0.1-5.4-5.4-5.4l-4.5,0.1l0,0
		c1.7,0.4,4.5,1.5,4.5,5.3c0,5.4,0,13.6,0,13.6s0.1,6,5.4,6C63.9,132.8,63.5,132.8,63.5,132.8z"/>
	
		<linearGradient id="XMLID_7_" gradientUnits="userSpaceOnUse" x1="91.8938" y1="147.5451" x2="-2.482" y2="26.6861" gradientTransform="matrix(1 0 0 -1 0 150)">
		<stop  offset="0" style="stop-color:#E4DF11"/>
		<stop  offset="0.7577" style="stop-color:#5EBEBD"/>
		<stop  offset="0.9911" style="stop-color:#00ACC6"/>
	</linearGradient>
	<path id="XMLID_107_" class="st5" d="M24.4,124.4c0,0-1.6,6.2-8.2,5.1c0,0-4.8-1-5.5-6.2l0.1-35.4c0,0-0.4-5.4-5.4-5.4H0
		c0,0,5.4,0,5.4,5.4c0,5.4-0.1,36.1-0.1,36.1s0.1,8.8,9.6,8.8c0.1,0,0.3,0,0.4,0C15.9,132.8,22.9,132.3,24.4,124.4z"/>
	
		<linearGradient id="XMLID_8_" gradientUnits="userSpaceOnUse" x1="146.1091" y1="105.41" x2="51.6392" y2="-15.5695" gradientTransform="matrix(1 0 0 -1 0 150)">
		<stop  offset="0" style="stop-color:#E4DF11"/>
		<stop  offset="0.7577" style="stop-color:#5EBEBD"/>
		<stop  offset="0.9911" style="stop-color:#00ACC6"/>
	</linearGradient>
	<path id="XMLID_106_" class="st6" d="M89.2,129.7c-6.3-0.3-10-5.9-9.4-11.8c0.2-1.5,0.6-2.8,1.3-4c1.1-1.7,3.1-2.9,5.3-2.7
		c2.7,0.2,5.4,2.6,5.1,6.2c-0.3,3.2-3,4.8-5.7,4.9c0.2,0,0.7,0.2,0.9,0.2c3.8,0.4,7.4-2.1,7.9-6.1l0,0c0.2-1.5,0-3.1-0.8-4.4l0,0
		c0-0.1-0.4-0.7-0.5-0.8l0,0c-0.5-0.7-1.1-1.2-1.7-1.7c-1.6-1.2-3-1.2-3.3-1.3c-7.4-1.3-16.9,5.4-12.8,16.9c1.8,5.2,5.8,6.8,8.3,7.4
		c5.9,1.2,10.2-1.2,13.9-5.4c0.4-0.4,0.9-1.1,1.2-1.7C96.5,128,93.1,129.9,89.2,129.7z"/>
	<g id="XMLID_45_">
		
			<linearGradient id="XMLID_9_" gradientUnits="userSpaceOnUse" x1="0.1768" y1="4.4" x2="100.7457" y2="4.4" gradientTransform="matrix(1 0 0 -1 0 150)">
			<stop  offset="0" style="stop-color:#00ACC6"/>
			<stop  offset="1" style="stop-color:#5EBEBD"/>
		</linearGradient>
		<path id="XMLID_103_" class="st7" d="M5,141.4h2.5c0.4,0,0.8,0,1.1,0.1c0.4,0.1,0.7,0.2,0.9,0.4c0.3,0.2,0.5,0.4,0.7,0.7
			s0.2,0.7,0.2,1.1c0,0.5-0.1,0.8-0.3,1.1s-0.4,0.5-0.7,0.7s-0.6,0.3-0.9,0.4C8.2,146,7.9,146,7.6,146H5.9v3.8h-1L5,141.4L5,141.4z
			 M6,145.2h1.7c0.5,0,0.9-0.1,1.2-0.3s0.5-0.6,0.5-1.1s-0.2-0.8-0.5-1.1c-0.3-0.2-0.7-0.3-1.2-0.3H6V145.2z"/>
		
			<linearGradient id="XMLID_10_" gradientUnits="userSpaceOnUse" x1="0.1768" y1="2.9" x2="100.7464" y2="2.9" gradientTransform="matrix(1 0 0 -1 0 150)">
			<stop  offset="0" style="stop-color:#00ACC6"/>
			<stop  offset="1" style="stop-color:#5EBEBD"/>
		</linearGradient>
		<path id="XMLID_101_" class="st8" d="M16.1,145.6c0-0.3,0-0.5,0-0.7s0-0.4,0-0.6H17c0,0.2,0,0.3,0,0.5s0,0.3,0,0.5l0,0
			c0.1-0.1,0.2-0.3,0.3-0.4c0.1-0.1,0.3-0.2,0.4-0.3c0.2-0.1,0.3-0.2,0.5-0.2c0.2-0.1,0.4-0.1,0.6-0.1c0.1,0,0.1,0,0.2,0
			c0.1,0,0.1,0,0.2,0l-0.1,0.9c-0.2,0-0.3-0.1-0.5-0.1c-0.6,0-1,0.2-1.2,0.6c-0.3,0.4-0.4,0.9-0.4,1.5v2.7h-0.9V145.6z"/>
		
			<linearGradient id="XMLID_11_" gradientUnits="userSpaceOnUse" x1="0.1769" y1="2.9" x2="100.7459" y2="2.9" gradientTransform="matrix(1 0 0 -1 0 150)">
			<stop  offset="0" style="stop-color:#00ACC6"/>
			<stop  offset="1" style="stop-color:#5EBEBD"/>
		</linearGradient>
		<path id="XMLID_98_" class="st9" d="M23.9,147.1c0-0.4,0.1-0.8,0.2-1.2c0.2-0.4,0.4-0.7,0.6-0.9c0.3-0.3,0.6-0.5,0.9-0.6
			c0.4-0.1,0.8-0.2,1.2-0.2s0.8,0.1,1.2,0.2c0.4,0.1,0.7,0.3,0.9,0.6c0.3,0.3,0.5,0.6,0.6,0.9c0.2,0.4,0.2,0.8,0.2,1.2
			s-0.1,0.8-0.2,1.2c-0.2,0.4-0.4,0.7-0.6,0.9c-0.3,0.3-0.6,0.5-0.9,0.6c-0.4,0.1-0.8,0.2-1.2,0.2s-0.8-0.1-1.2-0.2
			c-0.4-0.1-0.7-0.3-0.9-0.6c-0.3-0.3-0.5-0.6-0.6-0.9C24,147.9,23.9,147.5,23.9,147.1z M24.9,147.1c0,0.3,0,0.6,0.1,0.8
			s0.2,0.5,0.4,0.7s0.4,0.3,0.6,0.4c0.2,0.1,0.5,0.2,0.8,0.2s0.6-0.1,0.8-0.2c0.2-0.1,0.4-0.3,0.6-0.4c0.2-0.2,0.3-0.4,0.4-0.7
			c0.1-0.2,0.1-0.5,0.1-0.8s0-0.6-0.1-0.8s-0.2-0.5-0.4-0.7s-0.4-0.3-0.6-0.4c-0.2-0.1-0.5-0.2-0.8-0.2s-0.6,0.1-0.8,0.2
			c-0.2,0.1-0.4,0.3-0.6,0.4c-0.2,0.2-0.3,0.4-0.4,0.7C24.9,146.5,24.9,146.8,24.9,147.1z"/>
		
			<linearGradient id="XMLID_12_" gradientUnits="userSpaceOnUse" x1="0.177" y1="4.55" x2="100.7456" y2="4.55" gradientTransform="matrix(1 0 0 -1 0 150)">
			<stop  offset="0" style="stop-color:#00ACC6"/>
			<stop  offset="1" style="stop-color:#5EBEBD"/>
		</linearGradient>
		<path id="XMLID_95_" class="st10" d="M40,148.9L40,148.9c-0.2,0.3-0.5,0.6-0.8,0.8c-0.4,0.2-0.8,0.3-1.3,0.3
			c-0.4,0-0.8-0.1-1.1-0.2c-0.3-0.1-0.6-0.4-0.9-0.6c-0.2-0.3-0.4-0.6-0.6-0.9s-0.2-0.7-0.2-1.2s0.1-0.8,0.2-1.2
			c0.1-0.4,0.3-0.7,0.6-0.9c0.3-0.3,0.6-0.5,0.9-0.6c0.4-0.1,0.8-0.2,1.2-0.2s0.8,0.1,1.1,0.2c0.3,0.2,0.6,0.4,0.9,0.7l0,0v-4.2h0.9
			v9H40L40,148.9L40,148.9z M40,147.1c0-0.3,0-0.6-0.1-0.8s-0.2-0.5-0.4-0.7s-0.4-0.3-0.6-0.4c-0.2-0.1-0.5-0.2-0.8-0.2
			s-0.6,0.1-0.8,0.2c-0.2,0.1-0.4,0.3-0.6,0.4c-0.2,0.2-0.3,0.4-0.4,0.7c-0.1,0.2-0.1,0.5-0.1,0.8s0,0.6,0.1,0.8s0.2,0.5,0.4,0.7
			s0.4,0.3,0.6,0.4c0.2,0.1,0.5,0.2,0.8,0.2s0.6-0.1,0.8-0.2c0.2-0.1,0.4-0.3,0.6-0.4c0.2-0.2,0.3-0.4,0.4-0.7
			C40,147.6,40,147.4,40,147.1z"/>
		
			<linearGradient id="XMLID_13_" gradientUnits="userSpaceOnUse" x1="0.1766" y1="3.1" x2="100.7465" y2="3.1" gradientTransform="matrix(1 0 0 -1 0 150)">
			<stop  offset="0" style="stop-color:#00ACC6"/>
			<stop  offset="1" style="stop-color:#5EBEBD"/>
		</linearGradient>
		<path id="XMLID_93_" class="st11" d="M51.7,148.5c0,0.3,0,0.5,0,0.7s0,0.4,0,0.6h-0.9c0-0.2,0-0.3,0-0.5s0-0.3,0-0.5l0,0
			c-0.1,0.1-0.2,0.3-0.3,0.4c-0.1,0.1-0.3,0.2-0.4,0.3c-0.2,0.1-0.3,0.2-0.5,0.2c-0.2,0.1-0.4,0.1-0.6,0.1c-0.4,0-0.7-0.1-0.9-0.2
			c-0.3-0.1-0.5-0.3-0.7-0.5s-0.3-0.4-0.4-0.7c-0.1-0.3-0.1-0.6-0.1-0.9v-3.4h0.9v3.3c0,0.5,0.1,0.8,0.3,1.1s0.5,0.4,1,0.4
			c0.3,0,0.6-0.1,0.8-0.2c0.2-0.1,0.4-0.2,0.5-0.4s0.2-0.4,0.3-0.7s0.1-0.6,0.1-0.9V144h0.9L51.7,148.5L51.7,148.5z"/>
		
			<linearGradient id="XMLID_14_" gradientUnits="userSpaceOnUse" x1="0.1764" y1="2.8" x2="100.746" y2="2.8" gradientTransform="matrix(1 0 0 -1 0 150)">
			<stop  offset="0" style="stop-color:#00ACC6"/>
			<stop  offset="1" style="stop-color:#5EBEBD"/>
		</linearGradient>
		<path id="XMLID_91_" class="st12" d="M61.6,145.7c-0.2-0.2-0.4-0.4-0.6-0.5c-0.2-0.1-0.5-0.2-0.8-0.2s-0.6,0.1-0.8,0.2
			c-0.2,0.1-0.4,0.3-0.6,0.4c-0.2,0.2-0.3,0.4-0.4,0.7c-0.1,0.2-0.1,0.5-0.1,0.8s0,0.6,0.1,0.8s0.2,0.5,0.4,0.7s0.4,0.3,0.6,0.4
			c0.2,0.1,0.5,0.2,0.8,0.2c0.6,0,1.1-0.2,1.4-0.7l0.7,0.7c-0.3,0.3-0.6,0.5-1,0.7c-0.4,0.1-0.7,0.2-1.2,0.2c-0.4,0-0.8-0.1-1.2-0.2
			c-0.4-0.1-0.7-0.3-0.9-0.6s-0.4-0.6-0.6-0.9c-0.1-0.4-0.2-0.7-0.2-1.2c0-0.4,0.1-0.8,0.2-1.2c0.1-0.4,0.3-0.7,0.6-0.9
			c0.3-0.3,0.6-0.5,0.9-0.6c0.4-0.1,0.7-0.2,1.2-0.2c0.4,0,0.8,0.1,1.2,0.2c0.4,0.1,0.7,0.4,1,0.7L61.6,145.7z"/>
		
			<linearGradient id="XMLID_15_" gradientUnits="userSpaceOnUse" x1="0.1768" y1="3.6" x2="100.7462" y2="3.6" gradientTransform="matrix(1 0 0 -1 0 150)">
			<stop  offset="0" style="stop-color:#00ACC6"/>
			<stop  offset="1" style="stop-color:#5EBEBD"/>
		</linearGradient>
		<path id="XMLID_89_" class="st13" d="M70.6,145.1H69v2.8c0,0.2,0,0.4,0,0.5c0,0.2,0,0.3,0.1,0.4c0.1,0.1,0.1,0.2,0.2,0.3
			c0.1,0.1,0.3,0.1,0.5,0.1c0.1,0,0.3,0,0.4,0c0.1,0,0.3-0.1,0.4-0.1v0.8c-0.2,0.1-0.3,0.1-0.5,0.2c-0.2,0-0.4,0-0.6,0
			c-0.3,0-0.6,0-0.8-0.1s-0.4-0.2-0.5-0.4S68,149.2,68,149c0-0.2-0.1-0.5-0.1-0.8v-3.1h-1.2v-0.8h1.2v-1.6h0.9v1.6h1.6v0.8H70.6z"/>
		
			<linearGradient id="XMLID_16_" gradientUnits="userSpaceOnUse" x1="0.1766" y1="4.35" x2="100.7462" y2="4.35" gradientTransform="matrix(1 0 0 -1 0 150)">
			<stop  offset="0" style="stop-color:#00ACC6"/>
			<stop  offset="1" style="stop-color:#5EBEBD"/>
		</linearGradient>
		<path id="XMLID_86_" class="st14" d="M75.8,142.1c0-0.2,0.1-0.3,0.2-0.5c0.1-0.1,0.3-0.2,0.5-0.2s0.4,0.1,0.5,0.2
			c0.1,0.1,0.2,0.3,0.2,0.5s-0.1,0.4-0.2,0.5c-0.1,0.1-0.3,0.2-0.5,0.2s-0.4-0.1-0.5-0.2S75.8,142.3,75.8,142.1z M76,144.3h0.9v5.6
			H76V144.3z"/>
		
			<linearGradient id="XMLID_17_" gradientUnits="userSpaceOnUse" x1="0.1761" y1="2.9" x2="100.7459" y2="2.9" gradientTransform="matrix(1 0 0 -1 0 150)">
			<stop  offset="0" style="stop-color:#00ACC6"/>
			<stop  offset="1" style="stop-color:#5EBEBD"/>
		</linearGradient>
		<path id="XMLID_83_" class="st15" d="M82.6,147.1c0-0.4,0.1-0.8,0.2-1.2c0.2-0.4,0.4-0.7,0.6-0.9c0.3-0.3,0.6-0.5,0.9-0.6
			c0.4-0.1,0.8-0.2,1.2-0.2c0.4,0,0.8,0.1,1.2,0.2c0.4,0.1,0.7,0.3,0.9,0.6c0.3,0.3,0.5,0.6,0.6,0.9c0.2,0.4,0.2,0.8,0.2,1.2
			s-0.1,0.8-0.2,1.2c-0.2,0.4-0.4,0.7-0.6,0.9c-0.3,0.3-0.6,0.5-0.9,0.6c-0.4,0.1-0.8,0.2-1.2,0.2c-0.4,0-0.8-0.1-1.2-0.2
			c-0.4-0.1-0.7-0.3-0.9-0.6c-0.3-0.3-0.5-0.6-0.6-0.9C82.7,147.9,82.6,147.5,82.6,147.1z M83.6,147.1c0,0.3,0,0.6,0.1,0.8
			s0.2,0.5,0.4,0.7c0.2,0.2,0.4,0.3,0.6,0.4c0.2,0.1,0.5,0.2,0.8,0.2s0.6-0.1,0.8-0.2c0.2-0.1,0.4-0.3,0.6-0.4
			c0.2-0.2,0.3-0.4,0.4-0.7c0.1-0.2,0.1-0.5,0.1-0.8s0-0.6-0.1-0.8s-0.2-0.5-0.4-0.7c-0.2-0.2-0.4-0.3-0.6-0.4
			c-0.2-0.1-0.5-0.2-0.8-0.2s-0.6,0.1-0.8,0.2c-0.2,0.1-0.4,0.3-0.6,0.4c-0.2,0.2-0.3,0.4-0.4,0.7C83.6,146.5,83.6,146.8,83.6,147.1
			z"/>
		
			<linearGradient id="XMLID_18_" gradientUnits="userSpaceOnUse" x1="0.1767" y1="2.8" x2="100.7466" y2="2.8" gradientTransform="matrix(1 0 0 -1 0 150)">
			<stop  offset="0" style="stop-color:#00ACC6"/>
			<stop  offset="1" style="stop-color:#5EBEBD"/>
		</linearGradient>
		<path id="XMLID_46_" class="st16" d="M94.1,145.6c0-0.3,0-0.5,0-0.7s0-0.4,0-0.6H95c0,0.2,0,0.3,0,0.5s0,0.3,0,0.5l0,0
			c0.1-0.1,0.2-0.3,0.3-0.4c0.1-0.1,0.3-0.2,0.4-0.3c0.2-0.1,0.3-0.2,0.5-0.2c0.2-0.1,0.4-0.1,0.6-0.1c0.4,0,0.7,0.1,0.9,0.2
			c0.3,0.1,0.5,0.3,0.7,0.5s0.3,0.4,0.4,0.7s0.1,0.6,0.1,0.9v3.4H98v-3.3c0-0.5-0.1-0.8-0.3-1.1c-0.2-0.3-0.5-0.4-1-0.4
			c-0.3,0-0.6,0.1-0.8,0.2c-0.2,0.1-0.4,0.2-0.5,0.4s-0.2,0.4-0.3,0.7c-0.1,0.3-0.1,0.6-0.1,0.9v2.7h-0.9L94.1,145.6L94.1,145.6z"/>
	</g>
</g>
</svg>
