<?xml version="1.0" encoding="utf-8"?>
<!-- Generator: Adobe Illustrator 19.2.1, SVG Export Plug-In . SVG Version: 6.00 Build 0)  -->
<svg version="1.1" id="Layer_1" xmlns="http://www.w3.org/2000/svg" xmlns:xlink="http://www.w3.org/1999/xlink" x="0px" y="0px"
	 viewBox="0 0 182.7 150" style="enable-background:new 0 0 182.7 150;" xml:space="preserve">
<style type="text/css">
	.st0{fill:#FDDC00;}
	.st1{fill:#EF9123;}
	.st2{fill:#393C8A;}
	.st3{fill:#9C9B9B;}
</style>
<g id="XMLID_3527_">
	<g id="XMLID_3629_">
		<path id="XMLID_3651_" class="st0" d="M107.2,46c0-8.8-7.1-15.9-15.9-15.9c-8.8,0-15.9,7.1-15.9,15.9s7.1,15.9,15.9,15.9
			C100.1,61.9,107.2,54.8,107.2,46z"/>
		<path id="XMLID_3650_" class="st1" d="M98.9,7.3c0.1,4.1-3.1,7.6-7.2,7.8c16.9,0.2,30.6,14,30.6,31c0,8.4-3.4,16.1-8.9,21.7
			c2.9-2.7,7.4-2.7,10.3,0s3.2,7.1,0.8,10.2c8-8.3,12.8-19.5,12.8-31.9c0-25.1-20.1-45.6-45.2-46C95.9,0.4,98.8,3.5,98.9,7.3z"/>
		<path id="XMLID_3649_" class="st0" d="M83.7,7.8c0.1,4,3.3,7.2,7.3,7.3c0.1,0,0.2,0,0.3,0s0.2,0,0.4,0c4.1-0.2,7.4-3.7,7.2-7.8
			c-0.1-3.8-3-6.9-6.7-7.3c-0.3,0-0.6,0-0.9,0c-0.3,0-0.6,0-0.9,0C86.5,0.5,83.6,3.8,83.7,7.8z"/>
		<path id="XMLID_3630_" class="st2" d="M123.7,67.8c-2.9-2.7-7.4-2.7-10.3,0c-0.1,0.2-0.3,0.3-0.5,0.5c-5.6,5.5-13.2,8.8-21.6,8.8
			c-17.1,0-31-13.9-31-31c0-17,13.7-30.8,30.7-31c-3.9-0.2-7.1-3.3-7.3-7.3c-0.1-4,2.8-7.3,6.6-7.8c-25,0.5-45.1,20.9-45.1,46
			c0,0.5,0,1.1,0,1.6l0,0v68c-0.2,2.2,0.6,4.5,2.4,6.2c3.1,2.9,7.8,2.7,10.7-0.3c1.5-1.6,2.2-3.8,2-5.8V80.2c8.2,7.4,19,12,31,12
			c12.4,0,23.7-4.9,31.9-12.9c0.4-0.4,0.9-0.8,1.3-1.3C126.9,74.9,126.6,70.5,123.7,67.8z"/>
	</g>
	<g id="XMLID_3529_">
		<g id="XMLID_3530_">
			<path id="XMLID_3601_" class="st1" d="M12.5,139.4H15V150h-2.5V139.4z"/>
			<path id="XMLID_3596_" class="st3" d="M43.2,150h-2.5l-7.4-10.6V150h-2.5v-14.9h2.5l7.4,10.6v-10.6h2.5V150z"/>
			<path id="XMLID_3591_" class="st3" d="M54.1,137.4H51V150h-2.5v-12.6h-3.1v-2.3h8.7L54.1,137.4L54.1,137.4z"/>
			<path id="XMLID_3587_" class="st3" d="M73.2,143.8h-2v6.2h-2.5v-14.9h5c0,0,5,0,5,4.3c0,2.4-1.5,3.5-2.9,4l3,6.6h-2.7L73.2,143.8
				z M71.2,141.3h2.5c0,0,2.5,0,2.5-1.9c0-1.8-2.5-1.8-2.5-1.8h-2.5V141.3z"/>
			<path id="XMLID_3585_" class="st3" d="M89,137.4h-3.1V150h-2.5v-12.6h-3.1v-2.3H89L89,137.4L89,137.4z"/>
			<path id="XMLID_3579_" class="st3" d="M102.2,140v10h-2.5v-2.5h-6.2v2.5H91v-10c0-0.1,0-1.3,0.7-2.5c0.7-1.1,2-2.5,4.9-2.5
				s4.2,1.3,4.9,2.5C102.2,138.8,102.2,139.9,102.2,140z M99.7,145v-5c0,0,0-0.7-0.4-1.3c-0.5-0.8-1.4-1.2-2.7-1.2s-2.2,0.4-2.7,1.2
				c-0.3,0.6-0.4,1.2-0.4,1.2v5h6.2V145z"/>
			<path id="XMLID_3575_" class="st3" d="M105.6,135.1h2.5V150h-2.5L105.6,135.1L105.6,135.1z"/>
			<path id="XMLID_3570_" class="st3" d="M124,150h-2.5l-7.4-10.6V150h-2.5v-14.9h2.5l7.4,10.6v-10.6h2.5V150z"/>
			<path id="XMLID_3565_" class="st3" d="M143.5,150H141v-9.2l-4.3,9.2h-2.3l-4.6-9.4v9.4h-2.5v-14.9h2.5l5.7,11.6l5.4-11.6h2.5V150
				H143.5z"/>
			<path id="XMLID_3562_" class="st3" d="M149.4,137.6v3.7h6.2v2.5h-6.2v3.7h7.5v2.5H147v-14.9h9.9v2.5H149.4z"/>
			<path id="XMLID_3559_" class="st3" d="M59.1,137.6v3.7h6.2v2.5h-6.2v3.7h7.5v2.5h-9.9v-14.9h9.9v2.5H59.1z"/>
			<path id="XMLID_3556_" class="st3" d="M171.8,150h-2.5l-7.4-10.6V150h-2.5v-14.9h2.5l7.4,10.6v-10.6h2.5V150z"/>
			<path id="XMLID_3554_" class="st3" d="M182.7,137.4h-3.1V150h-2.5v-12.6H174v-2.3h8.7V137.4z"/>
			<path id="XMLID_3552_" class="st1" d="M20.6,143.8v3.7h7.5v2.5h-9.9v-14.9h9.9v2.5h-7.5v3.7V143.8z"/>
			<path id="XMLID_3551_" class="st1" d="M26.1,142.5c0-1.1-0.9-2.1-2.1-2.1c-1.1,0-2.1,0.9-2.1,2.1c0,1.1,0.9,2.1,2.1,2.1
				C25.1,144.6,26.1,143.7,26.1,142.5z"/>
			<path id="XMLID_3549_" class="st1" d="M5,144.8c-0.6,0-1.2-0.1-1.8-0.4v-2.6c0.3,0.2,0.5,0.3,0.8,0.4c0.3,0.1,0.6,0.1,1.1,0.1
				c0.7,0,1.2-0.2,1.6-0.6c0.4-0.4,0.6-0.9,0.6-1.5s-0.2-1.2-0.6-1.6c-0.4-0.4-0.9-0.7-1.6-0.7c-0.6,0-1.1,0.2-1.5,0.5
				s-0.7,0.8-0.8,1.3V150H0v-10.2c0-1.4,0.5-2.5,1.5-3.4s2.2-1.3,3.6-1.3c1.5,0,2.8,0.5,3.6,1.4c0.9,0.9,1.3,2.1,1.3,3.4
				c0,1.3-0.4,2.4-1.3,3.4C7.8,144.3,6.6,144.8,5,144.8z"/>
			<rect id="XMLID_3548_" x="12.5" y="135.1" class="st1" width="2.5" height="2.5"/>
		</g>
	</g>
</g>
</svg>
