<?xml version="1.0" encoding="utf-8"?>
<!-- Generator: Adobe Illustrator 19.2.1, SVG Export Plug-In . SVG Version: 6.00 Build 0)  -->
<svg version="1.1" id="Layer_1" xmlns="http://www.w3.org/2000/svg" xmlns:xlink="http://www.w3.org/1999/xlink" x="0px" y="0px"
	 viewBox="0 0 316.1 100" style="enable-background:new 0 0 316.1 100;" xml:space="preserve">
<style type="text/css">
	.st0{fill:#D1D6D9;}
	.st1{fill:#90969A;}
	.st2{fill:#FFCF00;}
	.st3{fill:#FFFFFF;}
</style>
<g id="XMLID_793_">
	<g id="XMLID_794_">
		<g id="XMLID_795_">
			<g id="XMLID_807_">
				<g id="XMLID_6180_">
					<g id="XMLID_6181_">
						<g id="XMLID_6182_">
							<g id="XMLID_6183_">
								<g id="XMLID_6190_">
									<polygon id="XMLID_6191_" class="st0" points="95.7,4.3 95.7,0 0,0 0,95.7 10.6,95.7 10.6,4.3 									"/>
								</g>
								<g id="XMLID_6188_">
									<polygon id="XMLID_6189_" class="st0" points="10.6,95.7 10.6,100 106.4,100 106.4,4.3 95.7,4.3 95.7,95.7 									"/>
								</g>
								<g id="XMLID_6186_">
									<rect id="XMLID_6187_" x="26.6" y="21.3" class="st1" width="63.8" height="63.8"/>
								</g>
								<rect id="XMLID_6185_" x="45.2" y="34.6" class="st2" width="39.9" height="39.9"/>
								<rect id="XMLID_6184_" x="58.5" y="46.8" class="st3" width="21.3" height="21.3"/>
							</g>
						</g>
					</g>
				</g>
			</g>
			<g id="XMLID_6169_">
				<path id="XMLID_6179_" class="st1" d="M209.2,66.7l3.3-7c0.1-0.3,0.4-0.5,0.7-0.5h15.9l-1.5-3.2h-12.1c-0.3,0-0.5-0.1-0.7-0.4
					c-0.1-0.2-0.2-0.5,0-0.8l7.5-14.8c0.1-0.3,0.4-0.4,0.7-0.4l0,0c0.3,0,0.6,0.2,0.7,0.4l13,26.6h3.9l-16.3-33.2h-2.8l-16.2,33.2
					h3.9V66.7z"/>
				<path id="XMLID_6176_" class="st1" d="M168.7,66.7V33.4H202v3.4h-29.2c-0.4,0-0.8,0.4-0.8,0.8v25c0,0.4,0.4,0.8,0.8,0.8H202v3.4
					h-33.3V66.7z M171.7,50.3l-1.6-3.3h32v3.3H171.7z"/>
				<path id="XMLID_6175_" class="st1" d="M155.3,50.4c4.6,0,6.7-2.2,6.7-6.8v-3.5c0-4.5-2.1-6.7-6.7-6.7h-26.7v33.3h3.4V50.4h13.3
					l-1.6-3.3H132v-9.5c0-0.4,0.4-0.8,0.8-0.8h21.8c2.6,0,4,1.4,4,4v2.4c0,2.5-1.4,3.9-4,3.9c-0.1,0-0.2,0-0.3,0h-0.9h-2h-3.6h-0.3
					l0,0l1.6,3.3l0,0l8,16.3h3.9l-8-16.3h0.3C153.3,50.4,155.3,50.4,155.3,50.4z"/>
				<g id="XMLID_6170_">
					<path id="XMLID_6174_" class="st1" d="M249,66.6c-2.2,0-3.9-0.5-5-1.6s-1.6-2.8-1.6-5V40.1c0-4.6,2.1-6.7,6.6-6.7h26.7v3.4
						h-25.6c-2.8,0-4.4,1.7-4.4,4.7v17.4c0,1.4,0.4,2.5,1.1,3.2c0.8,0.8,2,1.2,3.5,1.2h25.3v3.4L249,66.6z"/>
					<path id="XMLID_6171_" class="st1" d="M312.7,66.5V51.1c0-0.4-0.4-0.8-0.8-0.8h-27.3l0.1-3.4h27.2c0.4,0,0.8-0.4,0.8-0.8V33.3
						h3.4v33.1h-3.4V66.5z M282.6,66.5V33.4h3.4v12.8c0,0.4,0.4,0.8,0.8,0.8H314l0.1,3.4h-27.3c-0.4,0-0.8,0.4-0.8,0.8v15.4h-3.4
						V66.5z"/>
				</g>
			</g>
		</g>
	</g>
</g>
</svg>
