<?xml version="1.0" encoding="utf-8"?>
<!-- Generator: Adobe Illustrator 19.2.1, SVG Export Plug-In . SVG Version: 6.00 Build 0)  -->
<svg version="1.1" id="Layer_1" xmlns="http://www.w3.org/2000/svg" xmlns:xlink="http://www.w3.org/1999/xlink" x="0px" y="0px"
	 viewBox="0 0 230.5 84.8" style="enable-background:new 0 0 230.5 84.8;" xml:space="preserve">
<style type="text/css">
	.st0{fill:#12100C;}
	.st1{fill:#4B76B9;}
</style>
<g id="XMLID_899_">
	<g id="XMLID_900_">
		<g id="XMLID_447_">
			<path id="XMLID_460_" class="st0" d="M209,25.6v27.5c0,2.2,0.3,4,0.9,5.4s1.4,2.6,2.5,3.4c1,0.8,2.2,1.4,3.5,1.7s2.7,0.5,4.1,0.5
				c2.3,0,4.3-0.3,6-0.9c1.7-0.6,3.2-1.5,4.5-2.6l-1.7-2.7c-1,0.7-1.9,1.3-2.9,1.6c-1,0.4-2,0.5-3,0.5c-1.6,0-2.7-0.5-3.5-1.6
				s-1.2-2.9-1.2-5.3V25.6h10.3v-3.4h-10.2V9.9h-2.8c-0.7,2.9-1.6,5.3-2.6,7.1c-1,1.9-2.3,3.3-3.7,4.2c-1.5,0.9-3.3,1.5-5.4,1.7v2.7
				L209,25.6"/>
			<path id="XMLID_457_" class="st0" d="M173.3,38.9c0.1-2.8,0.4-5.2,1-7.1s1.3-3.4,2.1-4.4c0.9-1.1,1.8-1.9,2.8-2.3
				c1-0.5,2-0.7,3-0.7c1.5,0,2.7,0.4,3.7,1.1s1.8,1.6,2.4,2.7s1,2.3,1.3,3.6c0.3,1.3,0.5,2.6,0.6,3.8c0.1,1.2,0.1,2.3,0.1,3.3H173.3
				 M196.8,52.7c-0.7,1.4-1.6,2.8-2.8,3.9c-1.1,1.2-2.5,2.1-4,2.8s-3.3,1-5.1,1c-1.8,0-3.4-0.4-4.9-1.3c-1.5-0.8-2.8-2.1-3.8-3.6
				c-1.1-1.7-1.8-3.7-2.3-5.9c-0.4-2.2-0.6-4.7-0.6-7.3h26.5c0-1.3-0.1-2.7-0.3-4.2c-0.2-1.5-0.5-3.1-1-4.6c-0.5-1.6-1.1-3.1-2-4.5
				c-0.8-1.5-1.9-2.8-3.2-3.9c-1.3-1.2-2.9-2.1-4.7-2.7c-1.9-0.7-4-1-6.5-1c-2.6,0-4.9,0.4-7,1.1c-2,0.7-3.8,1.8-5.3,3.1
				c-1.5,1.3-2.7,2.8-3.7,4.6c-1,1.7-1.7,3.6-2.2,5.6s-0.7,4-0.7,6.2c0,3.5,0.4,6.5,1.1,9c0.7,2.5,1.7,4.7,3,6.4s2.7,3.1,4.4,4.1
				c1.7,1,3.5,1.7,5.4,2.2c1.9,0.4,3.9,0.7,5.9,0.6c3.6,0,6.8-0.8,9.6-2.5c2.8-1.6,5.1-4.1,6.9-7.5L196.8,52.7z"/>
			<path id="XMLID_456_" class="st0" d="M129.2,28.3l-0.3-6.6l-1.3-0.7c-2,1.1-4,1.9-6.2,2.5c-2.1,0.6-4.3,1.1-6.5,1.4v2.6
				c1.1,0,2.1,0,2.8,0.2c0.7,0.1,1.2,0.4,1.6,0.8c0.4,0.4,0.6,1,0.7,1.9c0.1,0.8,0.2,1.9,0.2,3.3v20.1c0,1.4,0,2.6-0.2,3.4
				c-0.1,0.9-0.3,1.5-0.7,1.9s-0.9,0.7-1.6,0.9c-0.7,0.1-1.6,0.2-2.8,0.2V63h18.4v-2.8c-1,0-1.7,0-2.3-0.2c-0.6-0.1-1-0.4-1.2-0.8
				c-0.3-0.4-0.4-1.1-0.5-1.9c-0.1-0.8-0.1-2-0.1-3.4v-21c1.1-1.5,2.3-2.9,3.4-4c1.2-1.1,2.3-2,3.5-2.6s2.3-0.9,3.4-0.9
				c2.3,0,4,0.7,5.1,2.2s1.6,3.9,1.6,7.1v19.1c0,1.4,0,2.6-0.1,3.5s-0.3,1.5-0.5,1.9c-0.3,0.4-0.7,0.7-1.3,0.8
				c-0.6,0.1-1.3,0.2-2.3,0.2V63h17.7v-2.8c-1.3,0-2.2-0.1-2.8-0.4c-0.6-0.3-1-0.9-1.2-1.8c-0.2-0.9-0.3-2.2-0.2-3.9V34.5
				c0-2.8-0.4-5.3-1.3-7.2c-0.9-2-2.2-3.5-4.1-4.5c-1.9-1.1-4.3-1.6-7.3-1.6c-2.7,0-5.1,0.7-7.4,1.9c-2.3,1.3-4.3,3-6.1,5.3h-0.1"/>
			<path id="XMLID_450_" class="st1" d="M50.5,0.7L49.4,0c-2.2,1.1-4.4,2-6.6,2.6c-2.2,0.6-4.4,1.1-6.6,1.3v2.6
				c1.5,0,2.6,0.1,3.4,0.4c0.7,0.3,1.2,0.9,1.4,1.8s0.3,2.2,0.3,4v41.1c0,1.4,0,2.4-0.1,3.3c-0.1,0.8-0.3,1.5-0.6,1.9
				s-0.8,0.7-1.5,0.9s-1.6,0.2-2.9,0.2v2.8h18.9v-2.8c-1.1,0-1.9-0.1-2.5-0.2c-0.6-0.1-1.1-0.4-1.4-0.9c-0.3-0.4-0.5-1.1-0.6-1.9
				c-0.1-0.8-0.1-1.9-0.1-3.3v-8.2l3.8-4.1L66.9,63h13v-2.8c-0.9,0-1.7-0.1-2.4-0.2c-0.7-0.2-1.4-0.5-2.1-1.1
				c-0.6-0.5-1.3-1.4-1.9-2.5L61,35.8l8.3-8.3c1-1,2.1-1.7,3-2.1c1-0.4,2.1-0.6,3.3-0.5v-2.8H60.8v2.8c1.1,0,2,0.1,2.5,0.3
				c0.5,0.2,0.8,0.5,0.8,0.8s-0.2,0.7-0.5,1.1s-0.8,0.9-1.4,1.5L50.7,40.2h-0.2L50.5,0.7"/>
			<path id="XMLID_449_" class="st1" d="M0,51.6c0.4,1.7,0.7,3.4,1,5s0.5,3.3,0.8,5c1.1,0.5,2.3,0.9,3.7,1.3
				c1.3,0.4,2.8,0.7,4.3,0.9c1.6,0.2,3.3,0.3,5.3,0.3c2.8,0,5.2-0.3,7.3-1c2.1-0.6,3.9-1.5,5.4-2.7c1.5-1.1,2.6-2.5,3.3-4
				c0.8-1.5,1.1-3.1,1.1-4.8c0-2.4-0.9-4.7-2.6-6.7c-1.7-2.1-4.2-3.9-7.5-5.6c-0.7-0.5-1.5-0.9-2.5-1.4s-2-1-3.1-1.5
				c-1-0.5-2-1-2.9-1.5c-1.1-0.7-1.9-1.5-2.5-2.4s-0.9-1.8-0.9-2.8s0.3-1.8,0.8-2.5s1.1-1.2,1.9-1.6c0.8-0.4,1.6-0.7,2.5-0.9
				c0.9-0.2,1.7-0.3,2.5-0.3c1.7,0,3.1,0.2,4.3,0.7s2.1,1.4,2.9,2.6c0.8,1.2,1.4,2.9,1.8,5.1l3-0.6c-0.3-1.4-0.5-2.6-0.7-3.7
				s-0.3-2.1-0.5-3c-0.1-0.9-0.2-1.7-0.4-2.5c-1.4-0.5-3-1-4.9-1.3c-1.9-0.4-4-0.5-6.4-0.5c-2.8,0-5.2,0.3-7.2,0.9s-3.6,1.4-4.9,2.4
				c-1.3,1-2.2,2.1-2.8,3.3c-0.6,1.2-0.9,2.5-0.9,3.9s0.3,2.7,0.8,3.9c0.5,1.1,1.1,2.2,1.9,3.1c0.7,0.8,1.6,1.5,2.5,2.2
				s1.9,1.3,3,1.9s2.2,1.3,3.3,1.9c1.4,0.8,2.6,1.4,3.7,2c1.1,0.6,2,1.1,2.7,1.5c0.8,0.5,1.4,1,1.9,1.5c0.6,0.6,1,1.2,1.2,1.9
				c0.3,0.7,0.4,1.4,0.4,2.3c0,0.7-0.1,1.5-0.4,2.3c-0.3,0.8-0.7,1.6-1.4,2.3s-1.5,1.3-2.6,1.8S15.7,61,14.1,61
				c-1.8,0-3.4-0.3-4.8-0.9c-1.4-0.6-2.6-1.6-3.7-3.1c-1-1.4-1.9-3.4-2.6-5.9L0,51.6"/>
			<path id="XMLID_448_" class="st1" d="M96.8,73.2c-0.4,0.9-0.8,1.8-1.3,2.7s-1.1,1.8-1.7,2.7c-0.6,0.8-1.3,1.5-2,2
				s-1.5,0.8-2.4,0.8c-0.8,0-1.4-0.3-1.9-0.9c-0.5-0.6-0.9-1.3-1.3-2.2c-0.3-0.6-0.6-1.1-1-1.6s-0.8-0.9-1.4-1.1
				c-0.5-0.3-1.2-0.4-2-0.4c-0.5,0-1,0.2-1.4,0.4c-0.4,0.3-0.8,0.7-1.1,1.1c-0.3,0.5-0.4,1-0.4,1.6c0,1.1,0.4,2.1,1.1,3.1
				c0.7,1,1.8,1.8,3.2,2.4c1.4,0.6,3.1,1,5,1c2.1,0,3.9-0.5,5.5-1.4s3-2.3,4.2-4s2.4-3.7,3.4-6.1l15.6-40.4h-4.6l-7.2,19.2h-0.2
				l-9.2-22.4c-0.3-0.7-0.5-1.3-0.7-1.8c-0.1-0.5-0.2-0.9-0.2-1.3c0-0.6,0.3-1.1,0.9-1.3c0.6-0.3,1.5-0.4,2.8-0.4v-2.8H80.2v2.8
				c0.8,0,1.4,0,1.9,0.1s1,0.3,1.3,0.7c0.4,0.4,0.8,0.9,1.2,1.7c0.4,0.8,0.9,1.8,1.5,3.1l14.5,31.9L96.8,73.2"/>
		</g>
	</g>
</g>
</svg>
