<?xml version="1.0" encoding="utf-8"?>
<!-- Generator: Adobe Illustrator 19.2.1, SVG Export Plug-In . SVG Version: 6.00 Build 0)  -->
<svg version="1.1" id="Layer_1" xmlns="http://www.w3.org/2000/svg" xmlns:xlink="http://www.w3.org/1999/xlink" x="0px" y="0px"
	 viewBox="0 0 351.6 100.2" style="enable-background:new 0 0 351.6 100.2;" xml:space="preserve">
<style type="text/css">
	.st0{fill:none;stroke:#221E20;stroke-width:0.3082;stroke-miterlimit:10;}
	.st1{fill:#E20613;}
	.st2{fill:#1D0809;}
	.st3{fill:#FFFFFF;}
	.st4{fill:#BCBCBB;}
</style>
<g id="XMLID_44_">
	<g id="XMLID_45_">
		<g id="XMLID_46_">
			<g id="XMLID_1231_">
				<rect id="XMLID_1237_" x="55.8" y="0.2" class="st0" width="46.4" height="45.5"/>
				<g id="XMLID_1232_">
					<rect id="XMLID_1236_" y="0.2" class="st1" width="46.5" height="45.5"/>
					<rect id="XMLID_1235_" y="54.7" class="st2" width="46.5" height="45.5"/>
					<rect id="XMLID_1234_" x="55.8" y="0.2" class="st3" width="46.4" height="45.5"/>
					<rect id="XMLID_1233_" x="55.8" y="54.7" class="st4" width="46.4" height="45.5"/>
				</g>
			</g>
			<g id="XMLID_1222_">
				<path id="XMLID_1230_" class="st1" d="M124.8,66.8v-3.4h25.3c1.4,0,2.4-0.4,3.1-1.1c0.7-0.7,1.1-1.8,1.1-3.1v-4.7
					c0-1.3-0.3-2.3-1-3s-1.8-1.1-3.2-1.1h-19c-4.6,0-6.7-2.2-6.7-6.8v-3.5c0-4.5,2.1-6.7,6.7-6.7h26.3v3.4h-25.6c-2.6,0-4,1.4-4,3.9
					V43c0,2.6,1.4,4.1,4,4.1H151c4.6,0,6.7,1.9,6.7,6.1V60c0,4.6-2.1,6.7-6.7,6.7h-26.2V66.8z"/>
				<path id="XMLID_1229_" class="st1" d="M211.3,66.8c-4.6,0-6.7-2.1-6.7-6.7V33.5h3.4v25.7c0,2.7,1.5,4.2,4.1,4.2h18.2
					c2.7,0,4.1-1.4,4.1-4V33.5h3.4v26.7c-0.1,4.5-2.3,6.7-6.9,6.7L211.3,66.8L211.3,66.8z"/>
				<path id="XMLID_1228_" class="st1" d="M243.4,66.8l3.3-7c0.1-0.3,0.4-0.5,0.7-0.5h15.9l-1.5-3.1h-12c-0.3,0-0.5-0.1-0.7-0.4
					c-0.1-0.2-0.2-0.5,0-0.8l7.5-14.8c0.1-0.3,0.4-0.4,0.7-0.4l0,0c0.3,0,0.6,0.2,0.7,0.4l13,26.5h3.9l-16.3-33.1h-2.8l-16.1,33.2
					H243.4z"/>
				<path id="XMLID_1225_" class="st1" d="M318.4,66.8V33.5h33.2v3.4h-29.1c-0.4,0-0.8,0.4-0.8,0.8v24.9c0,0.4,0.4,0.8,0.8,0.8h29.1
					v3.4H318.4z M321.2,50.5l-1.6-3.3h32v3.3H321.2z"/>
				<path id="XMLID_1224_" class="st1" d="M304.9,50.5c4.5,0,6.7-2.2,6.7-6.8v-3.5c0-4.5-2.1-6.7-6.7-6.7h-26.6v33.2h3.4V50.4h13.2
					l-1.6-3.3h-11.6v-9.5c0-0.4,0.4-0.8,0.8-0.8h21.8c2.6,0,4,1.4,4,4v2.4c0,2.5-1.4,3.9-4,3.9c-0.1,0-0.2,0-0.3,0h-0.9h-2h-3.6
					h-0.3l0,0l1.6,3.3l0,0l8,16.3h3.9l-8-16.3h0.3h1.9V50.5z"/>
				<path id="XMLID_1223_" class="st1" d="M191.2,33.6h-19.9c-4.6,0-6.7,2.1-6.7,6.7v19.9c0,4.6,2.1,6.7,6.7,6.7h7.2l-1.7-3.4h-4.7
					c-2.7,0-4.2-1.5-4.2-4.1V41.2c0-2.7,1.5-4.1,4.2-4.2h18.2c2.7,0,4.1,1.5,4.1,4.1v18.5c0,3.2-2,3.8-3.2,3.9l0,0l0,0h-6.6
					l-3.3-6.8l0,0h-3.9l5,10.1h7.3h1.1h0.4c4.6,0,6.7-2.1,6.7-6.7v-20C197.9,35.7,195.8,33.6,191.2,33.6z"/>
			</g>
		</g>
	</g>
</g>
</svg>
