<?xml version="1.0" encoding="utf-8"?>
<!-- Generator: Adobe Illustrator 19.0.0, SVG Export Plug-In . SVG Version: 6.00 Build 0)  -->
<svg version="1.1" id="Layer_1" xmlns="http://www.w3.org/2000/svg" xmlns:xlink="http://www.w3.org/1999/xlink" x="0px" y="0px"
	 viewBox="-439 601 400 400" style="enable-background:new -439 601 400 400;" xml:space="preserve">
<style type="text/css">
	.st0{fill:#ED1C24;}
	.st1{fill:#404040;}
</style>
<path class="st0" d="M-91,806V653h-296v296h296v-43h2v45h-300V651h300v155H-91z"/>
<path class="st0" d="M-353.2,888.6v-7.7h9v-3.5h-9v-3.9h9.2V870h-13.2v18.7h4V888.6z"/>
<path class="st0" d="M-333,888.6V870h-4v18.7h4V888.6z"/>
<path class="st0" d="M-308.4,888.6V870h-4v11.7L-321,870h-4.1v18.7h4v-12.2l8.9,12.2h3.8L-308.4,888.6L-308.4,888.6z"/>
<path class="st0" d="M-283.1,888.6l-7.2-18.7h-5l-7.2,18.7h4.5l1.2-3.2h8l1.1,3.2H-283.1z M-289.8,882h-5.8l2.9-8L-289.8,882z"/>
<path class="st0" d="M-260.4,888.6V870h-4v11.7L-273,870h-4.1v18.7h4v-12.2l8.9,12.2h3.8L-260.4,888.6L-260.4,888.6z"/>
<path class="st0" d="M-243.5,889c4.1,0,6.5-2.3,7.8-4.6l-3.4-1.7c-0.8,1.5-2.5,2.7-4.4,2.7c-3.4,0-5.9-2.6-5.9-6.1s2.5-6.1,5.9-6.1
	c1.9,0,3.6,1.2,4.4,2.7l3.4-1.7c-1.3-2.3-3.7-4.6-7.8-4.6c-5.6,0-9.9,3.9-9.9,9.7S-249.1,889-243.5,889z"/>
<path class="st0" d="M-225.1,888.6V870h-4v18.7h4V888.6z"/>
<path class="st0" d="M-199.8,888.6L-207,870h-5l-7.2,18.7h4.5l1.2-3.2h8l1.1,3.2h4.6L-199.8,888.6L-199.8,888.6z M-206.6,882h-5.8
	l2.9-8L-206.6,882z"/>
<path class="st0" d="M-182,888.6v-3.5h-7.9V870h-4v18.7h11.9V888.6z"/>
<path class="st0" d="M-153.5,888.6c3.6,0,5.4-2.2,5.4-5c0-2.4-1.6-4.3-3.6-4.6c1.8-0.4,3.2-1.9,3.2-4.3c0-2.5-1.8-4.8-5.4-4.8h-9.8
	v18.7L-153.5,888.6L-153.5,888.6z M-154.7,877.4h-5v-4.1h5c1.3,0,2.2,0.9,2.2,2C-152.5,876.6-153.3,877.4-154.7,877.4z
	 M-154.5,885.2h-5.1v-4.3h5.1c1.6,0,2.4,1,2.4,2.2C-152.1,884.4-153,885.2-154.5,885.2z"/>
<path class="st0" d="M-123.5,888.6l-7.2-18.7h-5l-7.2,18.7h4.5l1.2-3.2h8l1.1,3.2H-123.5z M-130.2,882h-5.8l2.9-8L-130.2,882z"/>
<path class="st0" d="M-111.1,889c5,0,7.5-2.6,7.5-6c0-7-10.7-5-10.7-8c0-1.1,1-1.9,2.7-1.9c1.9,0,3.9,0.6,5.4,2l2.2-2.9
	c-1.8-1.7-4.3-2.6-7.3-2.6c-4.4,0-7.1,2.6-7.1,5.7c0,7,10.8,4.8,10.8,8.1c0,1.1-1.1,2.1-3.2,2.1c-2.6,0-4.6-1.1-5.9-2.5l-2.2,3
	C-117.3,887.8-114.7,889-111.1,889z"/>
<path class="st0" d="M-83.5,888.6v-3.5h-9.2v-4.2h9v-3.5h-9v-3.9h9.2V870h-13.2v18.7h13.2V888.6z"/>
<path class="st1" d="M-330.6,814.2l-10.5-27.3h-7.3l-10.6,27.3h6.6l1.7-4.6h11.7l1.7,4.6H-330.6z M-340.5,804.4h-8.5l4.3-11.8
	L-340.5,804.4z"/>
<path class="st1" d="M-306.2,814.7c7.4,0,10.9-3.8,10.9-8.8c0-10.2-15.7-7.3-15.7-11.6c0-1.6,1.4-2.7,3.9-2.7c2.8,0,5.7,0.9,8,3
	l3.2-4.3c-2.7-2.5-6.3-3.8-10.7-3.8c-6.4,0-10.4,3.8-10.4,8.3c0,10.3,15.7,7,15.7,11.8c0,1.6-1.6,3-4.8,3c-3.8,0-6.8-1.7-8.7-3.7
	l-3.2,4.4C-315.2,812.9-311.4,814.7-306.2,814.7z"/>
<path class="st1" d="M-278.9,814.2V792h8v-5.1h-21.8v5.1h8v22.2H-278.9z"/>
<path class="st1" d="M-244.2,814.2l-6.2-10.4c3-0.7,6-3.3,6-8.1c0-5.1-3.5-8.8-9.2-8.8h-12.8v27.3h5.8v-9.7h4.3l5.4,9.7H-244.2z
	 M-254.4,799.4h-6.1V792h6.1c2.3,0,4.1,1.4,4.1,3.7C-250.3,798-252.1,799.4-254.4,799.4z"/>
<path class="st1" d="M-226.2,814.7c8.3,0,14.3-5.9,14.3-14.1c0-8.2-6-14.1-14.3-14.1c-8.2,0-14.3,5.9-14.3,14.1
	C-240.5,808.8-234.4,814.7-226.2,814.7z M-226.2,809.5c-5,0-8.3-3.9-8.3-9s3.2-9,8.3-9c5,0,8.3,3.9,8.3,9S-221.2,809.5-226.2,809.5z
	"/>
<path class="st1" d="M-182.5,814.2v-27.3h-5.8V804l-12.7-17.2h-6v27.3h5.8v-17.8l13,17.8h5.7V814.2z"/>
<path class="st1" d="M-163,814.7c5,0,8.9-2,11.6-5.2V799h-13v5.1h7.2v3.3c-1.1,1-3.4,2.1-5.8,2.1c-5,0-8.6-3.8-8.6-9s3.6-9,8.6-9
	c2.9,0,5.2,1.6,6.5,3.6l4.8-2.6c-2.1-3.2-5.6-6.1-11.3-6.1c-8,0-14.6,5.5-14.6,14.1S-171,814.7-163,814.7z"/>
<path class="st1" d="M-111.2,814.2c-1.9-1.9-3.6-3.7-5.3-5.5c1.6-2.1,2.8-4.4,3.8-6.6l-4.2-1.9c-0.5,1.6-1.4,3.5-2.5,5.3
	c-0.7-0.9-1.5-1.8-2.3-2.8c-0.7-0.8-1.6-1.8-2.4-3c3.4-1.6,6.7-3.3,6.7-7.5c0-3.6-3.3-5.8-7.2-5.8c-4.6,0-7.8,2.9-7.8,6.6
	c0,1.8,0.7,3.9,1.8,5.9c-3.1,1.6-5.9,3.7-5.9,7.9c0,5.3,4,7.9,9,7.9c2.9,0,5.4-1,7.5-2.5c0.8,0.8,1.5,1.5,2.1,2H-111.2z
	 M-126.6,810.6c-2.3,0-4.2-1.6-4.2-4.3c0-1.9,0.9-3.2,2.4-4.2c0.9,1.3,1.8,2.5,2.7,3.6c0.7,0.8,1.8,2.1,3,3.5
	C-123.8,810.1-125.2,810.6-126.6,810.6z M-127.1,793.1c0-1.7,1.3-2.9,2.9-2.9c1.4,0,2.4,0.9,2.4,2.3c0,2-1.8,3.2-4.1,4.3
	C-126.6,795.5-127.1,794.2-127.1,793.1z"/>
<path class="st1" d="M-346.4,854.7c7.4,0,10.9-3.8,10.9-8.8c0-10.2-15.7-7.3-15.7-11.6c0-1.6,1.4-2.7,3.9-2.7c2.8,0,5.7,0.9,8,3
	l3.2-4.3c-2.7-2.5-6.3-3.8-10.7-3.8c-6.4,0-10.4,3.8-10.4,8.3c0,10.3,15.7,7,15.7,11.8c0,1.6-1.6,3-4.8,3c-3.8,0-6.8-1.7-8.7-3.7
	l-3.2,4.4C-355.4,852.9-351.6,854.7-346.4,854.7z"/>
<path class="st1" d="M-318.3,854.7c8.3,0,12.3-4.6,12.3-11.4v-16.4h-5.9v16.2c0,3.8-2.2,6.4-6.4,6.4c-4.2,0-6.4-2.6-6.4-6.4v-16.2
	h-5.9v16.4C-330.7,850-326.7,854.7-318.3,854.7z"/>
<path class="st1" d="M-290.1,854.7c7.4,0,10.9-3.8,10.9-8.8c0-10.2-15.7-7.3-15.7-11.6c0-1.6,1.4-2.7,3.9-2.7c2.8,0,5.7,0.9,8,3
	l3.2-4.3c-2.7-2.5-6.3-3.8-10.7-3.8c-6.4,0-10.4,3.8-10.4,8.3c0,10.3,15.7,7,15.7,11.8c0,1.6-1.6,3-4.8,3c-3.8,0-6.8-1.7-8.7-3.7
	l-3.2,4.4C-299.1,852.9-295.3,854.7-290.1,854.7z"/>
<path class="st1" d="M-262.7,854.2V832h8v-5.1h-21.8v5.1h8v22.2H-262.7z"/>
<path class="st1" d="M-227.4,854.2l-10.5-27.3h-7.3l-10.6,27.3h6.6l1.7-4.6h11.7l1.7,4.6H-227.4z M-237.3,844.4h-8.5l4.3-11.8
	L-237.3,844.4z"/>
<path class="st1" d="M-218.2,854.2v-27.3h-5.8v27.3H-218.2z"/>
<path class="st1" d="M-187.5,854.2v-27.3h-5.8V844l-12.7-17.2h-6v27.3h5.8v-17.8l13,17.8h5.7V854.2z"/>
<path class="st1" d="M-155.7,854.2l-10.5-27.3h-7.3l-10.6,27.3h6.6l1.7-4.6h11.7l1.7,4.6H-155.7z M-165.7,844.4h-8.5l4.3-11.8
	L-165.7,844.4z"/>
<path class="st1" d="M-137.5,854.2c5.2,0,8-3.3,8-7.4c0-3.4-2.3-6.3-5.2-6.7c2.6-0.5,4.7-2.8,4.7-6.3c0-3.6-2.7-7-7.9-7h-14.4v27.3
	h14.8L-137.5,854.2L-137.5,854.2z M-139.2,837.8h-7.3v-5.9h7.3c2,0,3.2,1.3,3.2,3C-136.1,836.6-137.3,837.8-139.2,837.8z
	 M-139,849.1h-7.5v-6.4h7.5c2.3,0,3.5,1.5,3.5,3.2C-135.5,848-136.8,849.1-139,849.1z"/>
<path class="st1" d="M-107,854.2v-5.1h-11.6v-22.2h-5.8v27.3L-107,854.2L-107,854.2z"/>
<path class="st1" d="M-82.8,854.2v-5.1h-13.5v-6.2H-83v-5.1h-13.2V832h13.5v-5.1h-19.4v27.3L-82.8,854.2L-82.8,854.2z"/>
<path class="st1" d="M-339.2,751v-1.4h-18v-14.3h17.7v-1.4h-17.7v-13.4h18V719h-19.6v32H-339.2z"/>
<path class="st1" d="M-322.5,751.6c8.6,0,10.9-5.1,10.9-8.7c0-12-19.4-7.2-19.4-16.3c0-3.9,3.7-6.7,8.4-6.7c3.7,0,6.9,1.2,9.2,4.2
	l1.2-1.1c-2.3-2.8-5.7-4.5-10.4-4.5c-5.3,0-10,3-10,8.2c0,10.9,19.4,5.7,19.4,16.3c0,3-1.9,7.2-9.3,7.2c-4.6,0-8-2.4-9.9-4.8
	l-1.2,1.1C-331.4,749.4-327.5,751.6-322.5,751.6z"/>
<path class="st1" d="M-294.5,751v-30.6h10.8V719h-23.2v1.4h10.8V751H-294.5z"/>
<path class="st1" d="M-255.6,751l-13.3-32h-1.8l-13.3,32h1.8l3.6-8.6h17.9l3.6,8.6H-255.6z M-261.5,741h-16.7l8.4-20.2L-261.5,741z"
	/>
<path class="st1" d="M-238.2,751c5.6,0,9.2-3.2,9.2-8.6c0-3.7-2.9-7.3-6.3-7.9c2.8-0.6,5.7-3.3,5.7-7.3c0-5.3-3.6-8.2-8.7-8.2h-12
	v32H-238.2z M-238.3,733.8h-10.5v-13.4h10.5c4.7,0,7.1,3.1,7.1,6.7C-231.3,730.8-233.6,733.8-238.3,733.8z M-238.2,749.6h-10.7
	v-14.3h10.7c5,0,7.5,3.5,7.5,7.2C-230.7,746.8-233.4,749.6-238.2,749.6z"/>
<path class="st1" d="M-204,751v-1.4h-16.1V719h-1.5v32H-204z"/>
<path class="st1" d="M-196.1,751v-32h-1.5v32H-196.1z"/>
<path class="st1" d="M-178.2,751.6c8.6,0,10.9-5.1,10.9-8.7c0-12-19.4-7.2-19.4-16.3c0-3.9,3.7-6.7,8.4-6.7c3.7,0,6.9,1.2,9.2,4.2
	l1.2-1.1c-2.3-2.8-5.7-4.5-10.4-4.5c-5.3,0-10,3-10,8.2c0,10.9,19.4,5.7,19.4,16.3c0,3-1.9,7.2-9.3,7.2c-4.6,0-8-2.4-9.9-4.8
	l-1.2,1.1C-187,749.4-183.1,751.6-178.2,751.6z"/>
<path class="st1" d="M-135.1,751v-32h-1.5v14.8h-21.8V719h-1.5v32h1.5v-15.7h21.8V751H-135.1z"/>
</svg>
