<?xml version="1.0" encoding="utf-8"?>
<!-- Generator: Adobe Illustrator 19.0.0, SVG Export Plug-In . SVG Version: 6.00 Build 0)  -->
<svg version="1.1" id="Layer_1" xmlns="http://www.w3.org/2000/svg" xmlns:xlink="http://www.w3.org/1999/xlink" x="0px" y="0px"
	 viewBox="-439 601 400 400" style="enable-background:new -439 601 400 400;" xml:space="preserve">
<style type="text/css">
	.st0{fill:#ED1C24;}
	.st1{fill:#404040;}
</style>
<path id="XMLID_155_" class="st0" d="M-91,806V653h-296v296h296v-43h2v45h-300V651h300v155H-91z"/>
<path id="XMLID_153_" class="st0" d="M-340.4,889.3v-18.7h-4v7.3h-8.8v-7.3h-4v18.7h4v-7.8h8.8v7.8H-340.4z"/>
<path id="XMLID_151_" class="st0" d="M-328.3,889.7c5.7,0,8.4-3.2,8.4-7.8v-11.2h-4.1v11.1c0,2.6-1.5,4.4-4.4,4.4s-4.4-1.8-4.4-4.4
	v-11.1h-4v11.2C-336.7,886.5-333.9,889.7-328.3,889.7z"/>
<path id="XMLID_149_" class="st0" d="M-295.9,889.3v-18.7h-5.6l-4.5,11.3l-4.5-11.3h-5.6v18.7h4v-13.1l5.3,13.1h1.7l5.3-13.1v13.1
	H-295.9z"/>
<path id="XMLID_146_" class="st0" d="M-274.8,889.3l-7.2-18.7h-5l-7.2,18.7h4.5l1.2-3.2h8l1.1,3.2H-274.8z M-281.6,882.7h-5.8l2.9-8
	L-281.6,882.7z"/>
<path id="XMLID_144_" class="st0" d="M-256.4,889.3v-18.7h-4v11.7l-8.7-11.7h-4.1v18.7h4v-12.2l8.9,12.2H-256.4z"/>
<path id="XMLID_141_" class="st0" d="M-230.4,889.3l-4.2-7.1c2-0.5,4.1-2.2,4.1-5.5c0-3.5-2.4-6-6.3-6h-8.7v18.7h4v-6.6h2.9l3.7,6.6
	h4.5V889.3z M-237.3,879.2h-4.2v-5h4.2c1.6,0,2.8,1,2.8,2.5S-235.7,879.2-237.3,879.2z"/>
<path id="XMLID_139_" class="st0" d="M-214.3,889.3v-3.5h-9.2v-4.2h9v-3.5h-9v-3.9h9.2v-3.5h-13.2v18.7h13.2V889.3z"/>
<path id="XMLID_137_" class="st0" d="M-204.5,889.7c5,0,7.5-2.6,7.5-6c0-7-10.7-5-10.7-8c0-1.1,1-1.9,2.7-1.9c1.9,0,3.9,0.6,5.4,2
	l2.2-2.9c-1.8-1.7-4.3-2.6-7.3-2.6c-4.4,0-7.1,2.6-7.1,5.7c0,7,10.8,4.8,10.8,8.1c0,1.1-1.1,2.1-3.2,2.1c-2.6,0-4.6-1.1-5.9-2.5
	l-2.2,3C-210.7,888.5-208.1,889.7-204.5,889.7z"/>
<path id="XMLID_134_" class="st0" d="M-185.5,889.7c5.7,0,9.8-4,9.8-9.7c0-5.6-4.1-9.7-9.8-9.7c-5.6,0-9.7,4-9.7,9.7
	C-195.3,885.6-191.1,889.7-185.5,889.7z M-185.5,886.1c-3.4,0-5.7-2.7-5.7-6.1c0-3.5,2.2-6.1,5.7-6.1c3.4,0,5.7,2.6,5.7,6.1
	S-182.1,886.1-185.5,886.1z"/>
<path id="XMLID_132_" class="st0" d="M-164.5,889.7c5.7,0,8.4-3.2,8.4-7.8v-11.2h-4.1v11.1c0,2.6-1.5,4.4-4.4,4.4s-4.4-1.8-4.4-4.4
	v-11.1h-4v11.2C-172.9,886.5-170.2,889.7-164.5,889.7z"/>
<path id="XMLID_129_" class="st0" d="M-137.3,889.3l-4.2-7.1c2-0.5,4.1-2.2,4.1-5.5c0-3.5-2.4-6-6.3-6h-8.7v18.7h4v-6.6h2.9l3.7,6.6
	h4.5V889.3z M-144.3,879.2h-4.2v-5h4.2c1.6,0,2.8,1,2.8,2.5S-142.7,879.2-144.3,879.2z"/>
<path id="XMLID_127_" class="st0" d="M-125.4,889.7c4.1,0,6.5-2.3,7.8-4.6l-3.4-1.7c-0.8,1.5-2.5,2.7-4.4,2.7
	c-3.4,0-5.9-2.6-5.9-6.1s2.5-6.1,5.9-6.1c1.9,0,3.6,1.2,4.4,2.7l3.4-1.7c-1.3-2.3-3.7-4.6-7.8-4.6c-5.6,0-9.9,3.9-9.9,9.7
	C-135.3,885.8-131,889.7-125.4,889.7z"/>
<path id="XMLID_125_" class="st0" d="M-102,889.3v-3.5h-9.2v-4.2h9v-3.5h-9v-3.9h9.2v-3.5h-13.2v18.7h13.2V889.3z"/>
<path id="XMLID_123_" class="st0" d="M-92.2,889.7c5,0,7.5-2.6,7.5-6c0-7-10.7-5-10.7-8c0-1.1,1-1.9,2.7-1.9c1.9,0,3.9,0.6,5.4,2
	l2.2-2.9c-1.8-1.7-4.3-2.6-7.3-2.6c-4.4,0-7.1,2.6-7.1,5.7c0,7,10.8,4.8,10.8,8.1c0,1.1-1.1,2.1-3.2,2.1c-2.6,0-4.6-1.1-5.9-2.5
	l-2.2,3C-98.4,888.5-95.8,889.7-92.2,889.7z"/>
<path id="XMLID_121_" class="st0" d="M-333.2,857.2v-6H-349V844h15.5v-6H-349v-6.8h15.8v-6h-22.6v32H-333.2z"/>
<path id="XMLID_119_" class="st0" d="M-296.4,857.2l-11.6-16.5l10.9-15.6h-8.2l-7.2,10.9l-7.3-10.9h-8.2l10.9,15.6l-11.6,16.4h8.1
	l8.1-11.7l8,11.7h8.1L-296.4,857.2L-296.4,857.2z"/>
<path id="XMLID_117_" class="st0" d="M-276.9,857.8c7.1,0,11.1-3.9,13.4-7.9l-5.9-2.8c-1.3,2.6-4.2,4.7-7.5,4.7
	c-5.8,0-10-4.5-10-10.5s4.2-10.5,10-10.5c3.3,0,6.2,2.1,7.5,4.7l5.9-2.9c-2.3-4-6.3-7.8-13.4-7.8c-9.6,0-17,6.7-17,16.6
	C-294,851-286.5,857.8-276.9,857.8z"/>
<path id="XMLID_115_" class="st0" d="M-234.4,857.2v-6h-15.8V844h15.5v-6h-15.5v-6.8h15.8v-6H-257v32H-234.4z"/>
<path id="XMLID_113_" class="st0" d="M-206.3,857.2v-6h-13.5v-26h-6.8v32H-206.3z"/>
<path id="XMLID_111_" class="st0" d="M-178.8,857.2v-6h-13.5v-26h-6.8v32H-178.8z"/>
<path id="XMLID_109_" class="st0" d="M-149,857.2v-6h-15.8V844h15.5v-6h-15.5v-6.8h15.8v-6h-22.7v32H-149z"/>
<path id="XMLID_107_" class="st0" d="M-112.6,857.2v-32h-6.8v20.1l-14.8-20.1h-7v32h6.8v-20.9l15.3,20.9H-112.6z"/>
<path id="XMLID_105_" class="st0" d="M-89.6,857.2v-26h9.3v-6h-25.5v6h9.4v26H-89.6z"/>
<path id="XMLID_102_" class="st1" d="M-329.5,751l-13.3-32h-1.8l-13.4,32h1.8l3.6-8.6h17.9l3.6,8.6H-329.5z M-335.4,741h-16.7
	l8.4-20.2L-335.4,741z"/>
<path id="XMLID_100_" class="st1" d="M-317.7,751v-30.6h10.8V719H-330v1.4h10.8V751H-317.7z"/>
<path id="XMLID_98_" class="st1" d="M-290.8,751v-30.6h10.8V719h-23.2v1.4h10.8V751H-290.8z"/>
<path id="XMLID_95_" class="st1" d="M-253,751l-9.9-13.8c5.2,0,9.5-3.3,9.5-9.1c0-5.9-4.3-9.1-9.5-9.1h-11v32h1.5v-13.8h7.7
	l9.7,13.8H-253z M-262.9,735.7h-9.5v-15.3h9.5c4.7,0,7.8,3.2,7.8,7.6C-255.1,732.4-258.2,735.7-262.9,735.7z"/>
<path id="XMLID_92_" class="st1" d="M-220.9,751l-13.3-32h-1.8l-13.3,32h1.8l3.6-8.6h17.9l3.6,8.6H-220.9z M-226.8,741h-16.7
	l8.4-20.2L-226.8,741z"/>
<path id="XMLID_90_" class="st1" d="M-202.7,751.6c4.5,0,8.2-1.7,11.2-5.1l-1.2-1c-2.3,2.8-6,4.7-9.9,4.7c-8,0-14.3-6.2-14.3-15.1
	c0-9,6.3-15.1,14.3-15.1c4,0,7.7,1.8,9.9,4.7l1.2-1.1c-2.8-3.3-6.6-5-11.1-5c-8.9,0-16,6.7-16,16.6
	C-218.6,744.9-211.5,751.6-202.7,751.6z"/>
<path id="XMLID_88_" class="st1" d="M-175.6,751v-30.6h10.8V719H-188v1.4h10.8V751H-175.6z"/>
<path id="XMLID_84_" class="st1" d="M-330.6,801c-2.4-2-4.3-3.8-6.1-5.6c2-2.9,3.2-6.3,4.1-8.8l-1.5-0.6c-0.5,1.6-1.7,5.1-3.8,8.2
	c-1.6-1.6-3.1-3.2-4.8-5.1c-1.2-1.3-3-3.4-4.5-5.5c4.1-2.3,8.4-4.5,8.4-9.2c0-3.8-2.4-5.9-6.2-5.9c-3.9,0-7.2,3-7.2,7.2
	c0,2.3,1.2,4.9,2.8,7.4c-3.7,2.1-7.2,4.7-7.2,9.8c0,5.7,4.3,8.6,9.4,8.6c4.3,0,7.3-2.1,9.6-4.8c1.7,1.6,3.4,3.2,4.6,4.3H-330.6
	L-330.6,801z M-347.3,800.1c-4,0-7.7-2.4-7.7-7.2c0-4.3,3-6.6,6.4-8.6c1.4,2,3.1,4,4.7,5.8c1,1.2,2.9,3.2,5,5.4
	C-341,798.1-343.8,800.1-347.3,800.1z M-350.6,775.7c0-3.4,2.5-5.8,5.5-5.8c2.6,0,4.6,1.5,4.6,4.4c0,4-3.7,5.9-7.5,8
	C-349.5,780.1-350.6,777.8-350.6,775.7z"/>
<path id="XMLID_81_" class="st1" d="M-302.2,801c9.9,0,15.9-7.3,15.9-16c0-8.5-6-16-15.9-16h-9.5v32H-302.2z M-302.2,799.6h-8v-29.1
	h8c9.1,0,14.3,6.6,14.3,14.6C-288,793.1-293.1,799.6-302.2,799.6z"/>
<path id="XMLID_79_" class="st1" d="M-259.3,801v-1.4h-18v-14.3h17.7v-1.4h-17.7v-13.4h18V769h-19.6v32H-259.3z"/>
<path id="XMLID_77_" class="st1" d="M-240.2,801l13.3-32h-1.8l-12.5,30.2l-12.3-30.2h-1.8l13.3,32H-240.2z"/>
<path id="XMLID_75_" class="st1" d="M-202,801v-1.4h-18v-14.3h17.7v-1.4H-220v-13.4h18V769h-19.6v32H-202z"/>
<path id="XMLID_73_" class="st1" d="M-177.2,801v-1.4h-16.1V769h-1.5v32H-177.2z"/>
<path id="XMLID_70_" class="st1" d="M-158.6,801.6c9.3,0,15.2-7.3,15.2-16.6s-6-16.6-15.2-16.6c-9.3,0-15.2,7.3-15.2,16.6
	S-168,801.6-158.6,801.6z M-158.6,800.1c-8.3,0-13.5-6.4-13.5-15.1c0-8.8,5.2-15.1,13.5-15.1c8.2,0,13.5,6.3,13.5,15.1
	C-145.1,793.7-150.4,800.1-158.6,800.1z"/>
<path id="XMLID_67_" class="st1" d="M-134.6,801v-13.9h9.6c5.9,0,9.4-4.2,9.4-9.1s-3.4-9.1-9.4-9.1h-11.1v32L-134.6,801L-134.6,801z
	 M-125,785.7h-9.5v-15.3h9.5c4.7,0,7.7,3.2,7.7,7.6C-117.3,782.4-120.3,785.7-125,785.7z"/>
</svg>
