<?xml version="1.0" encoding="utf-8"?>
<!-- Generator: Adobe Illustrator 19.0.0, SVG Export Plug-In . SVG Version: 6.00 Build 0)  -->
<svg version="1.1" id="Layer_1" xmlns="http://www.w3.org/2000/svg" xmlns:xlink="http://www.w3.org/1999/xlink" x="0px" y="0px"
	 viewBox="-439 601 400 400" style="enable-background:new -439 601 400 400;" xml:space="preserve">
<style type="text/css">
	.st0{fill:#ED1C24;}
	.st1{fill:#404040;}
</style>
<g id="Layer_1_1_">
</g>
<g id="Layer_2">
	<path class="st0" d="M-91,691v-38h-296v296h296V761h2v190h-300V651h300v40H-91z"/>
	<path class="st1" d="M-346.6,788.1c4.7,0,7.4-2.6,8.9-5.2l-3.9-1.9c-0.9,1.8-2.8,3.1-5,3.1c-3.9,0-6.7-3-6.7-7s2.8-7,6.7-7
		c2.2,0,4.1,1.4,5,3.1l3.9-1.9c-1.5-2.7-4.2-5.2-8.9-5.2c-6.4,0-11.4,4.5-11.4,11C-357.9,783.6-353,788.1-346.6,788.1z"/>
	<path class="st1" d="M-319.7,787.7v-4h-9v-17.3h-4.5v21.3H-319.7z"/>
	<path class="st1" d="M-310.4,787.7v-21.3h-4.5v21.3H-310.4z"/>
	<path class="st1" d="M-289.5,787.7v-4h-10.6v-4.8h10.3v-4h-10.3v-4.5h10.6v-4h-15.1v21.3H-289.5z"/>
	<path class="st1" d="M-265.2,787.7v-21.3h-4.5v13.4l-9.9-13.4h-4.7v21.3h4.5v-13.9l10.2,13.9H-265.2z"/>
	<path class="st1" d="M-249.9,787.7v-17.3h6.2v-4h-17v4h6.2v17.3H-249.9z"/>
	<path class="st1" d="M-341.8,827.7v-4h-10.6v-4.8h10.3v-4h-10.3v-4.5h10.6v-4h-15.1v21.3H-341.8z"/>
	<path class="st1" d="M-313.5,827.7v-21.3h-6.4l-5.2,12.9l-5.2-12.9h-6.4v21.3h4.5v-14.9l6,14.9h2l6-14.9v14.9H-313.5z"/>
	<path class="st1" d="M-303.1,827.7v-7.6h5.4c4.6,0,7.2-3.2,7.2-6.9s-2.5-6.9-7.2-6.9h-10v21.3h4.6V827.7z M-298.3,816.1h-4.8v-5.8
		h4.8c1.8,0,3.1,1.1,3.1,2.9C-295.2,815-296.5,816.1-298.3,816.1z"/>
	<path class="st1" d="M-272.5,827.7v-4h-9v-17.3h-4.5v21.3H-272.5z"/>
	<path class="st1" d="M-258.5,828.1c6.5,0,11.2-4.6,11.2-11c0-6.4-4.7-11-11.2-11c-6.4,0-11.1,4.6-11.1,11
		C-269.7,823.4-265,828.1-258.5,828.1z M-258.5,824c-3.9,0-6.5-3-6.5-7s2.5-7,6.5-7c3.9,0,6.5,3,6.5,7S-254.6,824-258.5,824z"/>
	<path class="st1" d="M-233.3,827.7V819l8.2-12.6h-5.2l-5.2,8.6l-5.3-8.6h-5.2l8.2,12.6v8.7H-233.3z"/>
	<path class="st1" d="M-206.5,827.7v-4H-217v-4.8h10.3v-4H-217v-4.5h10.6v-4h-15.1v21.3H-206.5z"/>
	<path class="st1" d="M-186.2,827.7v-4h-10.6v-4.8h10.3v-4h-10.3v-4.5h10.6v-4h-15.1v21.3H-186.2z"/>
	<path class="st1" d="M-349.3,868.1c5.8,0,8.5-2.9,8.5-6.8c0-8-12.3-5.7-12.3-9.1c0-1.3,1.1-2.1,3-2.1c2.2,0,4.5,0.7,6.2,2.3
		l2.5-3.3c-2.1-2-4.9-3-8.3-3c-5,0-8.1,2.9-8.1,6.5c0,8,12.3,5.4,12.3,9.2c0,1.2-1.2,2.4-3.7,2.4c-2.9,0-5.3-1.3-6.8-2.9l-2.5,3.5
		C-356.3,866.7-353.4,868.1-349.3,868.1z"/>
	<path class="st1" d="M-316.9,867.7v-21.3h-4.6v8.4h-10.1v-8.4h-4.5v21.3h4.5v-9h10.1v9H-316.9z"/>
	<path class="st1" d="M-291.2,867.7l-8.2-21.3h-5.7l-8.3,21.3h5.2l1.3-3.6h9.2l1.3,3.6H-291.2z M-298.9,860.1h-6.7l3.3-9.2
		L-298.9,860.1z"/>
	<path class="st1" d="M-270.3,867.7l-4.8-8.1c2.3-0.5,4.7-2.6,4.7-6.3c0-4-2.7-6.9-7.2-6.9h-10v21.3h4.5v-7.6h3.3l4.2,7.6H-270.3z
		 M-278.3,856.1h-4.8v-5.8h4.8c1.8,0,3.2,1.1,3.2,2.9C-275.1,855-276.5,856.1-278.3,856.1z"/>
	<path class="st1" d="M-250.3,867.7v-4h-10.6v-4.8h10.3v-4h-10.3v-4.5h10.6v-4h-15.1v21.3H-250.3z"/>
	<path class="st1" d="M-226,867.7v-21.3h-4.6v8.4h-10.1v-8.4h-4.5v21.3h4.5v-9h10.1v9H-226z"/>
	<path class="st1" d="M-210.1,868.1c6.5,0,11.2-4.6,11.2-11c0-6.4-4.7-11-11.2-11c-6.4,0-11.1,4.6-11.1,11
		C-221.2,863.4-216.5,868.1-210.1,868.1z M-210.1,864c-3.9,0-6.5-3-6.5-7s2.5-7,6.5-7s6.5,3,6.5,7S-206.1,864-210.1,864z"/>
	<path class="st1" d="M-180.5,867.7v-4h-9v-17.3h-4.5v21.3H-180.5z"/>
	<path class="st1" d="M-167.4,867.7c6.7,0,11.3-4.2,11.3-10.7c0-6.4-4.6-10.7-11.3-10.7h-8.4v21.3h8.4V867.7z M-167.4,863.7h-3.9
		v-13.3h3.9c4.4,0,6.7,2.9,6.7,6.7C-160.7,860.6-163.1,863.7-167.4,863.7z"/>
	<path class="st1" d="M-136.1,867.7v-4h-10.6v-4.8h10.3v-4h-10.3v-4.5h10.6v-4h-15.1v21.3H-136.1z"/>
	<path class="st1" d="M-113.7,867.7l-4.8-8.1c2.3-0.5,4.7-2.6,4.7-6.3c0-4-2.7-6.9-7.2-6.9h-10v21.3h4.5v-7.6h3.3l4.2,7.6H-113.7z
		 M-121.6,856.1h-4.8v-5.8h4.8c1.8,0,3.2,1.1,3.2,2.9S-119.8,856.1-121.6,856.1z"/>
	<path class="st1" d="M-349.3,908.1c5.8,0,8.5-2.9,8.5-6.8c0-8-12.3-5.7-12.3-9.1c0-1.3,1.1-2.1,3-2.1c2.2,0,4.5,0.7,6.2,2.3
		l2.5-3.3c-2.1-2-4.9-3-8.3-3c-5,0-8.1,2.9-8.1,6.5c0,8,12.3,5.4,12.3,9.2c0,1.2-1.2,2.4-3.7,2.4c-2.9,0-5.3-1.3-6.8-2.9l-2.5,3.5
		C-356.3,906.7-353.4,908.1-349.3,908.1z"/>
	<path class="st1" d="M-326,908.1c6.5,0,11.2-4.6,11.2-11c0-6.4-4.7-11-11.2-11c-6.4,0-11.1,4.6-11.1,11
		C-337.1,903.4-332.4,908.1-326,908.1z M-326,904c-3.9,0-6.5-3-6.5-7s2.5-7,6.5-7s6.5,3,6.5,7S-322,904-326,904z"/>
	<path class="st1" d="M-299.7,908.1c4.7,0,7.4-2.6,8.9-5.2l-3.9-1.9c-0.9,1.8-2.8,3.1-5,3.1c-3.9,0-6.7-3-6.7-7s2.8-7,6.7-7
		c2.2,0,4.1,1.4,5,3.1l3.9-1.9c-1.5-2.7-4.2-5.2-8.9-5.2c-6.4,0-11.4,4.5-11.4,11C-311,903.6-306.1,908.1-299.7,908.1z"/>
	<path class="st1" d="M-281.9,907.7v-21.3h-4.5v21.3H-281.9z"/>
	<path class="st1" d="M-261,907.7v-4h-10.6v-4.8h10.3v-4h-10.3v-4.5h10.6v-4h-15.1v21.3H-261z"/>
	<path class="st1" d="M-246.3,907.7v-17.3h6.2v-4h-17v4h6.2v17.3H-246.3z"/>
	<path class="st1" d="M-225.1,907.7V899l8.2-12.6h-5.2l-5.2,8.6l-5.3-8.6h-5.2l8.2,12.6v8.7H-225.1z"/>
	<path class="st1" d="M-350,737.7c3.7,0,6.1-2.1,6.1-5.8c0-2.5-1.9-4.9-4.2-5.2c1.9-0.4,3.8-2.2,3.8-4.9c0-3.5-2.4-5.4-5.8-5.4h-8
		v21.3H-350z M-350.2,726.2h-7v-8.9h7c3.1,0,4.7,2,4.7,4.5C-345.5,724.2-347,726.2-350.2,726.2z M-350,736.7h-7.1v-9.5h7.1
		c3.3,0,5,2.3,5,4.8C-345,734.9-346.9,736.7-350,736.7z"/>
	<path class="st1" d="M-325,737.7l-6.6-9.2c3.5,0,6.3-2.2,6.3-6.1c0-3.9-2.8-6-6.3-6h-7.4v21.3h1v-9.2h5.1l6.5,9.2L-325,737.7
		L-325,737.7z M-331.6,727.5h-6.3v-10.2h6.3c3.1,0,5.2,2.1,5.2,5.1C-326.4,725.3-328.5,727.5-331.6,727.5z"/>
	<path class="st1" d="M-319.4,737.7v-21.3h-1v21.3H-319.4z"/>
	<path class="st1" d="M-297.4,737.7v-21.3h-1v19.5l-14.4-19.5h-1v21.3h1V718l14.4,19.7H-297.4z"/>
	<path class="st1" d="M-281.8,738.1c3.2,0,6-1.4,7.8-3.4v-7.2h-9.8v1h8.8v5.9c-1.2,1.3-3.6,2.9-6.8,2.9c-5.3,0-9.5-4.2-9.5-10.1
		c0-6,4.2-10.1,9.5-10.1c2.8,0,5.5,1.2,7.1,3l0.7-0.7c-2.1-2.1-4.6-3.3-7.8-3.3c-5.9,0-10.7,4.5-10.7,11
		C-292.5,733.6-287.7,738.1-281.8,738.1z"/>
	<path class="st0" d="M-250,737.7c4.1,0,6.2-2.6,6.2-5.8c0-2.7-1.8-4.9-4.1-5.2c2-0.4,3.7-2.2,3.7-4.9c0-2.8-2.1-5.4-6.1-5.4h-11.2
		v21.3H-250z M-251.3,724.9h-5.7v-4.6h5.7c1.5,0,2.5,1,2.5,2.3C-248.8,723.9-249.8,724.9-251.3,724.9z M-251.2,733.7h-5.9v-5h5.9
		c1.8,0,2.8,1.2,2.8,2.5C-248.4,732.8-249.5,733.7-251.2,733.7z"/>
	<path class="st0" d="M-225.3,737.7v-4h-10.6v-4.8h10.3v-4h-10.3v-4.5h10.6v-4h-15.1v21.3H-225.3z"/>
	<path class="st0" d="M-202.6,737.7v-21.3h-4.5v13.4l-9.9-13.4h-4.7v21.3h4.5v-13.9l10.2,13.9H-202.6z"/>
	<path class="st0" d="M-183.3,737.7v-4h-10.6v-4.8h10.3v-4h-10.3v-4.5h10.6v-4h-15.1v21.3H-183.3z"/>
	<path class="st0" d="M-175.2,737.7v-8.8h10.3v-4h-10.3v-4.5h10.6v-4h-15.1v21.3H-175.2z"/>
	<path class="st0" d="M-156.9,737.7v-21.3h-4.5v21.3H-156.9z"/>
	<path class="st0" d="M-143.2,737.7v-17.3h6.2v-4h-17v4h6.2v17.3H-143.2z"/>
	<path class="st0" d="M-126.7,738.1c5.8,0,8.5-2.9,8.5-6.8c0-8-12.3-5.7-12.3-9.1c0-1.3,1.1-2.1,3-2.1c2.2,0,4.5,0.7,6.2,2.3
		l2.5-3.3c-2.1-2-4.9-3-8.3-3c-5,0-8.1,2.9-8.1,6.5c0,8,12.3,5.4,12.3,9.2c0,1.2-1.2,2.4-3.7,2.4c-2.9,0-5.3-1.3-6.8-2.9l-2.5,3.5
		C-133.7,736.7-130.8,738.1-126.7,738.1z"/>
	<path class="st1" d="M-99.6,737.7v-20.4h7.2v-1h-15.5v1h7.2v20.4H-99.6z"/>
	<path class="st1" d="M-79.9,738.1c6.2,0,10.1-4.9,10.1-11c0-6.2-4-11-10.1-11c-6.2,0-10.1,4.9-10.1,11
		C-90,733.2-86.1,738.1-79.9,738.1z M-79.9,737.1c-5.5,0-9-4.3-9-10.1c0-5.9,3.5-10.1,9-10.1s9,4.2,9,10.1
		C-70.8,732.8-74.4,737.1-79.9,737.1z"/>
</g>
</svg>
