<?xml version="1.0" encoding="utf-8"?>
<!-- Generator: Adobe Illustrator 19.0.0, SVG Export Plug-In . SVG Version: 6.00 Build 0)  -->
<svg version="1.1" id="Layer_1" xmlns="http://www.w3.org/2000/svg" xmlns:xlink="http://www.w3.org/1999/xlink" x="0px" y="0px"
	 viewBox="-439 601 400 400" style="enable-background:new -439 601 400 400;" xml:space="preserve">
<style type="text/css">
	.st0{fill:#ED1C24;}
	.st1{fill:#404040;}
</style>
<path class="st0" d="M-91,761V653h-296v296h296v-38h2v40h-300V651h300v110H-91z"/>
<path class="st1" d="M-329.9,849.3l7.6-26.7h-6.4l-4.6,19.3l-5-19.3h-4.4l-5.1,19.3l-4.7-19.3h-6.4l7.6,26.7h6l4.6-18.3l4.7,18.3
	H-329.9z"/>
<path class="st1" d="M-307.8,849.8c8.1,0,14-5.8,14-13.8s-5.9-13.8-14-13.8c-8,0-13.9,5.8-13.9,13.8
	C-321.7,844.1-315.8,849.8-307.8,849.8z M-307.8,844.8c-4.9,0-8.1-3.8-8.1-8.8s3.2-8.8,8.1-8.8s8.1,3.8,8.1,8.8
	C-299.7,841-302.9,844.8-307.8,844.8z"/>
<path class="st1" d="M-268.2,849.3l-6-10.2c2.9-0.7,5.8-3.2,5.8-7.9c0-5-3.4-8.6-9-8.6h-12.5v26.7h5.7v-9.5h4.2l5.2,9.5H-268.2z
	 M-278.2,834.9h-6v-7.2h6c2.3,0,4,1.4,4,3.6S-275.9,834.9-278.2,834.9z"/>
<path class="st1" d="M-241.3,849.3l-11.3-14.2l10.6-12.5h-7l-9.4,11.9v-11.9h-5.7v26.7h5.7v-8.2l2.1-2.5l8.1,10.7H-241.3z"/>
<path class="st1" d="M-233,849.3v-26.7h-5.7v26.7H-233z"/>
<path class="st1" d="M-203.8,849.3v-26.7h-5.7v16.8l-12.4-16.8h-5.8v26.7h5.7v-17.4l12.7,17.4H-203.8z"/>
<path class="st1" d="M-185.6,849.9c4.8,0,8.6-2,11.4-5v-10.2H-187v5h7v3.2c-1.1,1-3.3,2-5.7,2c-4.8,0-8.4-3.7-8.4-8.8
	c0-5,3.5-8.8,8.4-8.8c2.8,0,5.1,1.6,6.3,3.5l4.7-2.6c-2-3.2-5.5-6-11-6c-7.8,0-14.2,5.4-14.2,13.8
	C-199.8,844.4-193.4,849.9-185.6,849.9z"/>
<path class="st1" d="M-337.5,889.3v-5h-13.2v-6h12.9v-5h-12.9v-5.6h13.2v-5h-18.9v26.7h18.9V889.3z"/>
<path class="st1" d="M-309.2,889.3v-26.7h-5.7v16.8l-12.4-16.8h-5.8v26.7h5.7v-17.4l12.7,17.4H-309.2z"/>
<path class="st1" d="M-289.3,889.3l10.3-26.7h-6.5l-7.4,20.5l-7.4-20.5h-6.5l10.3,26.7H-289.3z"/>
<path class="st1" d="M-270.8,889.3v-26.7h-5.7v26.7H-270.8z"/>
<path class="st1" d="M-244,889.3l-6-10.2c2.9-0.7,5.8-3.2,5.8-7.9c0-5-3.4-8.6-9-8.6h-12.5v26.7h5.7v-9.5h4.2l5.2,9.5H-244z
	 M-253.9,874.9h-6v-7.2h6c2.3,0,4,1.4,4,3.6S-251.6,874.9-253.9,874.9z"/>
<path class="st1" d="M-227.2,889.8c8.1,0,14-5.8,14-13.8s-5.9-13.8-14-13.8c-8,0-13.9,5.8-13.9,13.8
	C-241.1,884.1-235.2,889.8-227.2,889.8z M-227.2,884.8c-4.9,0-8.1-3.8-8.1-8.8s3.2-8.8,8.1-8.8c4.9,0,8.1,3.8,8.1,8.8
	C-219.1,881-222.3,884.8-227.2,884.8z"/>
<path class="st1" d="M-185.4,889.3v-26.7h-5.7v16.8l-12.4-16.8h-5.8v26.7h5.7v-17.4l12.7,17.4H-185.4z"/>
<path class="st1" d="M-151.2,889.3v-26.7h-8l-6.5,16.1l-6.5-16.1h-8v26.7h5.7v-18.7l7.5,18.7h2.5l7.5-18.7v18.7H-151.2z"/>
<path class="st1" d="M-127,889.3v-5h-13.2v-6h12.9v-5h-12.9v-5.6h13.2v-5h-18.9v26.7h18.9C-127,889.4-127,889.3-127,889.3z"/>
<path class="st1" d="M-98.7,889.3v-26.7h-5.7v16.8l-12.4-16.8h-5.8v26.7h5.7v-17.4l12.7,17.4H-98.7z"/>
<path class="st1" d="M-81.5,889.3v-21.7h7.8v-5H-95v5h7.8v21.7H-81.5z"/>
<path class="st0" d="M-339.6,804.3l-7.2-18.7h-5l-7.2,18.7h4.5l1.2-3.2h8l1.1,3.2H-339.6z M-346.4,797.7h-5.8l2.9-8L-346.4,797.7z"
	/>
<path class="st0" d="M-319,804.3v-18.7h-4v11.7l-8.7-11.7h-4.1v18.7h4v-12.2l8.9,12.2H-319z"/>
<path class="st0" d="M-300,804.3v-18.7h-4v18.7H-300z"/>
<path class="st0" d="M-277.5,804.3v-18.7h-4v11.7l-8.7-11.7h-4.1v18.7h4v-12.2l8.9,12.2H-277.5z"/>
<path class="st0" d="M-265.1,804.7c5,0,7.5-2.6,7.5-6c0-7-10.7-5-10.7-8c0-1.1,1-1.9,2.7-1.9c1.9,0,3.9,0.6,5.4,2l2.2-2.9
	c-1.8-1.7-4.3-2.6-7.3-2.6c-4.4,0-7.1,2.6-7.1,5.7c0,7,10.8,4.8,10.8,8.1c0,1.1-1.1,2.1-3.2,2.1c-2.6,0-4.6-1.1-5.9-2.5l-2.2,3
	C-271.2,803.5-268.6,804.7-265.1,804.7z"/>
<path class="st0" d="M-248.8,804.3v-6.6h4.8c4,0,6.3-2.8,6.3-6c0-3.3-2.2-6-6.3-6h-8.7v18.7h3.9V804.3z M-244.6,794.2h-4.2v-5h4.2
	c1.6,0,2.7,1,2.7,2.5C-241.9,793.2-243,794.2-244.6,794.2z"/>
<path class="st0" d="M-229.3,804.3v-18.7h-4v18.7H-229.3z"/>
<path class="st0" d="M-208.3,804.3l-4.2-7.1c2-0.5,4.1-2.2,4.1-5.5c0-3.5-2.4-6-6.3-6h-8.7v18.7h4v-6.6h2.9l3.7,6.6h4.5V804.3z
	 M-215.3,794.2h-4.2v-5h4.2c1.6,0,2.8,1,2.8,2.5S-213.7,794.2-215.3,794.2z"/>
<path class="st0" d="M-185.9,804.3l-7.2-18.7h-5l-7.2,18.7h4.5l1.2-3.2h8l1.1,3.2H-185.9z M-192.7,797.7h-5.8l2.9-8L-192.7,797.7z"
	/>
<path class="st0" d="M-175.6,804.3v-15.2h5.4v-3.5H-185v3.5h5.5v15.2H-175.6z"/>
<path class="st0" d="M-161.5,804.3v-18.7h-4v18.7H-161.5z"/>
<path class="st0" d="M-146.9,804.7c5.7,0,9.8-4,9.8-9.7c0-5.6-4.1-9.7-9.8-9.7c-5.6,0-9.7,4-9.7,9.7
	C-156.6,800.6-152.5,804.7-146.9,804.7z M-146.9,801.1c-3.4,0-5.7-2.7-5.7-6.1c0-3.5,2.2-6.1,5.7-6.1s5.7,2.6,5.7,6.1
	S-143.4,801.1-146.9,801.1z"/>
<path class="st0" d="M-115.5,804.3v-18.7h-4v11.7l-8.7-11.7h-4.1v18.7h4v-12.2l8.9,12.2H-115.5z"/>
<path class="st0" d="M-92.3,804.3l-7.2-18.7h-5l-7.2,18.7h4.5l1.2-3.2h8l1.1,3.2H-92.3z M-99.1,797.7h-5.8l2.9-8L-99.1,797.7z"/>
<path class="st0" d="M-76.6,804.3v-3.5h-7.9v-15.2h-4v18.7H-76.6z"/>
<path class="st1" d="M-346.5,751c5.6,0,9.2-3.2,9.2-8.6c0-3.7-2.9-7.3-6.3-7.9c2.8-0.6,5.7-3.3,5.7-7.3c0-5.3-3.6-8.2-8.7-8.2h-12
	v32H-346.5z M-346.7,733.8h-10.5v-13.4h10.5c4.7,0,7.1,3.1,7.1,6.7C-339.7,730.8-342,733.8-346.7,733.8z M-346.5,749.6h-10.7v-14.3
	h10.7c5,0,7.5,3.5,7.5,7.2C-339,746.8-341.8,749.6-346.5,749.6z"/>
<path class="st1" d="M-318.1,751.6c7.8,0,11.9-4.8,11.9-12.7V719h-1.5v19.9c0,7.1-3.6,11.3-10.4,11.3c-6.7,0-10.4-4.2-10.4-11.3V719
	h-1.5v19.9C-330,746.7-325.8,751.6-318.1,751.6z"/>
<path class="st1" d="M-296.2,751v-32h-1.5v32H-296.2z"/>
<path class="st1" d="M-270.1,751v-1.4h-16.1V719h-1.5v32H-270.1z"/>
<path class="st1" d="M-254.3,751c9.9,0,15.9-7.3,15.9-16c0-8.5-6-16-15.9-16h-9.5v32H-254.3z M-254.3,749.6h-8v-29.1h8
	c9.1,0,14.3,6.6,14.3,14.6C-240,743.1-245.2,749.6-254.3,749.6z"/>
</svg>
